<?xml version="1.0" encoding="UTF-8"?>
<svg id="Layer_1" xmlns="http://www.w3.org/2000/svg" version="1.1" viewBox="0 0 624.4 614.2">
  <!-- Generator: Adobe Illustrator 29.1.0, SVG Export Plug-In . SVG Version: 2.1.0 Build 142)  -->
  <defs>
    <style>
      .st0 {
        fill: #2b1a11;
      }

      .st1 {
        fill: #ead8cd;
      }

      .st2 {
        fill: #c7a896;
      }

      .st3 {
        fill: #644b3c;
      }

      .st4 {
        fill: #3f3d56;
      }

      .st5 {
        fill: #a2782b;
      }

      .st6 {
        fill: #7a7471;
      }

      .st7 {
        fill: #56321c;
      }

      .st8 {
        fill: #ffb8b8;
      }

      .st9 {
        fill: #fff;
      }

      .st10 {
        fill: #268184;
      }

      .st11 {
        fill: #ab8167;
      }

      .st12 {
        fill: #bdbab8;
      }
    </style>
  </defs>
  <path class="st1" d="M454.8,114.1c0,23.8-1.7,47.7-4.8,71.3-.1.8-.2,1.7-.3,2.5h-223.3c-.7-.8-1.3-1.6-1.9-2.5-2.1-2.8-4.1-5.6-5.9-8.6-8.7-14.3-12.7-31-8.9-42.6v-.2c.9-2.5,2.2-4.9,4-6.9,9-10.2,27.2-8.6,43.8-.5-14.9-16.2-26.9-36.6-27.9-54.9-1-17.8,8.3-30.6,18.3-41.5.3-.4.7-.7,1-1.1.2-.2.3-.4.5-.5,7.9-8.3,17-16.5,30.3-15.6,14.6,1,30.9,13.1,42.3,27.4,11.4,14.2,19.1,30.3,26.8,46.1,7.8,15.8,16.1,31.9,28.5,45.3-16.8-21-30.3-44.9-35.4-68.1s-.9-45.7,13.9-56.8c4.5-3.3,9.7-5.4,15.2-6.2.6-.1,1.3-.2,1.9-.3,13.7-1.6,30.2,3,44.2,14.3,15.4,12.4,26.2,30.9,31.6,48.5,5.4,17.6,6.1,34.5,6,50.9Z"/>
  <path class="st9" d="M309.1,187.9h-4.3c-1.4-.8-2.7-1.7-4.1-2.5-.9-.5-1.7-1-2.6-1.6-14.2-8.6-28.5-16.8-42.9-24.6-14.4-7.9-28.8-15.4-43.3-22.5-.8-.3-1.2-1.2-1-2,0,0,0-.1,0-.1.2-.4.6-.5,1.3-.2,1.8.9,3.6,1.8,5.3,2.7,14.6,7.3,29,14.9,43.5,22.9,14.4,8,28.8,16.3,43,25,.3.2.6.4.9.5,1.4.8,2.7,1.7,4.1,2.5Z"/>
  <path class="st9" d="M364.2,187.9h-2.6c-.6-.8-1.2-1.7-1.8-2.5-14.1-19.5-28.2-39.1-42.3-58.6-23.1-32-46.2-64-69.2-96-.1-.2-.2-.4-.3-.6-.2-.7.3-1.1,1-1.1.6,0,1.1.4,1.4.9,12.9,17.9,25.9,35.9,38.8,53.8,23,31.8,45.9,63.7,68.9,95.5,1.5,2,2.9,4,4.4,6.1.6.8,1.2,1.7,1.8,2.5Z"/>
  <path class="st9" d="M422.9,172.2c-.1,4.5-.4,8.8-.7,13.2,0,.8-.1,1.7-.2,2.5h-2.8c0-.8.2-1.7.2-2.5.6-6.3.9-12.6,1-19.1,0-18-1.9-36-5.5-53.7-3.9-19-9.4-37.7-16.6-55.8-7.5-19.1-16.5-37.5-26.9-55.1-.2-.3-.3-.6-.2-1,.1-.8,1.2-1,1.9-.3.2.1.3.3.4.5,1.3,2.2,2.6,4.4,3.8,6.6,10,17.7,18.7,36.2,25.8,55.3,6.8,18.1,11.9,36.8,15.5,55.8,3.3,17.7,4.8,35.6,4.4,53.5Z"/>
  <path class="st6" d="M615.7,185.4H8.7c-4.8,0-8.7,3.9-8.7,8.7v411.3c0,4.8,3.9,8.7,8.7,8.7h607c2.6,0,5-1.1,6.6-3.1,0,0,.1-.2.2-.2.5-.6.9-1.3,1.2-2.1.4-1,.7-2.2.7-3.3V194.1c0-4.8-3.9-8.7-8.7-8.7ZM622,605.4c0,1.2-.4,2.4-1,3.4-.6.9-1.4,1.6-2.4,2.1-.9.5-1.9.7-2.9.7H8.7c-3.4,0-6.2-2.8-6.2-6.2V194.1c0-3.4,2.8-6.2,6.2-6.2h607c3.4,0,6.2,2.8,6.2,6.2v411.3Z"/>
  <rect class="st6" x="1.2" y="220.4" width="622" height="2.5"/>
  <circle class="st6" cx="22.4" cy="204.1" r="7.5"/>
  <circle class="st6" cx="43.9" cy="204.1" r="7.5"/>
  <circle class="st6" cx="65.4" cy="204.1" r="7.5"/>
  <path class="st5" d="M277,432.3c-7.5-4.9-11.2-16.2-9.4-26.5s8.7-19.3,17-23.1c8.2-3.7,17.7-3,25.2,1.8,7.6,4.6,18.3,7.2,21.9,16.5,2.8,7.1-.7,21.6-4.5,28.5-3.2,6-9.3,8.7-15.1,9.9-12.9,2.6-26.2-.5-36.7-8.5l1.4,1.4Z"/>
  <polygon class="st8" points="273.1 487.2 267.1 497.5 266.3 498.9 265.2 500.9 247.5 500.9 248.7 498.9 251.8 493.7 259 481.6 267.1 484.8 273.1 487.2"/>
  <path class="st7" d="M246.2,500.9l-3.2-2-.4-.2,20.2-36.8c1.8-3.2,4.7-5.6,8.2-6.6,2.2-.7,4.5-.7,6.8-.2,1.3.3,2.6.7,3.7,1.4.5.3.9.6,1.4.9,1.7,1.2,3.1,2.8,4.1,4.6,2.4,4.4,2.2,9.7-.4,14l-7.8,12.5-6.7,10.7-1.2,2h-24.7Z"/>
  <circle class="st2" cx="298.1" cy="420.8" r="24.6"/>
  <path class="st10" d="M322.8,500.9h-55.2l.2-.7c-.1-.4-.3-.9-.4-1.3-.1-.5-.2-.9-.3-1.4-.9-4.2-.9-8.5,0-12.7,3.1-15,15.2-27.2,15.2-27.2.2-.2.4-.3.6-.5,1.8-1.3,3.8-2.4,5.9-3.3,9-3.8,18.5-2.2,24.9-.3,2.2.7,4.4,1.5,6.5,2.5.7.3,1.1.6,1.1.6l.6,19.2.8,23v2Z"/>
  <path class="st7" d="M348.3,498.9l-4.2-21.5-4.3-21.6c-.4-1.8-1.8-3.2-3.7-3.6l-8.9-1.5-8.3-1.4c-1.6-.3-3.3.3-4.3,1.7-.6.8-1,1.7-1,2.7,0,.6.1,1.2.4,1.8,4.3,10.1,4.4,26.1,3.3,43.5,0,.7,0,1.3-.1,2h31.5l-.4-2Z"/>
  <path class="st7" d="M288.8,454c-.6-2.4-3.1-3.9-5.5-3.3-.6.2-1.2.4-1.7.8l-3.8,3.5-15.7,14.3c-.5.4-.9,1-1.1,1.6-1.8,4.2-5.2,12.6-9.2,22.9-.6,1.7-1.3,3.4-2,5.2-.2.7-.5,1.3-.8,2h25.8c.2-.7.4-1.3.6-2,1.1-3.6,2.3-7.2,3.4-10.7,3.2-10,6-19.2,8.2-26.4.6-2,1.2-3.8,1.7-5.5.2-.8.3-1.6,0-2.4Z"/>
  <polygon class="st8" points="354.1 500.9 355.8 500.9 355.6 500.3 355 498.9 345.5 476.6 344.1 477.4 332.5 484.4 338.5 498.9 339.3 500.9 348.7 500.9 354.1 500.9"/>
  <path class="st7" d="M344.6,458.9c-2.6-6.9-10.3-10.5-17.3-8.2-.4.1-.9.3-1.3.5-2.4,1.1-4.4,2.8-5.8,4.9-.6.9-1.1,1.8-1.4,2.8-1.3,3.4-1.2,7.2.3,10.6l2.9,6.4,10.3,23,.9,2h20.9l1.4-.6,3.7-1.4.5-.2-15.2-39.8Z"/>
  <path class="st5" d="M317.4,392.6c1.8.5,3.7-.2,4.6-1.8.9-1.6,1-3.5.3-5.1-.7-1.6-1.8-3.1-3.2-4.2-1.6-1.4-3.5-2.4-5.6-2.9-2.1-.5-4.3,0-6.1,1.3-1.7,1.4-2.4,3.6-1.8,5.7.6,1.8,2.4,3.1,4.1,4,3.4,1.8,7.2,2.9,11,3.1l-3.4-.2Z"/>
  <path class="st5" d="M322.2,420.1c-3.9.5-3.4-1.5-5-5.1s-3.7-8-7.7-8.4c-3.3-.3-5.9,2.3-8.6,4.2-4.7,3.4-11,5.1-16.5,3.1s-9.2-8.6-7.2-14c1.3-3,3.8-5.4,6.9-6.5,3.1-1.1,6.4-1.6,9.6-1.3,7.3.2,14.4,2.1,20.9,5.3,4.5,2.3,8.8,5.5,10.5,10.2s2.8,11.4-2,12.6h-1Z"/>
  <path class="st5" d="M315.4,379.6c-2-3.4-.3-8.1,2.9-10.3s7.5-2.5,11.3-1.6c7.7,1.9,13.7,7.8,15.9,15.4,1.6,5.9.7,12.3,2,18.3,3,12.9,15.8,21.1,28.8,18.1.5-.1,1-.2,1.4-.4,4.1-1.2,8.3-4.1,8.7-8.4.9,10-4.7,19.5-13.9,23.5-5.3,2.2-11.2,2.3-16.9,2.2-3.7,0-7.5-.3-11-1.8-4.8-2.2-8.5-6.2-10.3-11.2-1.8-4.9-2.2-10.3-1.4-15.4.6-4,1.7-8,2-12s-.3-8.4-2.8-11.6-7.3-4.8-10.8-2.9c-1.4.8-2.6,2.1-4.1,2.6s-3.8-.4-3.6-2l1.9-2.6Z"/>
  <path class="st10" d="M483,500.9l.2-2,5.6-58.7c1.8-1.4,3.8-2.7,5.9-3.8,11.6-5.8,22.8-3,28.9-.6,1.6.6,3.2,1.4,4.6,2.3l3.3,60.8v2c.1,0-48.6,0-48.6,0Z"/>
  <circle class="st11" cx="509.4" cy="400" r="24.6" transform="translate(32.9 838.8) rotate(-80.8)"/>
  <path class="st7" d="M529.3,415c5.1-5.4,4.9-13.8-.5-18.9-2.6-2.5-6.1-3.8-9.6-3.7-3.4.1-6.6,1.5-9.8,2.5-4.9,1.7-10.2,2.1-15.3,1.4-5.2-.8-9.8-3.6-13-7.7-3-4.2-4-10-1.8-14.7,2.5-5.4,8.3-8.4,13.7-10.8,2.2-1.1,4.5-1.9,7-2.3,2.5-.4,5,.2,6.9,1.7,1.5,1.3,2.4,3.3,4.1,4.4,1.9,1.3,4.3,1.3,6.6,1.5,13.9,1.4,24,13.7,22.6,27.6-.7,7.2-4.5,13.7-10.4,18l-.3.9Z"/>
  <path class="st0" d="M498.4,446.6l-3.7-10.2-.2-.6c-.4-1.1-1.6-1.7-2.7-1.3-.2,0-.3.1-.5.2l-4.2,2.8s-26.6,0-28.8,16c0,.2,0,.5,0,.8,0,0,0,0,0,0-.3,1-5.3,20.5-9.6,44.5-.1.7-.2,1.3-.4,2h57.9c1.9-24.1.8-46.5-7.8-54.3Z"/>
  <path class="st0" d="M567.5,498.9c-3.2-24.6-7.7-44.5-7.7-44.5,0-.3,0-.6-.1-.8-2.1-16-28.8-16-28.8-16l-4.2-2.8c-1-.6-2.3-.4-2.9.6,0,.1-.2.3-.2.5l-3.9,10.8c-8.7,7.8-9.7,30.2-7.8,54.3h0s55.8,0,55.8,0c0-.7-.2-1.3-.2-2Z"/>
  <path class="st10" d="M98.4,442.8l-5.9,56.1-.2,2h-16.1c.2-.7.4-1.3.6-2,4.6-15.6,10.8-38.5,10.1-44.5-1-9.4,6.3-12.6,6.3-12.6h.5c0,0,4.8,1.1,4.8,1.1Z"/>
  <circle class="st3" cx="124.3" cy="401" r="24.6"/>
  <path class="st10" d="M156.1,489c-1.2,2.3-2.3,4.7-3,7.2-.3.9-.6,1.8-.8,2.7-.2.7-.4,1.3-.5,2h-64.8c0-.7.2-1.3.3-2,3.3-26.2,6-52.7,6.4-57,0-.4,0-.6,0-.6,38.8-20.5,67.1,6.3,67.1,6.3,0,0,0,.2.1.6.6,3.7,3.8,25.6-4.8,40.9Z"/>
  <path class="st10" d="M153.1,496.2l-4.3-9.3,1-36.7,11.1-2.1h.4c5.7,3.3,10.2,8.5,12.6,14.7,2.2,5.4,6.3,21.6,9.7,36.1.2.7.3,1.3.5,2h-28.9l-.9-2-1.3-2.7Z"/>
  <path class="st4" d="M192.6,335.9H50.6c-6.3,0-11.5,5.1-11.5,11.5v142c0,6.3,5.1,11.5,11.5,11.5h142c6.3,0,11.5-5.1,11.5-11.5v-142c0-6.3-5.1-11.5-11.5-11.5ZM202.1,489.4c0,5.2-4.3,9.5-9.5,9.5H50.6c-5.2,0-9.5-4.3-9.5-9.5v-142c0-5.2,4.3-9.5,9.5-9.5h142c5.2,0,9.5,4.3,9.5,9.5v142ZM92.5,498.9l-.2,2h59.5c.2-.7.3-1.3.5-2h-59.8Z"/>
  <path class="st4" d="M383.2,335.9h-142c-6.3,0-11.5,5.1-11.5,11.5v142c0,6.3,5.1,11.5,11.5,11.5h142c6.3,0,11.5-5.1,11.5-11.5v-142c0-6.3-5.1-11.5-11.5-11.5ZM392.7,489.4c0,5.2-4.3,9.5-9.5,9.5h-142c-5.2,0-9.5-4.3-9.5-9.5v-142c0-5.2,4.3-9.5,9.5-9.5h142c5.2,0,9.5,4.3,9.5,9.5v142ZM267.4,498.9c.1.4.3.9.4,1.3l-.2.7h49.7c0-.7,0-1.3.1-2h-49.9Z"/>
  <path class="st4" d="M573.8,335.9h-142c-6.3,0-11.5,5.1-11.5,11.5v142c0,6.3,5.1,11.5,11.5,11.5h142c6.3,0,11.5-5.1,11.5-11.5v-142c0-6.3-5.1-11.5-11.5-11.5ZM583.3,489.4c0,5.2-4.3,9.5-9.5,9.5h-142c-5.2,0-9.5-4.3-9.5-9.5v-142c0-5.2,4.3-9.5,9.5-9.5h142c5.2,0,9.5,4.3,9.5,9.5v142ZM506.4,498.9c0,.7-.1,1.3-.1,2h43.1c0-.7.2-1.3.2-2h-43.2Z"/>
  <path class="st12" d="M477.2,558.9H147.2c-4.4,0-8-3.6-8-8s3.6-8,8-8h330c4.4,0,8,3.6,8,8s-3.6,8-8,8Z"/>
  <path class="st10" d="M384.7,293.9h-145c-4.4,0-8-3.6-8-8s3.6-8,8-8h145c4.4,0,8,3.6,8,8s-3.6,8-8,8Z"/>
  <path class="st0" d="M136.1,422.4c1.7,1.7,4.4,1.9,6.3.4,5.8-4.3,10.9-9.6,13.9-16.1,3.4-7.5,3.8-16.6-.3-23.7-3.5-6-9.7-9.9-15.9-13-2.4-1.4-5-2.4-7.7-3-2.7-.6-5.6-.1-8,1.3-2.4,1.5-3.6,4.3-3.1,7.1-3-3.4-6.8-5.9-11-7.4-2.7-1-5.6-1.3-8.4-.6-3.9,1.1-6.8,4.6-8.4,8.4-1.3,2.9-1.7,6-1.3,9.1.5,3.1,2.2,5.9,4.9,7.6,3.2,2,7.4,1.9,11.1,1s7.3-2.2,11.1-2.6,8,.6,10.3,3.6c1.6,2.1,2,4.9,2.4,7.6l1.9,13.8c.2,2,.7,4,1.5,5.8.1.3.3.5.5.7Z"/>
</svg>