<?xml version="1.0" encoding="UTF-8"?>
<svg id="Layer_1" xmlns="http://www.w3.org/2000/svg" version="1.1" viewBox="0 0 751.1 669">
  <!-- Generator: Adobe Illustrator 29.1.0, SVG Export Plug-In . SVG Version: 2.1.0 Build 142)  -->
  <defs>
    <style>
      .st0 {
        fill: #2b1a11;
      }

      .st1 {
        fill: #ead8cd;
      }

      .st2 {
        fill: #e6e6e6;
      }

      .st3 {
        fill: #56321c;
      }

      .st4 {
        fill: #dfdddc;
      }

      .st5 {
        fill: #c08a69;
      }

      .st6 {
        fill: #268184;
      }

      .st7 {
        fill: #5c5755;
      }

      .st8 {
        fill: #f7f7f7;
      }

      .st9 {
        fill: #866048;
      }

      .st10 {
        fill: #bdbab8;
      }

      .st11 {
        fill: #cacaca;
      }
    </style>
  </defs>
  <path class="st1" d="M86.2,669l-.7-.2c-22.1-8.4-39.5-26-47.4-48.3-2.2-6.2-3.5-12.6-4.1-19.2v-.6c0,0,.6.1.6.1,7.4,1.3,15.1,2,18.5,2.3l-19.3-12.8v-.7c.3-6.2,4.4-11.7,10.3-13.7,6-2.2,12.6-.6,16.9,4.2,1.9,2.1,3.9,4.2,5.9,6.2,6.7,7,13.7,14.2,18.1,22.7,6.6,13.1,7,28.5,1,41.9,0,0,.2,18.1.2,18.1Z"/>
  <path class="st6" d="M476.6,656.7h0c-.9-19-4.3-37.7-10.3-55.7h0c-.3-1.9-.2-3.8.3-5.6,1.7-5.2,6.9-8.3,12.2-7.4,5.5,1,11.2,0,16.1-2.8,3.1-1.8,6.8-2,10.1-.7,3.1,1.3,5.4,3.9,6.3,7.2,0,.3.1.5.2.8.2,19,3.7,37.9,10.3,55.7h0c.7,3.7-.4,7.5-3,10.2-2.3,2.3-5.5,3.5-8.7,3.2-5.8-.4-11.8.8-18.2,3.6-2.3,1-4.8,1.2-7.2.5-4.2-1.2-7.4-4.7-8.1-9h0Z"/>
  <path class="st4" d="M291.4,396.5v248.7h174.2v-248.7c0-3.7-2.4-6.9-5.9-8-.8-.3-1.6-.4-2.5-.4h-157.4c-4.6,0-8.4,3.7-8.4,8.4h0ZM359.4,482c0-10.3,8.5-18.5,18.8-18.4,10.1,0,18.3,8.3,18.4,18.4v28.9c0,10.3-8.4,18.6-18.7,18.5-10.2,0-18.5-8.3-18.5-18.5v-28.9Z"/>
  <path class="st10" d="M290.8,637.2v24c0,2.6,2.1,4.7,4.7,4.7h165.9c2.6,0,4.7-2.1,4.7-4.7v-24h-175.3Z"/>
  <path class="st10" d="M17.3,21.8v454.1c0,12,9.8,21.8,21.8,21.8h672.9c12,0,21.8-9.8,21.8-21.8V21.8c0-12-9.8-21.8-21.8-21.8H39.1c-12,0-21.8,9.8-21.8,21.8h0Z"/>
  <path class="st8" d="M706.4,15.8H44.7c-6.4,0-11.7,5.2-11.7,11.7v442.8c0,6.4,5.2,11.7,11.7,11.7h661.7c6.4,0,11.7-5.2,11.7-11.7V27.5c0-6.4-5.2-11.7-11.7-11.7h0ZM539.5,330.4c-2,3.9-6,6.4-10.4,6.4h0c-6.3-.9-12.7-1.5-19.1-1.8,1,.7,1.9,1.6,2.6,2.6,1.9,2.7,2.4,6,1.6,9.1-1.4,5.6-1.4,11.7.2,18.6.6,2.4.3,4.9-.8,7.1-2,3.9-6,6.4-10.4,6.4h0c-15.1-2.1-30.5-2.5-45.7-1.2,0,.4-.1.8-.2,1.2-1.4,5.6-1.4,11.7.2,18.6.6,2.4.3,4.9-.8,7.1-2,3.9-6,6.4-10.4,6.4h0c-15.6-2.2-31.3-2.5-47-1.1-.1,3.9.3,7.8,1.2,11.6.6,2.4.3,4.9-.8,7.1-2,3.9-6,6.4-10.4,6.4h0c-18.8-2.6-37.8-2.6-56.6,0h0c-1.9,0-3.7-.4-5.4-1.3-4.8-2.6-6.9-8.3-5.1-13.4.6-1.6,1-3.3,1.3-4.9-17.2-2-34.6-1.8-51.8.6h0c-1.9,0-3.7-.4-5.4-1.3-4.8-2.6-6.9-8.3-5.1-13.4,2-5.2,2.1-11,.2-16.3-.9-2.5-.9-5.2,0-7.7-12.9-.7-25.9,0-38.7,1.7h0c-1.9,0-3.7-.4-5.4-1.3-4.8-2.6-6.9-8.3-5.1-13.4,2-5.2,2.1-11,.2-16.3-1.2-3.4-.8-7.1,1.2-10.1,1.8-2.8,4.9-4.6,8.2-4.9.3,0,.5,0,.8,0,6.6,1.1,13.2,1.9,19.9,2.2-4.3-2.8-6-8.1-4.3-12.9,2-5.2,2.1-11,.2-16.3-1.2-3.4-.8-7.1,1.2-10.1,0-.1.2-.2.3-.4-4.7.3-9.5.8-14.2,1.5h0c-1.9,0-3.7-.4-5.4-1.3-4.8-2.6-6.9-8.3-5.1-13.4,2-5.2,2.1-11,.2-16.3-1.2-3.4-.8-7.1,1.2-10.1,1.8-2.8,4.9-4.6,8.2-4.9.3,0,.5,0,.8,0,7.9,1.4,15.9,2.2,23.9,2.4-2-2.9-2.5-6.7-1.4-10.1,2-5.2,2.1-11,.2-16.3-1.2-3.4-.8-7.1,1.2-10.1,1.8-2.8,4.9-4.6,8.2-4.9.3,0,.5,0,.8,0,6.7,1.2,13.4,1.9,20.2,2.3-1.5-2.8-1.7-6-.7-8.9,2-5.2,2.1-11,.2-16.3-1.2-3.4-.8-7.1,1.2-10.1,1.8-2.8,4.9-4.6,8.2-4.9.3,0,.5,0,.8,0,7.9,1.4,15.8,2.2,23.8,2.4-1.1-2.6-1.2-5.5-.2-8.1,2-5.2,2.1-11,.2-16.3-1.2-3.4-.8-7.1,1.2-10.1,1.8-2.8,4.9-4.6,8.2-4.9.3,0,.5,0,.8,0,18.7,3.3,37.9,3.3,56.7,0h0c1.4.3,2.9.3,4.4,0h0c18.7,3.3,37.9,3.3,56.7,0,.3,0,.5,0,.8,0,3.4.2,6.4,2,8.2,4.9,1.9,3,2.4,6.7,1.2,10.1-1.9,5.3-1.8,11.1.2,16.3.9,2.6.8,5.5-.2,8.1,8-.2,15.9-1,23.8-2.4.3,0,.5,0,.8,0,3.4.2,6.4,2,8.2,4.9,1.9,3,2.4,6.7,1.2,10.1-1.9,5.3-1.8,11.1.2,16.3,1,2.9.8,6.2-.7,8.9,6.8-.3,13.5-1.1,20.2-2.3.3,0,.5,0,.8,0,3.4.2,6.4,2,8.2,4.9,1.9,3,2.4,6.7,1.2,10.1-1.9,5.3-1.8,11.1.2,16.3,1.2,3.4.7,7.2-1.4,10.1.9.7,1.7,1.5,2.3,2.4,1.9,2.7,2.4,6,1.6,9.1-1.4,5.6-1.4,11.7.2,18.6.6,2.4.3,4.9-.8,7.1-.4.8-.9,1.5-1.5,2.2,4.7-.4,9.4-1,14-1.8h0c3.7,0,7.3,1.8,9.5,4.8,1.9,2.7,2.4,6,1.6,9.1-1.4,5.6-1.4,11.7.2,18.6.6,2.4.3,4.9-.8,7.1Z"/>
  <path class="st2" d="M684.9,76.8H65.8c-1.4,0-2.4-1.2-2.4-2.5,0-1.3,1.1-2.4,2.4-2.4h619.1c1.4,0,2.4,1.2,2.4,2.5,0,1.3-1.1,2.4-2.4,2.4Z"/>
  <path class="st6" d="M382.9,422.9h0c-18.8-2.6-37.8-2.6-56.6,0h0c-1.9,0-3.7-.4-5.4-1.3-4.8-2.6-6.9-8.3-5.1-13.4,2-5.2,2.1-11,.2-16.3-1.2-3.4-.8-7.1,1.2-10.1,1.8-2.8,4.9-4.6,8.2-4.9.3,0,.5,0,.8,0,18.7,3.3,37.9,3.3,56.7,0h0c3.7,0,7.3,1.8,9.5,4.8,1.9,2.7,2.4,6,1.6,9.1-1.4,5.6-1.4,11.7.2,18.6.6,2.4.3,4.9-.8,7.1-2,3.9-6,6.4-10.4,6.4Z"/>
  <path class="st9" d="M440.6,324.9l-15.1-12.5c-11.3,5.9-28.6,29.6-28.6,29.6l-39.8,28.6c-4.8.2-8.5,4.3-8.2,9.1s4.3,8.5,9.1,8.2c3.1-.1,5.9-1.9,7.3-4.7l54-28.5,21.3-29.8Z"/>
  <path class="st5" d="M466.1,277.3h0c8.7,7.4,9.8,20.4,2.4,29.2-.8,1-1.7,1.9-2.7,2.7l-9.6,7.8s-24,34.5-36.4,38.5l-32,16.7-14.4-14.5,29-23.6s13.3-12.6,14.7-21.9c.8-5.7,10.4-21.1,20-32.5,7.4-8.7,20.4-9.8,29.1-2.4h0Z"/>
  <polygon class="st9" points="435 651.7 421.4 651.7 414.9 599 435 599 435 651.7"/>
  <path class="st0" d="M435.5,665.9h-42v-.5c0-9,7.3-16.3,16.3-16.3h0l7.7-5.8,14.3,5.8h3.7s0,16.9,0,16.9Z"/>
  <polygon class="st9" points="539 579.8 532.6 591.9 483.1 572.7 492.7 554.9 539 579.8"/>
  <path class="st0" d="M551.8,586.2l-19.9,37-.5-.3c-7.9-4.3-10.9-14.2-6.7-22.1h0s-1.5-9.5-1.5-9.5l11.9-9.8,1.7-3.2,14.9,8Z"/>
  <path class="st3" d="M409.2,410.6l-12,96.4,6,32.3,108.4,47.5,6-19.6c-27.7-17-57.3-42.6-76-44.5,0,0-1.5-17.1,11.8-27.7,2.7-2.1,2.1-5,3.2-7.6.8-1.8,3.7-3.7,4.5-5.5,1-2.4-.2-4.8.8-7.2.6-1.4,2.7-1.4,3.2-2.8.9-2.3.3-5.9,1.3-8.2,2-4.9,3.9-9.7,5.6-14.2,5.4-14,9.2-25.1,8.7-27.5-1.5-7.5-71.5-11.3-71.5-11.3h0Z"/>
  <path class="st3" d="M407.2,506.7l-6.3,40.7,15.9,83h21.1c7.6-27.9,8-64.6.8-95.6l-31.4-28.1Z"/>
  <path class="st5" d="M420.7,292.9l9.7-16.9,10.4-8.4,19.6-3,5.4,4.2h0c19.6,29.9,26.9,66.2,20.4,101.4l-1.5,8.3-1,5.3.4,6.3-3.3,9.1.4,6.7.2,3.6.2,3.6.3,5c.6,2.9-2.4,2.5-2,5,.8,4.4,4.1,11-1,11l-53-11c-13.5,0-26-16-13-29l7.5-101Z"/>
  <circle class="st9" cx="445.5" cy="234.1" r="25.7"/>
  <path class="st0" d="M445.9,259.1c3.8,0,7.5-.2,11.3-.8,3.7-.8,11.9-6.8,14.2-10.4h0c1.7-2.7,2.8-6.9,3.4-10,1.7-8.2-.2-16.7-5.2-23.5-.9-1.4-2.2-2.5-3.8-3.2-.1,0-.3,0-.4-.1-2.2-.6-4.2-1.8-5.7-3.5-.3-.3-.6-.7-1-1-1.7-1.4-3.7-2.5-5.9-3-3.5-.9-8.6,0-15.1,2.8-3.3,1.4-6.9.9-9.6.3-.3,0-.6,0-.8.3-1.2,1.1-2.7,1.7-4.3,1.7-1,0-2,1.4-3.3,3.2-.3.4-.6.9-.9,1.2v-.6s-.6.6-.6.6c-2.9,3.2-2.6,8.1.5,10.9.9.8,1.9,1.3,3,1.7,1,.3,2,.4,3,.5.6,0,1.3.1,1.9.2,4,.8,7.3,3.7,8.7,7.6.6,1.6,2.3,2.4,3.9,1.8.2,0,.5-.2.7-.4,1.3-1,3-1.3,4.6-.8.7.4,1.2,1,1.5,1.7.3.8.9,1.5,1.7,1.9,2.5,1.3,2.7,7,1.8,11.8-.9,4.6-2.6,7.9-4.2,8.1-1.2.1-1.4.2-1.4.4v.2c0,0,0,.2,0,.2.7.2,1.4.3,2.1.3Z"/>
  <path class="st6" d="M393.9,243.9h0c-18.8-2.6-37.8-2.6-56.6,0h0c-1.9,0-3.7-.4-5.4-1.3-4.8-2.6-6.9-8.3-5.1-13.4,2-5.2,2.1-11,.2-16.3-1.2-3.4-.8-7.1,1.2-10.1,1.8-2.8,4.9-4.6,8.2-4.9.3,0,.5,0,.8,0,18.7,3.3,37.9,3.3,56.7,0h0c3.7,0,7.3,1.8,9.5,4.8,1.9,2.7,2.4,6,1.6,9.1-1.4,5.6-1.4,11.7.2,18.6.6,2.4.3,4.9-.8,7.1-2,3.9-6,6.4-10.4,6.4Z"/>
  <path class="st9" d="M417.9,304.6l10.6-16.5c-7.2-10.6-32.8-24.9-32.8-24.9l-33-36.1c-.8-4.7-5.2-7.9-10-7.1-4.7.8-7.9,5.2-7.1,10,.5,3.1,2.6,5.6,5.5,6.7l34.7,50.3,32.1,17.7Z"/>
  <path class="st5" d="M468.1,324.3h0c-6.3,9.5-19.2,12.1-28.7,5.8-1.1-.7-2.1-1.5-3-2.4l-8.9-8.6s-37.2-19.4-42.6-31.4l-24.4-34.6,16.3-14.7,28.4,25.8s13.1,15.1,22.4,15.4c5.7.2,22.1,7.9,34.6,16.1,9.5,6.3,12.1,19.1,5.8,28.6h0Z"/>
  <path class="st6" d="M220.2,665.8h0c-18.8-2.6-37.8-2.6-56.6,0h0c-1.9,0-3.7-.4-5.4-1.3-4.8-2.6-6.9-8.3-5.1-13.4,2-5.2,2.1-11,.2-16.3-1.2-3.4-.8-7.1,1.2-10.1,1.8-2.8,4.9-4.6,8.2-4.9.3,0,.5,0,.8,0,18.7,3.3,37.9,3.3,56.7,0h0c3.7,0,7.3,1.8,9.5,4.8,1.9,2.7,2.4,6,1.6,9.1-1.4,5.6-1.4,11.7.2,18.6.6,2.4.3,4.9-.8,7.1-2,3.9-6,6.4-10.4,6.4Z"/>
  <path class="st6" d="M236.2,623.8h0c-18.8-2.6-37.8-2.6-56.6,0h0c-1.9,0-3.7-.4-5.4-1.3-4.8-2.6-6.9-8.3-5.1-13.4,2-5.2,2.1-11,.2-16.3-1.2-3.4-.8-7.1,1.2-10.1,1.8-2.8,4.9-4.6,8.2-4.9.3,0,.5,0,.8,0,18.7,3.3,37.9,3.3,56.7,0h0c3.7,0,7.3,1.8,9.5,4.8,1.9,2.7,2.4,6,1.6,9.1-1.4,5.6-1.4,11.7.2,18.6.6,2.4.3,4.9-.8,7.1-2,3.9-6,6.4-10.4,6.4Z"/>
  <path class="st6" d="M96.2,635.2h0c12.7-14.1,23.4-29.9,31.7-46.9h0c1-1.6,2.5-2.9,4.1-3.8,4.8-2.5,10.7-1.1,13.9,3.3,3.2,4.6,8,7.9,13.4,9.3,3.5.9,6.3,3.3,7.7,6.6,1.3,3.1,1.1,6.6-.6,9.5-.1.2-.3.5-.4.7-13.2,13.7-24,29.6-31.8,46.9h0c-2.1,3.1-5.5,5-9.3,5.2-3.2,0-6.3-1.4-8.4-3.8-3.8-4.3-8.9-7.7-15.5-10.2-2.3-.9-4.2-2.5-5.5-4.7-2.1-3.8-1.9-8.5.5-12.1Z"/>
  <path class="st11" d="M749.9,667.3l-748.8.3c-.7,0-1.2-.5-1.2-1.2,0-.7.5-1.2,1.2-1.2l748.8-.3c.7,0,1.2.5,1.2,1.2,0,.7-.5,1.2-1.2,1.2Z"/>
  <g>
    <ellipse class="st7" cx="160.3" cy="45.3" rx="8.5" ry="8.6"/>
    <ellipse class="st7" cx="189.5" cy="45.3" rx="8.5" ry="8.6"/>
    <ellipse class="st7" cx="218.7" cy="45.3" rx="8.5" ry="8.6"/>
    <path class="st7" d="M252,52.1c-.3,0-.5-.1-.7-.3l-5.7-5.8c-.4-.4-.4-1,0-1.4l5.7-5.8c.4-.4,1-.4,1.4,0,.4.4.4,1,0,1.4l-5,5.1,5,5.1c.4.4.4,1,0,1.4-.2.2-.4.3-.7.3Z"/>
    <path class="st7" d="M261.6,52.1c-.3,0-.5,0-.7-.3-.4-.4-.4-1,0-1.4l5-5.1-5-5.1c-.4-.4-.4-1,0-1.4.4-.4,1-.4,1.4,0l5.7,5.8c.4.4.4,1,0,1.4l-5.7,5.8c-.2.2-.5.3-.7.3Z"/>
    <path class="st7" d="M560.1,37.6h-10.6c-1.2,0-2.2,1-2.2,2.2v10.6c0,1.2,1,2.2,2.2,2.2h10.6c1.2,0,2.2-1,2.2-2.2v-10.6c0-1.2-1-2.2-2.2-2.2Z"/>
    <path class="st7" d="M534.1,37.6h-10.6c-1.2,0-2.2,1-2.2,2.2v10.6c0,1.2,1,2.2,2.2,2.2h10.6c1.2,0,2.2-1,2.2-2.2v-10.6c0-1.2-1-2.2-2.2-2.2Z"/>
    <path class="st7" d="M584.6,38.1h-10.6c-1.2,0-2.2,1-2.2,2.2v10.6c0,1.2,1,2.2,2.2,2.2h10.6c1.2,0,2.2-1,2.2-2.2v-10.6c0-1.2-1-2.2-2.2-2.2Z"/>
    <path class="st7" d="M424.7,42.2h-84.8c-1.5,0-2.7,1.2-2.7,2.7s1.2,2.7,2.7,2.7h84.8c1.5,0,2.7-1.2,2.7-2.7s-1.2-2.7-2.7-2.7Z"/>
  </g>
</svg>