<?xml version="1.0" encoding="UTF-8"?><svg id="Layer_1" xmlns="http://www.w3.org/2000/svg" xmlns:xlink="http://www.w3.org/1999/xlink" viewBox="0 0 700 703.69"><defs><radialGradient id="radial-gradient" cx="350" cy="379.98" fx="350" fy="379.98" r="349.64" gradientTransform="translate(0 -38) scale(1 1.1)" gradientUnits="userSpaceOnUse"><stop offset=".49" stop-color="#3d3a39"/><stop offset=".67" stop-color="#383535"/><stop offset=".87" stop-color="#2c2929"/><stop offset="1" stop-color="#1f1d1d"/></radialGradient></defs><polygon points="350 0 69.32 138.64 0 450.17 194.24 700 505.76 700 700 450.17 630.68 138.64 350 0" style="fill:url(#radial-gradient); stroke-width:0px;"/><g id="s"><path d="M382.17,703.69l-.16-233.43h-71.45v233.43" style="fill:#bdbab8; stroke-width:0px;"/><path d="M376.9,703.69l-.16-228.16h-60.91v228.16h-10.54v-233.43c0-2.91,2.36-5.27,5.27-5.27h71.45c2.91,0,5.27,2.36,5.27,5.27l.16,233.43h-10.54Z" style="fill:#9c9795; stroke-width:0px;"/></g><g id="r"><path id="u" d="M316.41,127.17c-3.71-.9-7.68-.9-11.39.26l-134.17,41.22c-5.5,1.66-7.3,8.71-3.2,12.8l78.61,78.61,8.71,55.56,57.35,10.37h40.46l13.7-83.73-48.39-114.32s-1.02-.64-1.66-.9h0v.13Z" style="fill:#268184; stroke-width:0px;"/><path id="v" d="M318.07,128.07l34.69,198.05h34.95l58.76-19.2,7.3-46.73-127.51-127.38c-2.43-2.18-5.25-3.71-8.32-4.74h.13Z" style="fill:#5da1a3; stroke-width:0px;"/><path id="w" d="M453.65,260.06l-66.06,65.93v40.46l101.78,3.84,96.66-38.53c1.41-4.22,1.41-8.71.13-12.93l-41.22-134.17c-1.66-5.5-8.71-7.3-12.8-3.2l-78.61,78.61h.13Z" style="fill:#ab6336; stroke-width:0px;"/><path id="x" d="M586.15,331.75l-198.44,34.69v34.95l20.74,44.17,45.32,21.89,127.38-127.38c2.3-2.3,4.1-5.25,5.12-8.32h-.13Z" style="fill:#c08a69; stroke-width:0px;"/><path id="y" d="M453.65,467.46l-66.06-66.06h-40.46l-12.03,88.21,47.5,114.2,146.46-44.94c5.5-1.66,7.3-8.71,3.2-12.8,0,0-78.61-78.61-78.61-78.61Z" style="fill:#d7a03a; stroke-width:0px;"/><path id="a_" d="M382.6,603.93l-35.46-202.4h-34.95l-57.1,5.63-8.83,60.3,66.06,66.06,70.41,70.41h-.13Z" style="fill:#e1b86c; stroke-width:0px;"/><path id="aa" d="M246.25,467.46l66.06-66.06v-40.46l-78.35-14.21-119.7,48.9c-1.54,4.22-1.79,8.71-.64,13.06l41.22,134.17c1.66,5.5,8.71,7.3,12.8,3.2,0,0,78.61-78.61,78.61-78.61Z" style="fill:#7a7471; stroke-width:0px;"/><path id="ab" d="M114.26,395.76l198.05-34.69v-34.95l-66.06-66.06-127.38,127.38c-2.18,2.43-3.84,5.25-4.74,8.32h.13Z" style="fill:#9c9795; stroke-width:0px;"/><path id="ac" d="M586.15,331.75l-198.44-5.76v40.46s198.44-34.69,198.44-34.69Z" style="fill:#814b29; stroke-width:0px;"/><path id="ad" d="M114.26,395.76l198.44,5.76v-40.46s-198.44,34.69-198.44,34.69Z" style="fill:#5c5755; stroke-width:0px;"/><path id="ae" d="M318.07,128.07l-5.76,198.44h40.46s-34.69-198.44-34.69-198.44Z" style="fill:#185153; stroke-width:0px;"/><path id="af" d="M382.6,603.93l4.99-202.4h-40.46l35.46,202.4Z" style="fill:#a2782c; stroke-width:0px;"/></g><circle cx="350" cy="363.8" r="47.25" transform="translate(-154.73 354.04) rotate(-45)" style="fill:#bdbab8; stroke-width:0px;"/><path d="M350,321.82c23.15,0,41.98,18.83,41.98,41.98s-18.83,41.98-41.98,41.98-41.98-18.83-41.98-41.98,18.83-41.98,41.98-41.98M350,311.28c-29,0-52.51,23.51-52.51,52.51s23.51,52.51,52.51,52.51,52.51-23.51,52.51-52.51-23.51-52.51-52.51-52.51h0Z" style="fill:#9c9795; stroke-width:0px;"/></svg>