<?xml version="1.0" encoding="UTF-8"?>
<svg id="Layer_1" xmlns="http://www.w3.org/2000/svg" version="1.1" viewBox="0 0 666.7 729.3">
  <!-- Generator: Adobe Illustrator 29.1.0, SVG Export Plug-In . SVG Version: 2.1.0 Build 142)  -->
  <defs>
    <style>
      .st0 {
        fill: #2b1a11;
      }

      .st1 {
        fill: #ead8cd;
      }

      .st2, .st3, .st4, .st5 {
        isolation: isolate;
      }

      .st2, .st4 {
        opacity: .2;
      }

      .st3 {
        opacity: .4;
      }

      .st4, .st6 {
        fill: #1f1d1d;
      }

      .st7 {
        fill: #9b9795;
      }

      .st8 {
        fill: #bb9983;
      }

      .st9 {
        fill: #7a7471;
      }

      .st10 {
        fill: #56321c;
      }

      .st11 {
        fill: #ab6336;
      }

      .st12 {
        fill: #cdcdcd;
      }

      .st13 {
        fill: #fff;
      }

      .st14 {
        fill: #268184;
      }

      .st15 {
        fill: #5c5755;
      }

      .st16 {
        fill: #f7f7f7;
      }

      .st17 {
        fill: #288185;
      }

      .st18, .st5 {
        fill: #ebeaea;
      }

      .st19 {
        fill: #dedddc;
      }

      .st20 {
        fill: #d5b19b;
      }
    </style>
  </defs>
  <path class="st7" d="M15.2,204.7c8.3-5.7,19.1,6.9,13.2,14.7-5.9,7.9-18.8,5.7-23.3-2.4-5.7-10.3,0-22.6,9.1-28.6,10.4-6.8,23.1-7.2,35.1-6.5,12.1.6,23.9,1.5,36-.2,10.2-1.5,20.2-4.3,29.7-8.3,19.5-8.2,36.7-21.2,49.9-37.8,6.2-7.8,11.9-16.6,15.4-25.9,2.7-7.2,4-16.7.2-23.7-3.1-5.9-10.4-8.2-16.3-5-.7.4-1.4.8-2,1.4-6.4,5.2-8.1,15-3.2,21.8,5.3,7.3,15.2,9.8,23.7,8.5,11.9-1.8,21.5-10.2,30.6-17.4l67.3-53.4c11.1-8.8,22.1-17.8,33.3-26.4,9.1-7,20.3-13.8,32.2-10.1,4.8,1.5,9.6,5.1,10.8,10.2.9,4.8-.9,9.7-4.7,12.7-3.4,2.9-8.5,2.5-11.4-.9-.2-.2-.3-.4-.4-.6-2.5-3.5-2.7-8.5-1.3-12.4,3.9-10.6,18-11.7,27.5-10.8,11.2,1.1,21.9,4.7,31.6,10.4,20,11.6,34.8,30.5,43.4,51.7,9.6,23.5,12.6,49.5,12.2,74.8,0,5.1-.4,10.8-3.3,15.3-2.8,4.3-7.8,5.7-12.2,2.8-1.4-.9-3.3-2.8-2.9-4.7.5-2.4,5.3-2.5,7.3-2.4,5.3.3,10.4,2.9,14.2,6.6,9.1,8.6,9.8,21.8,8.6,33.5-1.3,12.9-5,25.7-3.5,38.7,2.4,21.4,19.9,33.2,37.1,43,8.8,5,17.8,9.8,25.7,16.2,8.1,6.5,15.1,14.2,21,22.8,11.5,17,18.3,36.7,19.7,57.2.7,10.2-.1,20.5-2.4,30.5-2.3,9.8-5.8,22.1-15.2,27.4-4.6,2.6-10.3,2.1-14.4-1.3-3.8-3.1-5.7-8.5-1.7-12.3,3.3-3.2,8.5-2.5,12.4-1.2,4.7,1.5,8.4,4.4,11.9,7.8,6.7,6.5,14.6,14.5,24.8,12.4,1.9-.4,1.1-3.3-.8-2.9-12.4,2.5-19.8-11.8-28.9-17.4-6.6-4-17.9-7-23,.8-5.6,8.4,3.4,17.5,11.7,18.6,10.8,1.4,18.3-9.2,21.9-17.9,8.4-20.2,8.7-43.9,3.5-65-5.1-21.4-16.3-40.9-32.1-56.2-8-7.6-17.1-13.4-26.7-18.9-9.6-5.5-19.7-10.7-27.9-18.2-9.2-8.1-14.4-19.9-14.2-32.3,0-14,4.6-27.6,4.3-41.6-.2-11.6-4.2-23-14.3-29.6-4.2-2.8-9.2-4.2-14.2-4-2,.2-4.9.5-6.6,1.8-1.4,1-1.6,3.5-1.3,5,.7,3.7,4.2,6.3,7.6,7.3,4.2,1.4,8.9,0,11.7-3.5,3.3-3.8,4.4-8.8,4.9-13.7.6-6.6.3-13.4,0-20-1.2-26.8-6.5-54.3-20.4-77.6-11.8-19.8-30.3-36.4-52.4-43.7-10.4-3.5-22.8-5.5-33.5-2.4-9.2,2.7-16.3,10.3-14.8,20.4,1.3,8.5,10.1,14.4,17.9,9,7.1-4.9,8.8-14.5,3.9-21.6-.4-.6-.9-1.2-1.5-1.8-7.5-7.9-19.8-7.8-29.2-3.8-5.7,2.4-10.7,6-15.5,9.8-6.2,4.8-12.2,9.7-18.3,14.5l-73.6,58.4c-5.8,4.6-11.5,9.4-17.5,13.7-5.6,4.1-11.8,7.8-18.7,9.1-9.7,1.8-25.1-3-23.9-15.3.5-4.8,3.6-10.1,8.5-11.4,4.7-1.3,9.2,1.7,11,6,3.9,9.5-.7,20.4-5.2,28.8-11.2,20.7-29,37.6-49.8,48.5-10.4,5.5-21.6,9.5-33.1,11.7-13,2.5-25.7,2-38.8,1.3-12.7-.8-26.1-.7-37.4,5.9-9.3,5.4-15.5,15.3-14,26.3,1.3,9.5,8.9,16.8,18.8,16,8.3-.7,16.6-7.7,13.7-16.7-2.4-7.4-11.8-13.3-19-8.4-1.6,1.1,0,3.7,1.5,2.6h0Z"/>
  <path class="st5" d="M651,421.3h-72.7c-2.4,0-4.3,1.9-4.3,4.3v45.3c0,2.4,1.9,4.3,4.3,4.3h72.7c2.4,0,4.3-1.9,4.3-4.3v-45.3c0-2.4-1.9-4.3-4.3-4.3Z"/>
  <path class="st12" d="M651,421.3h-72.7c-2.4,0-4.3,1.9-4.3,4.3v45.3c0,2.4,1.9,4.3,4.3,4.3h72.7c2.4,0,4.3-1.9,4.3-4.3v-45.3c0-2.4-1.9-4.3-4.3-4.3ZM652.4,453.8c0,9.6-7.7,17.4-17.3,17.5-7.4,0,4.1.1-4.8.1-20.3,0-41.5-.2-49.5-.3-2.2,0-3.9-1.8-3.9-4v-41.6c0-.8.6-1.4,1.4-1.4h72.7c.8,0,1.4.6,1.4,1.4v28.2Z"/>
  <path class="st12" d="M642,395.3h-55.4c-1,0-1.9.6-2.2,1.6l-8.6,24c-.4,1.2.2,2.6,1.4,3,.3,0,.5.1.8.1h74.3c0,.1,0,.1,0,.1,1.3,0,2.4-1.1,2.4-2.4,0-.3,0-.6-.2-.9h-.1c0,0,.1,0,.1,0l-10.3-24.1c-.4-.9-1.2-1.4-2.2-1.4Z"/>
  <path class="st12" d="M654.7,421.4c0,.3,0,.6-.2.9l-10.3,18.6c-.4.9-1.2,1.4-2.2,1.4h-55.4c-1,0-1.9-.6-2.2-1.6l-8.6-18.4c-.4-1.2.2-2.6,1.4-3,0,0,0,0,0,0,.3,0,.5-.1.8-.1h9.1s3.7,0,3.7,0h48.7c0,0,3.7,0,3.7,0h9.1s0,0,0,0c1.3,0,2.4,1.1,2.4,2.4Z"/>
  <path class="st12" d="M583.7,455.3c1.1,0,16.2.9,16.2,2s-15.1,2-16.2,2-2-.9-2-2,.9-2,2-2Z"/>
  <path class="st18" d="M638.6,380.7h-46.7c-2.6,0-4.7,2.1-4.7,4.7v56.9h54.9c.5,0,.9-.1,1.3-.4v-56.5c0-2.6-2.1-4.7-4.7-4.7Z"/>
  <path class="st16" d="M620.7,384.5h-25.6c-2.4,0-4.3,1.9-4.3,4.3v53.5h48.7v-39c0-10.4-8.4-18.8-18.8-18.8Z"/>
  <path class="st19" d="M631.3,437.6h-32.1c-.6,0-1,.5-1,1,0,.6.5,1,1,1h32.1c.6,0,1-.5,1-1,0-.6-.5-1-1-1h0Z"/>
  <path class="st19" d="M631.3,433.4h-32.1c-.6,0-1,.5-1,1.1,0,.6.5,1,1,1h32.1c.6,0,1-.5,1.1-1,0-.6-.5-1-1-1.1h0Z"/>
  <path class="st19" d="M613.1,429.3h-13.9c-.6,0-1,.5-1,1,0,.6.5,1,1,1h13.9c.6,0,1-.5,1-1,0-.6-.5-1-1-1h0Z"/>
  <path class="st19" d="M631.3,420.6h-32.1c-.6,0-1,.5-1,1.1,0,.6.5,1,1,1h32.1c.6,0,1-.5,1.1-1,0-.6-.5-1-1-1.1h0Z"/>
  <path class="st19" d="M631.3,416.5h-32.1c-.6,0-1,.5-1,1,0,.6.5,1,1,1h32.1c.6,0,1-.5,1-1,0-.6-.5-1-1-1h0Z"/>
  <path class="st19" d="M613.1,412.3h-13.9c-.6,0-1,.5-1,1.1,0,.6.5,1,1,1h13.9c.6,0,1-.5,1.1-1,0-.6-.5-1-1-1.1h0Z"/>
  <path class="st19" d="M631.3,403.7h-32.1c-.6,0-1,.5-1,1.1,0,.6.5,1,1,1h32.1c.6,0,1-.5,1.1-1,0-.6-.5-1-1-1.1h0Z"/>
  <path class="st19" d="M631.3,399.5h-32.1c-.6,0-1,.5-1,1.1,0,.6.5,1,1,1h32.1c.6,0,1-.5,1.1-1,0-.6-.5-1-1-1.1h0Z"/>
  <path class="st19" d="M613.1,395.4h-13.9c-.6,0-1,.5-1,1.1,0,.6.5,1,1,1h13.9c.6,0,1-.5,1.1-1,0-.6-.5-1-1-1.1h0Z"/>
  <circle class="st8" cx="267.1" cy="168.1" r="31"/>
  <path class="st0" d="M302.5,150.4c-3.3-5-9.4-8.4-15.3-7.5-1.7-11.4-12.3-19.3-23.7-17.7-4.2.6-8.2,2.5-11.3,5.5-1.9-1.3-4.3-1.6-6.4-.6-2,.9-3.8,2.4-5.2,4.1-6.9,8.6-8.6,20.4-4.2,30.6-.7-2.6,1.9-5.1,4.6-5.7,2.7-.6,5.5,0,8.2-.4,3.5-.5,6.6-2.5,10.1-3,2.9-.4,5.9.4,8.7,1.1,2.8.8,5.8,1.5,8.7,1.2,2.9-.3,6.7,10.7,6.6,18.5,0,1.5.3,3.4,1.7,3.7,1.8.4,2.8-2.1,4.5-2.7,1.6-.5,3.3.4,3.8,2,.4,1.6,0,3.3-1,4.6-1,1.2-2.3,2.3-3.7,3.2l.7.6c1.2,1.5,3.6,1.6,5.2.7,1.6-1.1,2.9-2.6,3.8-4.3,3.1-5.1,5.8-10.6,6.9-16.5s.4-12.3-2.8-17.4Z"/>
  <polygon class="st8" points="303.5 711 286.7 710.9 278.8 646.4 303.5 646.4 303.5 711"/>
  <path class="st0" d="M304.1,728.4h-51.5v-.7c0-11.1,9-20,20-20h0l9.4-7.1,17.5,7.1h4.5s0,20.7,0,20.7Z"/>
  <polygon class="st8" points="333.7 681.4 320.5 691.8 274.2 646.1 293.6 630.7 333.7 681.4"/>
  <path class="st0" d="M345,694.7l-40.4,31.9-.4-.5c-6.9-8.7-5.4-21.3,3.3-28.1h0s3-11.4,3-11.4l18.2-5.3,3.5-2.8,12.8,16.2Z"/>
  <polygon class="st10" points="216.9 408.3 215.9 427.1 220.9 433.1 220.3 452 225.1 464.3 228.5 503.6 276 667.3 318.8 653.6 272.1 500.9 328.3 499.5 330.2 413.4 320.3 394.2 216.9 408.3"/>
  <polygon class="st10" points="322.9 486.5 328.3 499.5 307.4 682.2 278.1 684.4 265.4 480.1 322.9 486.5"/>
  <polygon class="st14" points="294.2 217.3 284.5 203.9 253.4 205.2 252.8 215.5 232.1 410.7 252.4 410.2 277.6 416.1 326.1 399.1 294.2 217.3"/>
  <path class="st11" d="M240.1,414.3h-47.7l12.4-87.9,5-35.6s-3.6-25.5-5.3-38.8c-.2-1.4,0-2.9.7-4.1.6-1.2,1.3-2.3,2.2-3.3,5.8-6.7,18.9-12.5,27-15.7,4.2-1.6,7.1-2.6,7.1-2.6l11.1-10.9c16,19.9-12.7,198.8-12.7,198.8Z"/>
  <path class="st11" d="M288.1,210l15.1,8.7s44.8,7.4,49.2,24.2l-16.5,49.8v104.7l-40,16s-34.5-169.1-7.8-203.4Z"/>
  <polyline class="st3" points="272.8 475.9 265.4 561.5 278 661.3"/>
  <path class="st8" d="M94.2,316.3c4.7-3.3,11.1-2.3,14.5,2.4.4.5.7,1,.9,1.6l36.7-4.1-8.7,17.1-33.5,1.3c-5.4,2.1-11.4-.5-13.6-5.8-1.8-4.5-.3-9.6,3.7-12.4h0Z"/>
  <polygon class="st11" points="248.2 241.4 258.7 247.7 199.9 330.5 128.1 336.6 125.3 316.1 178.1 300.3 204.3 249.6 248.2 241.4"/>
  <path class="st8" d="M462.1,309.3c-4.7-3.3-11.1-2.3-14.5,2.4-.4.5-.7,1-.9,1.6l-36.7-4.1,8.7,17.1,33.5,1.3c5.4,2.1,11.4-.5,13.6-5.8,1.8-4.5.3-9.6-3.7-12.4h0Z"/>
  <polygon class="st11" points="308.2 234.4 297.7 240.7 356.4 323.5 428.2 329.6 431 309.1 378.2 293.3 352.1 242.6 308.2 234.4"/>
  <path class="st20" d="M165.2,214.9v-1.1h-18.3v-25.5h-1.1v25.5h-21v-19.7c-.4.3-.7.6-1.1.9v18.8h-13.9c-.2.4-.3.7-.4,1.1h14.3v21.5h-17.8c0,.4,0,.7,0,1.1h17.7v17.1h-13.3c.2.4.3.7.5,1.1h12.8v14.4h1.1v-14.4h21v14.4h1.1v-14.4h18.3v-1.1h-18.3c0-9.5,7.7-17.1,17.1-17.1h1.2v-1.1h-18.3v-21.5h18.3ZM145.8,254.6h-21v-17.1h21v17.1ZM145.8,236.4h-21v-.4c0-11.6,9.4-21,21-21h0v21.5Z"/>
  <path class="st15" d="M324.6,63.5c-.3.1-.6,0-.8-.3l-1.5-3.7c-.1-.3,0-.6.3-.8.3-.1.6,0,.8.3l1.5,3.7c.1.3,0,.6-.3.8Z"/>
  <path class="st15" d="M355.3,36.3h0l-4.5-11c-1.4-3.5-5.5-5.2-9-3.7t0,0h0l-23.2,9.6c-3.5,1.4-5.2,5.5-3.7,9h0s24.9,60.1,24.9,60.1c1.4,3.5,5.5,5.2,9,3.7,0,0,0,0,0,0h0l23.2-9.6c3.5-1.4,5.2-5.5,3.7-9h0l-17.1-41.4h0c.2,0,.3-.3.2-.6h0s-2.9-7-2.9-7c0-.2-.3-.3-.6-.2,0,0,0,0,0,0Z"/>
  <path class="st17" d="M349.4,25.9l24.8,60c1.1,2.6-.1,5.6-2.7,6.7,0,0,0,0,0,0l-23.3,9.7c-2.6,1.1-5.6-.2-6.7-2.8l-24.8-60c-1.1-2.6.2-5.6,2.8-6.7,0,0,0,0,0,0l2.8-1.2c0,1.3,1.1,2.4,2.4,2.4.3,0,.6,0,.9-.2l13.3-5.5c.3-.1.6-.3.8-.5,1-.9,1-2.5,0-3.4,0,0,0,0,0,0l3-1.3c2.6-1.1,5.6.2,6.7,2.8Z"/>
  <path class="st15" d="M322.1,57.2c-.3.1-.6,0-.8-.3l-1.5-3.7c-.1-.3,0-.6.3-.8.3-.1.6,0,.8.3l1.5,3.7c.1.3,0,.6-.3.8Z"/>
  <path class="st15" d="M319,50.1c-.3.1-.6,0-.8-.3l-1.5-3.7c-.1-.3,0-.6.3-.8.3-.1.6,0,.8.3h0l1.5,3.7c.1.3,0,.6-.3.8Z"/>
  <path class="st16" d="M327.5,30.1c-.1-.3,0-.6.3-.8l3.7-1.5c.3-.1.6,0,.8.3s0,.6-.3.8l-3.7,1.5c-.3.1-.6,0-.8-.3Z"/>
  <circle class="st16" cx="333.8" cy="27.5" r=".6"/>
  <path class="st14" d="M460.5,287.4c0,0-.1,0-.2,0-1.8,0-3.4-1-4.3-2.5-3.5-5.3-7.8-10-12.8-13.9-3-2.4-6.2-4.6-9.2-6.8-7.8-5.6-15.2-10.8-19.3-18.1-8.9-15.8,1.6-37.9,16.6-47.8,16.9-11.1,39.1-12.8,60.5-13.1,2.2,0,4.5,0,6.7,0h0c38.7,0,77.3,3.5,115.3,10.5,12.6,2.3,25.9,5.2,36.5,12.1,10.6,6.9,17,17.8,16.4,27.7-.9,14.5-16.3,25.3-30.2,28.1-13.3,2.7-27.1.9-41.8-1.1-3.2-.4-6.6-.9-9.9-1.2-35.9-4.2-103.4,8.6-106.3,9.2l-2.8.5-11,14.1c-1,1.3-2.6,2.1-4.2,2.1Z"/>
  <path class="st16" d="M620.5,216.8h-151.8c-1.8,0-3.3-1.5-3.3-3.3,0-1.8,1.5-3.3,3.3-3.3h151.8c1.8,0,3.3,1.5,3.3,3.3,0,1.8-1.5,3.3-3.3,3.3Z"/>
  <path class="st16" d="M620.5,237.1h-151.8c-1.8,0-3.3-1.5-3.3-3.3,0-1.8,1.5-3.3,3.3-3.3h151.8c1.8,0,3.3,1.5,3.3,3.3,0,1.8-1.5,3.3-3.3,3.3Z"/>
  <path class="st16" d="M486.4,257.3h-17.7c-1.8,0-3.3-1.5-3.3-3.3,0-1.8,1.5-3.3,3.3-3.3h17.7c1.8,0,3.3,1.5,3.3,3.3,0,1.8-1.5,3.3-3.3,3.3Z"/>
  <circle class="st13" cx="462.4" cy="294.4" r="16.1"/>
  <path class="st9" d="M462.4,310.6c-9,0-16.3-7.3-16.3-16.3s7.3-16.3,16.3-16.3c9,0,16.3,7.3,16.3,16.3,0,9-7.3,16.2-16.3,16.3Z"/>
  <path class="st16" d="M461.2,300.8s0,0-.1,0c-.6,0-1.2-.3-1.6-.8l-2.7-3.4c-.7-.9-.5-2.2.4-2.9h0s0,0,0,0c.9-.7,2.2-.5,2.9.4,0,0,0,0,0,0,.5.7,1.5.8,2.2.3,0,0,.1,0,.2-.2l5.4-5.8c.8-.8,2.1-.9,3,0h0c.8.9.9,2.2,0,3.1,0,0,0,0,0,0l-8.5,8.9c-.4.4-.9.7-1.5.7Z"/>
  <path class="st9" d="M162.6,86.8l-9.8-59.1c-.4-2.5,1.3-4.8,3.8-5.3l44.6-7.4c2.5-.4,4.8,1.3,5.3,3.8l9.8,59.1c.4,2.5-1.3,4.8-3.8,5.3l-44.6,7.4c-2.5.4-4.8-1.3-5.3-3.8Z"/>
  <path class="st16" d="M163,68.4l-6.3-38c-.4-2.3,1.2-4.5,3.5-4.9l38.3-6.4c2.3-.4,4.5,1.2,4.9,3.5l8.7,52.6c.4,2.3-1.2,4.5-3.5,4.9l-23.8,3.9c-10.4,1.7-20.2-5.3-21.9-15.7Z"/>
  <path class="st14" d="M164.7,40c-.4-2.3,1.2-4.4,3.4-4.8l26.6-4.4c2.3-.4,4.4,1.2,4.8,3.4.4,2.3-1.2,4.4-3.4,4.8l-26.6,4.4c-2.3.4-4.4-1.2-4.8-3.4Z"/>
  <path class="st14" d="M166.8,52.8c-.4-2.3,1.2-4.4,3.4-4.8l26.6-4.4c2.3-.4,4.4,1.2,4.8,3.4.4,2.3-1.2,4.4-3.4,4.8h0l-26.6,4.4c-2.3.4-4.4-1.2-4.8-3.4Z"/>
  <path class="st14" d="M169,65.6c-.4-2.3,1.2-4.4,3.4-4.8l26.6-4.4c2.3-.4,4.4,1.2,4.8,3.4.4,2.3-1.2,4.4-3.4,4.8l-26.6,4.4c-2.3.4-4.4-1.2-4.8-3.4Z"/>
  <path class="st1" d="M395.7,687.6l.7-15.9c7.4-3.9,15.6-6,24-6.1-11.5,9.4-10.1,27.5-17.9,40.2-5,8-13.3,13.2-22.7,14.3l-9.6,5.9c-2.7-14.9,1.3-30.2,10.9-41.9,2.7-3.2,5.8-6.1,9.2-8.5,2.3,6.1,5.4,12.1,5.4,12.1Z"/>
  <path class="st20" d="M523.3,727.7c0,.9-.7,1.6-1.5,1.6H103.7c-.9,0-1.6-.7-1.6-1.6s.7-1.6,1.6-1.6h418.1c.9,0,1.6.7,1.6,1.5h0Z"/>
  <path class="st9" d="M104.7,308.3c-7.4-.1-47.2-1.3-53.8-1-.4-1.3-12.7,14.6-13.1,14.7-.7.7-.7,1.9,0,2.6.2.1.3.3.5.4.7.4,64.9-.7,65.7-.6.7,0,1.3-.4,1.6-1l.4-1c0-1.6.6-10,0-11.5.4-.9,0-1.9-.9-2.3-.2,0-.5-.1-.7-.2Z"/>
  <path class="st2" d="M106.3,322.3c-.4.9-.9,2-2,2l-65,.7c-1,0-1.8-.8-1.8-1.8,0-.3,0-.6.2-.8h68.6Z"/>
  <path class="st9" d="M51.3,307.1c-.7-1.2-18.1-87.2-19.5-88l-11.9-14.5-1.1-.8c-1.5-.8-5-.3-4.7,2h0c2.8,13.4,20.7,89.5,21.1,101.4l2.2,15.1c.2,1,1.1,1.7,2.1,1.6,0,0,.1,0,.2,0,1.3-.1,2.4-.9,2.9-2.1.2-.5,9.5-14.4,8.7-14.7Z"/>
  <path class="st4" d="M19.9,204.6l22.7,117.2c-.8,1.9-4.3,3.3-5.1.7,0,0-23.3-116.6-23.3-116.7-.2-2.8,4.4-2.9,5.8-1.2Z"/>
  <polygon class="st14" points="20.5 209.4 32.1 225.5 45 286.9 39 292.2 20.5 209.4"/>
  <path class="st6" d="M97.3,316.6h3.2c0-.8.2-1.7.5-2.6.5-2.3.9-5-1.1-5-1.4-.1-1.8,1.6-2,3.4,0,1.4-.2,2.8-.5,4.2Z"/>
  <path class="st6" d="M79,312.3h2.1c0,0,1,.1,1,.1,0-1.1.5-3.5-.8-4.1-.2,0-.4-.1-.6-.1-1.2,0-1.6.9-1.7,1.9,0,.6,0,1.3,0,1.9,0,.1,0,.2,0,.3Z"/>
  <path class="st6" d="M72.6,312h2.2c0,0,1,.1,1,.1,0-1.3.7-4.2-1.4-4.2-1.9-.1-1.7,2.4-1.7,3.8,0,.1,0,.2,0,.3Z"/>
  <path class="st6" d="M66.3,311.8h2.1c0,0,1,.1,1,.1,0-1.3.7-4.2-1.4-4.2-1.9-.1-1.7,2.4-1.7,3.8,0,.1,0,.2,0,.3Z"/>
  <path class="st6" d="M59.9,311.5h2.2c0,0,1,.1,1,.1,0-1.3.7-4.2-1.4-4.2-1.9-.1-1.7,2.4-1.7,3.8,0,.1,0,.2,0,.3Z"/>
  <path class="st6" d="M53.5,311.3h2.1c0,0,1,.1,1,.1,0-1.2.6-3.7-1-4.1h0c-.1,0-.3,0-.4,0-.2,0-.4,0-.5,0h0c-1.3.4-1.1,2.5-1.2,3.7,0,.1,0,.2,0,.3Z"/>
  <path class="st6" d="M90.9,310.6h3.2s0-.1,0-.3c0-.8,0-1.5,0-2.3-.1-.8-.5-1.5-1.5-1.5-1,0-1.4.6-1.6,1.5,0,.1,0,.3,0,.4h0c0,.8,0,1.6,0,2.2Z"/>
  <path class="st6" d="M84.5,310.3h3.2c0-.7,0-1.6,0-2.4,0-.9-.4-1.6-1.5-1.6-1.1,0-1.5.6-1.6,1.5-.2.9,0,1.9-.1,2.5Z"/>
  <path class="st6" d="M78.1,310.1h1s2.2.1,2.2.1c0-.5,0-1.2,0-1.9,0-.2,0-.4,0-.6,0-.9-.4-1.7-1.5-1.7-1.1,0-1.5.7-1.6,1.6-.1.8,0,1.8-.1,2.4Z"/>
  <path class="st6" d="M90.9,316.3h3.2c0-1.2.7-4-1.4-4.1-2.1-.1-1.6,2.8-1.8,4.1Z"/>
  <path class="st6" d="M84.6,316.1h3.2c0-1.2.7-4-1.4-4.1-2.1-.1-1.6,2.8-1.8,4.1Z"/>
  <path class="st6" d="M78.2,315.8h3.2c0-.8.3-2.5-.2-3.5-.3-.4-.7-.7-1.2-.6-.3,0-.7,0-.9.2-1,.7-.7,2.8-.8,3.8Z"/>
  <path class="st6" d="M71.8,315.6h3.2c0-.8.3-2.5-.2-3.4-.3-.4-.7-.7-1.2-.6-.3,0-.7,0-.9.2-1,.7-.7,2.8-.8,3.8Z"/>
  <path class="st6" d="M65.5,315.3h3.2c0-.8.3-2.5-.2-3.5-.3-.4-.7-.7-1.2-.6-.3,0-.7,0-.9.2-1,.7-.7,2.8-.8,3.9Z"/>
  <path class="st6" d="M59.1,315h3.2c0-.8.3-2.5-.2-3.4-.3-.4-.7-.7-1.2-.6-.3,0-.7,0-.9.2-1,.7-.7,2.8-.8,3.9Z"/>
  <path class="st6" d="M52.7,314.8h3.2c0-.8.3-2.5-.2-3.5-.3-.4-.7-.7-1.2-.6-.3,0-.7,0-.9.2-1,.7-.7,2.8-.8,3.9Z"/>
</svg>