<?xml version="1.0" encoding="UTF-8"?>
<svg id="Layer_1" xmlns="http://www.w3.org/2000/svg" version="1.1" viewBox="0 0 942.5 631.4">
  <!-- Generator: Adobe Illustrator 29.1.0, SVG Export Plug-In . SVG Version: 2.1.0 Build 142)  -->
  <defs>
    <style>
      .st0 {
        fill: #2b1a11;
      }

      .st1 {
        fill: #814c29;
      }

      .st2 {
        fill: #c7a896;
      }

      .st3 {
        fill: #3d3a39;
      }

      .st4 {
        fill: #e6e6e6;
      }

      .st5 {
        fill: #a2782b;
      }

      .st6 {
        fill: #56321c;
      }

      .st7 {
        fill: #ccc;
      }

      .st8 {
        fill: #dfdddc;
      }

      .st9 {
        fill: #268184;
      }

      .st10 {
        fill: #f7f7f7;
      }

      .st11 {
        fill: #bdbab8;
      }

      .st12 {
        fill: #1f1d1d;
      }
    </style>
  </defs>
  <path class="st5" d="M750.9,279.4l2.8-22.4c2.1-16.6,17.2-28.4,33.8-26.3s28.4,17.2,26.3,33.8l-2.8,22.4c-.3,2.2-2.3,3.8-4.5,3.5l-52-6.5c-2.2-.3-3.8-2.3-3.5-4.5Z"/>
  <circle class="st2" cx="775.8" cy="263.9" r="22.2"/>
  <path class="st5" d="M746.3,257.9c1.7-13.1,13.6-22.4,26.7-20.8l4.5.6c13.1,1.7,22.4,13.6,20.8,26.7v.4c0,0-9.5-1.2-9.5-1.2l-2.1-9.5-1.8,9-4.9-.6-1.1-4.8-.9,4.5-31.8-4v-.4Z"/>
  <path class="st2" d="M667.2,343.1c2.6,5,8.7,7,13.8,4.5.5-.3,1-.6,1.5-1l20.2,11.8,10.2-10.5-28.7-16.3c-3.7-4.3-10.2-4.8-14.5-1-3.6,3.1-4.6,8.3-2.4,12.5h0Z"/>
  <path class="st0" d="M733.3,364.4c-14.9,0-41.1-6.7-42.5-7h-.5c0-.1,4.1-21,4.1-21l40,7.9,21.7-30.6,24.9-2.5-.7.9c-.3.4-32.5,42.7-37.5,49.8-1.3,1.8-4.9,2.5-9.6,2.5Z"/>
  <path class="st0" d="M737.3,442.6l-.6-.3c-.1,0-12.8-6.2-19.3-18.2-6.5-11.9,24-62.6,26.1-66.1v-16.1s11-29.6,11-29.6l14-7.9-12,28-19.2,110.2Z"/>
  <polygon class="st2" points="723.3 615.6 709.9 615.6 703.5 564 723.3 564 723.3 615.6"/>
  <path class="st0" d="M726.7,628.6h-43.1v-.5c0-9.3,7.5-16.8,16.8-16.8h26.3s0,17.3,0,17.3Z"/>
  <polygon class="st2" points="866.9 603.9 854.2 608 832.1 561 850.8 554.9 866.9 603.9"/>
  <path class="st0" d="M874.2,615.1l-41,13.4-.2-.5c-2.9-8.8,1.9-18.3,10.7-21.2h0s25-8.2,25-8.2l5.4,16.5Z"/>
  <path class="st6" d="M841,595.4l-38.1-63.6-32.2-68-29,60.1-11.5,77.8-40.3.6.2-.6,61.7-245.3,48.4,7.2-2.2,31.9,1.3,1.9c10.9,15.5,22.2,31.6,15.7,48.9l18.4,54.5,40.6,90.8-33,4Z"/>
  <path class="st9" d="M754,409.4c-7,0-15-8-10.9-21.7l-.3-.2,10-44c-8.7-12.4,2.8-22.7,3.8-23.6l5.5-9.8,24.1-15.3,12.2,101.5-.2.2c-8.8,8.4-38.4,13-44.3,13Z"/>
  <path class="st0" d="M803.4,432.3c-1,0-1.9,0-2.9-.3-.9-.2-2.5-1.4-4.8-9.1-9.3-30.4-20.4-121.9-12.4-130.8l.2-.2,13.1,2.2c1.1-.8,6.8-4.8,12.1-4.1,2.2.3,4.2,1.5,5.5,3.2h0c0,.1,4.2,59.7,4.2,59.7l15.3,70.1-.4.2c-.9.4-20.1,9.1-30.2,9.1Z"/>
  <path class="st2" d="M794.6,409c5.6-.2,10.1-4.9,9.9-10.6,0-.6,0-1.2-.2-1.8l19.2-13.3-5.2-13.7-26.9,19.1c-5.5,1.5-8.6,7.2-7.1,12.7,1.3,4.6,5.6,7.7,10.3,7.5h0Z"/>
  <path class="st0" d="M817.1,394.1l-17.1-12.6,24.1-32.9-18.5-32.6,8.3-23.7.5,1c.2.5,24.9,47.5,29.3,55.1,4.5,7.8-25,43.8-26.2,45.3l-.3.4Z"/>
  <path class="st8" d="M431.5,542l-14.6-6.1-10-73.2h-133.3l-10.9,72.9-13.1,6.5c-1.5.8-2.2,2.6-1.4,4.2.5,1.1,1.6,1.7,2.8,1.7h179.2c1.7,0,3.1-1.4,3.1-3.1,0-1.2-.7-2.4-1.9-2.9Z"/>
  <path class="st11" d="M668.4,472.4H13.5c-7.2,0-12.9-5.8-12.9-13v-92.3h680.7v92.3c0,7.2-5.8,13-12.9,13Z"/>
  <path class="st3" d="M682,410.7H0V15.6C0,7,7,0,15.6,0h650.7c8.6,0,15.6,7,15.6,15.6v395.1Z"/>
  <path class="st8" d="M641.3,382.1H40.7c-6.7,0-12-5.4-12.1-12.1V40.7c0-6.7,5.4-12,12.1-12.1h600.5c6.7,0,12,5.4,12.1,12.1v329.3c0,6.7-5.4,12-12.1,12.1Z"/>
  <path class="st11" d="M509.4,548.7H172c-.7,0-1.3-.5-1.5-1.1-.2-.8.3-1.7,1.1-1.9.1,0,.3,0,.4,0h337.4c.8,0,1.4.5,1.6,1.2.2.8-.3,1.6-1.2,1.8-.1,0-.2,0-.3,0Z"/>
  <rect class="st11" x="489.9" y="81.9" width="145" height="110.8"/>
  <rect class="st10" x="497.1" y="87.4" width="130.6" height="99.8"/>
  <path class="st1" d="M564.7,161.4s0,0,0,0c19.2-1,34-17.4,33-36.6-.9-17.5-14.7-31.6-32.2-32.9-.2,0-.4,0-.6.2-.2.1-.3.4-.3.6l-.8,67.9c0,.4.3.8.8.8h0Z"/>
  <path class="st11" d="M537.3,103.2c.3,0,.5.1.7.3l23.4,23.9c.2.2.3.5.3.7l-.4,32.5c0,.3-.1.6-.3.7-.2.2-.5.3-.8.3-19.3-1.4-33.8-18.3-32.3-37.6.6-7.6,3.6-14.8,8.6-20.5.2-.2.5-.3.7-.3,0,0,0,0,0,0Z"/>
  <path class="st9" d="M561.1,91.6c.3,0,.5.1.7.3.2.2.3.5.3.7l-.3,29.3c0,.6-.5,1-1,1-.3,0-.5-.1-.7-.3l-20.4-20.9c-.4-.4-.4-1.1,0-1.4,0,0,0,0,0,0,5.9-5.2,13.5-8.3,21.3-8.7,0,0,0,0,0,0Z"/>
  <path class="st9" d="M550.6,175.5c0,3.5-2.9,6.2-6.3,6.2s-6.2-2.9-6.2-6.3c0-3.5,2.9-6.2,6.3-6.2h0c3.5,0,6.2,2.9,6.2,6.3Z"/>
  <path class="st1" d="M568.5,175.7c0,3.5-2.9,6.2-6.3,6.2s-6.2-2.9-6.2-6.3c0-3.5,2.9-6.2,6.3-6.2h0c3.5,0,6.2,2.9,6.2,6.3Z"/>
  <path class="st4" d="M586.3,175.9c0,3.5-2.9,6.2-6.3,6.2-3.5,0-6.2-2.9-6.2-6.3,0-3.5,2.9-6.2,6.3-6.2h0c3.5,0,6.2,2.9,6.2,6.3Z"/>
  <rect class="st11" x="488.3" y="210.1" width="145" height="110.8"/>
  <rect class="st10" x="495.5" y="215.6" width="130.6" height="99.8"/>
  <circle class="st1" cx="517.7" cy="243" r="5.4"/>
  <path class="st1" d="M604.8,238.8c2,0,3.7,1.6,3.7,3.7s-1.6,3.7-3.7,3.7h-57c-2,0-3.7-1.6-3.7-3.7s1.6-3.7,3.7-3.7h57M604.8,237.9h-57c-2.5,0-4.6,2-4.6,4.6s2,4.6,4.6,4.6h57c2.5,0,4.6-2,4.6-4.6s-2-4.6-4.6-4.6h0Z"/>
  <path class="st9" d="M582.3,247h-42.9c-2.5,0-4.6-2-4.6-4.6,0-2.5,2-4.6,4.6-4.6h42.9c2.5,0,4.6,2.1,4.6,4.6,0,2.5-2,4.6-4.6,4.6Z"/>
  <circle class="st1" cx="517.7" cy="265.5" r="5.4"/>
  <path class="st1" d="M604.8,261.3c2,0,3.7,1.6,3.7,3.7s-1.6,3.7-3.7,3.7h-57c-2,0-3.7-1.6-3.7-3.7s1.6-3.7,3.7-3.7h57M604.8,260.4h-57c-2.5,0-4.6,2-4.6,4.6s2,4.6,4.6,4.6h57c2.5,0,4.6-2,4.6-4.6s-2-4.6-4.6-4.6Z"/>
  <path class="st9" d="M598.5,269.5h-59.1c-2.5,0-4.6-2-4.6-4.6,0-2.5,2-4.6,4.6-4.6h59.2c2.5,0,4.6,2.1,4.6,4.6,0,2.5-2,4.6-4.6,4.6Z"/>
  <circle class="st1" cx="517.7" cy="288" r="5.4"/>
  <path class="st1" d="M604.8,283.8c2,0,3.7,1.6,3.7,3.7s-1.6,3.7-3.7,3.7h-57c-2,0-3.7-1.6-3.7-3.7s1.6-3.7,3.7-3.7h57M604.8,282.9h-57c-2.5,0-4.6,2-4.6,4.6s2,4.6,4.6,4.6h57c2.5,0,4.6-2,4.6-4.6s-2-4.6-4.6-4.6Z"/>
  <path class="st9" d="M563.4,292.1h-24c-2.5,0-4.6-2-4.6-4.6,0-2.5,2-4.6,4.6-4.6h24c2.5,0,4.6,2.1,4.6,4.6,0,2.5-2,4.6-4.6,4.6Z"/>
  <rect class="st11" x="51.2" y="101.5" width="405.1" height="207.6"/>
  <rect class="st10" x="64.7" y="111.8" width="378.1" height="187"/>
  <path class="st12" d="M395.9,270.3H120.3c-.5,0-.9-.4-.9-.9v-132.1c0-.5.4-.9.9-.9s.9.4.9.9h0v131.2h274.8c.5,0,.9.4.9.9s-.4.9-.9.9Z"/>
  <path class="st9" d="M179.2,260.8h-25.1c-1.4,0-2.6-1.1-2.6-2.6v-34.6c0-1.4,1.1-2.6,2.6-2.6h25.1c1.4,0,2.6,1.1,2.6,2.6v34.6c0,1.4-1.1,2.6-2.6,2.6Z"/>
  <path class="st9" d="M224.9,260.8h-25.1c-1.4,0-2.6-1.1-2.6-2.6v-67.3c0-1.4,1.1-2.6,2.6-2.6h25.1c1.4,0,2.6,1.1,2.6,2.6v67.3c0,1.4-1.1,2.6-2.6,2.6Z"/>
  <path class="st9" d="M270.6,260.8h-25.1c-1.4,0-2.6-1.1-2.6-2.6v-34.6c0-1.4,1.1-2.6,2.6-2.6h25.1c1.4,0,2.6,1.1,2.6,2.6v34.6c0,1.4-1.1,2.6-2.6,2.6Z"/>
  <path class="st9" d="M316.3,260.8h-25.1c-1.4,0-2.5-1.1-2.6-2.4v-80.5c0-1.4,1.2-2.5,2.6-2.4h25.1c1.4,0,2.5,1.1,2.6,2.4v80.5c0,1.4-1.2,2.5-2.6,2.4Z"/>
  <path class="st9" d="M362,260.8h-25.1c-1.4,0-2.6-1.1-2.6-2.6v-103.6c0-1.4,1.1-2.6,2.6-2.6h25.1c1.4,0,2.6,1.1,2.6,2.6v103.6c0,1.4-1.1,2.6-2.6,2.6Z"/>
  <circle class="st1" cx="166.6" cy="205.6" r="5.2"/>
  <circle class="st1" cx="212.3" cy="171.9" r="5.2"/>
  <circle class="st1" cx="258.1" cy="205.6" r="5.2"/>
  <circle class="st1" cx="303.8" cy="155.6" r="5.2"/>
  <circle class="st1" cx="349.5" cy="136.6" r="5.2"/>
  <polygon class="st1" points="258.2 206.7 212.3 172.4 167.1 206.3 166.1 204.9 212.3 170.3 257.9 204.4 303.3 154.8 303.4 154.8 349.2 136.3 349.8 137.9 304.3 156.3 258.2 206.7"/>
  <path class="st7" d="M941.5,631.4h-381c-.6,0-1-.4-1-1s.4-1,1-1h381c.6,0,1,.4,1,1s-.4,1-1,1Z"/>
</svg>