<?xml version="1.0" encoding="UTF-8"?>
<svg id="Layer_1" xmlns="http://www.w3.org/2000/svg" version="1.1" viewBox="0 0 860.1 551.7">
  <!-- Generator: Adobe Illustrator 29.1.0, SVG Export Plug-In . SVG Version: 2.1.0 Build 142)  -->
  <defs>
    <style>
      .st0 {
        fill: #2b1a11;
      }

      .st1 {
        fill: #ead8cd;
      }

      .st2 {
        isolation: isolate;
        opacity: .2;
      }

      .st3 {
        fill: #3d3a39;
      }

      .st4 {
        fill: #e6e6e6;
      }

      .st5 {
        fill: #d5b19b;
      }

      .st6 {
        fill: #9b9795;
      }

      .st7 {
        fill: #3f3d56;
      }

      .st8 {
        fill: #7a7471;
      }

      .st9 {
        fill: #56321c;
      }

      .st10 {
        fill: #fff;
      }

      .st11 {
        fill: #268184;
      }

      .st12 {
        fill: #5c5755;
      }

      .st13 {
        fill: #f7f7f7;
      }

      .st14 {
        fill: #bdbab8;
      }

      .st15 {
        fill: #d5b19b;
      }

      .st16 {
        fill: #c3a38f;
      }

      .st17 {
        fill: #2b190e;
      }
    </style>
  </defs>
  <path class="st8" d="M804,487.5h-217.3c-16.5,0-29.8-13.4-29.8-29.8V114.8c0-16.5,13.4-29.8,29.8-29.8h217.3c16.5,0,29.8,13.4,29.8,29.8v342.8c0,16.5-13.3,29.9-29.8,29.9Z"/>
  <path class="st13" d="M807.6,102.8h-221.4c-5.2,0-9.3,4.2-9.3,9.3v347.3c0,5.2,4.2,9.3,9.3,9.3h221.4c5.2,0,9.3-4.2,9.3-9.3V112.1c0-5.1-4.1-9.3-9.3-9.3Z"/>
  <path class="st4" d="M592,85c0-1.3,1-2.3,2.3-2.3h15.5c1.3,0,2.3,1,2.3,2.3s-1,2.3-2.3,2.3h-15.5c-1.3,0-2.3-1-2.3-2.3Z"/>
  <path class="st4" d="M617.5,85c0-1.3,1-2.3,2.3-2.3h15.5c1.3,0,2.3,1,2.3,2.3s-1,2.3-2.3,2.3h-15.5c-1.3,0-2.3-1-2.3-2.3Z"/>
  <path class="st12" d="M770.9,85c0-1.3,1-2.3,2.3-2.3h15.5c1.3,0,2.3,1,2.3,2.3s-1,2.3-2.3,2.3h-15.5c-1.3,0-2.3-1-2.3-2.3Z"/>
  <path class="st1" d="M727.6,461.6c0,2.4,0,4.8-.2,7.2h-141.2c-5.2,0-9.3-4.2-9.3-9.3v-174.9c86.9,14.1,150.7,89.1,150.7,177Z"/>
  <path class="st11" d="M670.1,192.1h52.7c2.4,0,4.3,1.9,4.3,4.3v5.4c0,2.4-1.9,4.3-4.3,4.3h-52.7c-2.4,0-4.3-1.9-4.3-4.3v-5.4c0-2.4,1.9-4.3,4.3-4.3Z"/>
  <path class="st14" d="M636.7,220.2h119.6c2.4,0,4.3,1.9,4.3,4.3v5.4c0,2.4-1.9,4.3-4.3,4.3h-119.6c-2.4,0-4.3-1.9-4.3-4.3v-5.4c-.1-2.3,1.9-4.3,4.3-4.3Z"/>
  <path class="st14" d="M636.7,248.4h119.6c2.4,0,4.3,1.9,4.3,4.3v5.4c0,2.4-1.9,4.3-4.3,4.3h-119.6c-2.4,0-4.3-1.9-4.3-4.3v-5.4c-.1-2.3,1.9-4.3,4.3-4.3Z"/>
  <path class="st9" d="M735.8,445.1c-1.8.1-3.4-1.3-3.5-3.2,0-1,.3-1.9,1.1-2.6l.2-.9c0-.1,0-.1,0-.2-1.9-4.6-7.2-6.7-11.8-4.8-2.2.9-3.9,2.7-4.8,4.8-2.7,6.5-6.2,13.1-7,20-.4,3.1-.2,6.1.5,9.1-6.4-13.9-9.7-29-9.7-44.3s.2-7.7.6-11.5c.4-3.1.8-6.2,1.5-9.3,3.4-16.7,10.7-32.4,21.4-45.7,5.2-2.8,9.3-7.1,11.9-12.4.9-1.9,1.6-3.9,2-6-.6.1-1.2.1-1.8.2h-.7c-1.8.1-3.4-1.3-3.5-3.2,0-.8.2-1.6.7-2.2.3-.3.5-.6.8-.9.4-.5.8-.9,1.2-1.4h0c.4-.6.9-1.2,1.3-1.7-.8-1.2-1.9-2.3-3.1-3-4.4-2.6-10.5-.8-13.6,3.2-3.2,4-3.8,9.5-2.7,14.5,1.1,4.2,2.9,8.2,5.3,11.9-.2.3-.5.6-.7.9-4.4,5.6-8.1,11.6-11.3,18,.8-7.1,0-14.3-2.7-21-2.6-6.2-7.4-11.5-11.7-16.8-5.1-6.5-15.6-3.6-16.5,4.5v.2c.6.4,1.3.7,1.9,1.1,2.1,1.4,2.6,4.2,1.3,6.3-.7,1.1-1.8,1.8-3.1,2h0c.2,2.3.6,4.5,1.2,6.8,3.3,12.5,11.7,23.1,23.2,29.2.4.2.7.4,1.1.6-3.2,9.1-5.2,18.5-6,28.1-.4,5.6-.4,11.3,0,17v-.2c-1.2-6.3-4.6-11.9-9.5-16-7.3-6-17.6-8.2-25.5-13-2.4-1.6-5.6-.9-7.2,1.6-.7,1-.9,2.3-.8,3.5v.2c1.2.5,2.3,1,3.4,1.6.6.4,1.3.7,1.9,1.1,2.1,1.4,2.6,4.2,1.3,6.3-.7,1.1-1.8,1.8-3.1,2h-.3c2,4.8,4.8,9.2,8.3,13,8.7,9.4,21,14.7,33.8,14.8h0c1.7,7.5,4.2,14.8,7.4,21.7h26.6c0-.3.2-.6.3-.9-2.5.2-4.9,0-7.4-.4,2-2.4,3.9-4.9,5.9-7.3h0c1-1.3,2-2.6,3-3.8h0c0-4.1-.3-7.9-1.2-11.5h0ZM705.4,385.2h0ZM699.5,438.3l-.2-.5v-1.4c0,.6.1,1.2.2,1.9h0Z"/>
  <path class="st3" d="M796.5,133.5h-199.2c-.9,0-1.6-.8-1.6-1.7s.7-1.6,1.6-1.6h199.2c.9,0,1.6.8,1.6,1.7s-.7,1.5-1.6,1.6Z"/>
  <ellipse class="st7" cx="607.9" cy="120.4" rx="4.8" ry="5"/>
  <ellipse class="st7" cx="624.7" cy="120.4" rx="4.8" ry="5"/>
  <ellipse class="st7" cx="641.4" cy="120.4" rx="4.8" ry="5"/>
  <path class="st3" d="M788.8,117.4h-10.8c-.5,0-.8.4-.8.8s.4.8.8.8h10.8c.5,0,.8-.4.8-.8,0-.4-.4-.8-.8-.8h0Z"/>
  <path class="st3" d="M788.8,120.5h-10.8c-.5,0-.8.4-.8.8s.4.8.8.8h10.8c.5,0,.8-.4.8-.8,0-.4-.4-.8-.8-.8h0Z"/>
  <path class="st3" d="M788.8,123.6h-10.8c-.5,0-.8.4-.8.8s.4.8.8.8h10.8c.5,0,.8-.4.8-.8,0-.5-.4-.8-.8-.8h0Z"/>
  <path class="st14" d="M465.5,284.8h-115.5c-3.4,0-6.2,2.8-6.2,6.2v182.5h127.8v-182.6c.1-3.4-2.7-6.1-6.1-6.1h0ZM408.1,388.4c-7.5,0-13.6-6.1-13.6-13.6v-21c0-7.5,6.1-13.6,13.6-13.6s13.6,6.1,13.6,13.6v21c0,7.5-6,13.6-13.6,13.6h0Z"/>
  <path class="st6" d="M343.4,467.6v17.6c0,1.9,1.5,3.4,3.4,3.4h121.7c1.9,0,3.4-1.5,3.4-3.4v-17.6h-128.5Z"/>
  <path class="st8" d="M656.8,0H163c-8.8,0-16,7.2-16,16v333.2c0,8.8,7.2,16,16,16h493.8c8.8,0,16-7.2,16-16V16c0-8.8-7.2-16-16-16Z"/>
  <path class="st13" d="M652.7,11.6H167.1c-4.7,0-8.6,3.8-8.6,8.6v324.9c0,4.7,3.8,8.6,8.6,8.6h485.5c4.7,0,8.6-3.8,8.6-8.6V20.1c0-4.7-3.8-8.5-8.5-8.5Z"/>
  <path class="st11" d="M661.2,20.1v324.9c0,4.7-3.8,8.6-8.6,8.6h-171.2c-18.9-17.6-34.5-38.5-45.8-61.7-.7-1.5-1.5-3-2.1-4.5-10.3-22.5-16.6-46.6-18.5-71.2-.1-1.5-.2-3-.3-4.6-.2-3.9-.3-7.9-.3-11.9,0-26.5,5-52.8,14.8-77.4.6-1.5,1.2-3,1.9-4.6,19.7-46.2,55.2-83.9,100.3-106.2h121.5c4.5.1,8.3,3.9,8.3,8.6Z"/>
  <path class="st3" d="M628.2,56.3H174c-1,0-1.8-.8-1.8-1.8s.8-1.7,1.8-1.8h454.3c1,0,1.8.8,1.8,1.8,0,1-.9,1.8-1.9,1.8Z"/>
  <ellipse class="st3" cx="204.9" cy="32.7" rx="10.6" ry="10.8"/>
  <ellipse class="st3" cx="241.5" cy="32.7" rx="10.6" ry="10.8"/>
  <ellipse class="st3" cx="278" cy="32.7" rx="10.6" ry="10.8"/>
  <path class="st3" d="M606.2,24.5h-26c-1.1,0-1.9.9-1.9,2s.9,1.9,1.9,1.9h26c1.1,0,1.9-.9,1.9-2,0-1-.8-1.9-1.9-1.9Z"/>
  <path class="st3" d="M606.2,31.9h-26c-1.1,0-1.9.9-1.9,2s.9,1.9,1.9,1.9h26c1.1,0,1.9-.9,1.9-2,0-1-.8-1.9-1.9-1.9Z"/>
  <path class="st3" d="M606.2,39.3h-26c-1.1,0-1.9.9-1.9,2s.9,1.9,1.9,1.9h26c1.1,0,1.9-.9,1.9-2,0-1-.8-1.9-1.9-1.9Z"/>
  <path class="st11" d="M249.5,161.9h63.5c2.4,0,4.3,1.9,4.3,4.3v6.8c0,2.4-1.9,4.3-4.3,4.3h-63.5c-2.4,0-4.3-1.9-4.3-4.3v-6.8c0-2.4,1.9-4.3,4.3-4.3Z"/>
  <path class="st14" d="M212.9,192.8h136.9c2.4,0,4.3,1.9,4.3,4.3v6.8c0,2.4-1.9,4.3-4.3,4.3h-136.9c-2.4,0-4.3-1.9-4.3-4.3v-6.8c0-2.4,1.9-4.3,4.3-4.3Z"/>
  <path class="st14" d="M212.9,223.6h136.9c2.4,0,4.3,1.9,4.3,4.3v6.8c0,2.4-1.9,4.3-4.3,4.3h-136.9c-2.4,0-4.3-1.9-4.3-4.3v-6.7c0-2.4,1.9-4.4,4.3-4.4Z"/>
  <path class="st11" d="M220.4,335c0,6.4-1.1,12.7-3.3,18.6h-49.9c-4.7,0-8.6-3.8-8.6-8.6v-62.8c2.8-.5,5.6-.7,8.4-.7,29.5.1,53.4,24,53.4,53.5h0Z"/>
  <path class="st2" d="M661.7,122.4v-4.6h-76.3v-52.8h-4.5v52.8h-87.5v-52.8h-4.5v52.8h-57.8c-.6,1.5-1.3,3-1.9,4.6h59.6v89.3h-74.1c.1,1.5.2,3,.3,4.6h73.8v71.2h-55.2c.7,1.5,1.4,3,2.1,4.5h53.1v59.9h4.5v-59.9h87.5v59.9h4.5v-59.9h76.3v-4.5h-76.3c0-39.3,31.9-71.2,71.2-71.2h5.1v-4.6h-76.3v-89.3s76.4,0,76.4,0ZM580.8,287.4h-87.5v-71.2h87.5v71.2ZM580.8,211.6h-87.5v-1.8c0-48.3,39.2-87.5,87.5-87.5h0v89.3Z"/>
  <path class="st9" d="M600.2,319.9c-2.6.1-4.8-1.9-5-4.5,0-1.4.5-2.8,1.5-3.7,0-.5.2-.8.3-1.3,0-.1,0-.2,0-.3-4.4-10.4-19.2-10.4-23.6.1-3.9,9.3-8.8,18.6-10,28.4-.5,4.3-.3,8.7.7,13-9-19.7-13.7-41.2-13.8-62.9,0-5.4.3-10.9.9-16.3.5-4.4,1.2-8.8,2.1-13.2,4.8-23.7,15.3-46,30.4-64.9,7.3-4,13.2-10.1,17-17.6,1.3-2.7,2.3-5.5,2.8-8.5-.8.1-1.7.2-2.5.2h-.9c-2.6.1-4.8-1.9-4.9-4.5,0-1.2.3-2.3,1-3.2.4-.4.7-.9,1.1-1.3.5-.7,1.1-1.3,1.6-2q0-.1.2-.2c.6-.8,1.2-1.5,1.9-2.3-1.1-1.8-2.7-3.2-4.5-4.3-6.2-3.7-14.8-1.1-19.4,4.5-4.5,5.6-5.4,13.6-3.8,20.6,1.3,6,4.3,11.6,7.6,16.8-.3.4-.7.9-1,1.3-6.2,8-11.6,16.5-16.1,25.5,1.1-10.1-.2-20.3-3.8-29.8-3.7-8.8-10.5-16.3-16.6-23.9-7.3-9.2-22.2-5.2-23.4,6.5v.3c.9.5,1.8,1,2.6,1.6,3,2,3.8,6,1.8,8.9-1,1.5-2.6,2.5-4.4,2.8h0c.3,3.2.9,6.4,1.7,9.6,4.7,17.8,16.6,32.8,32.9,41.4.5.3,1,.5,1.6.8-4.5,12.9-7.4,26.3-8.5,39.9-.6,8-.6,16.1,0,24.1v-.3c-1.7-8.9-6.5-17-13.5-22.8-10.4-8.5-25-11.6-36.2-18.5-5.4-3.3-12.3,1-11.3,7.2v.3c1.7.7,3.3,1.5,4.9,2.3.9.5,1.8,1,2.6,1.6,3,2,3.8,6,1.8,8.9-1,1.5-2.6,2.5-4.4,2.8h-.4c2.8,6.8,6.8,13.1,11.8,18.5,12.4,13.3,29.8,20.9,48,21h0c2.4,10.6,6,21,10.6,30.9h37.8c0-.4.3-.9.4-1.3-3.5.2-7,0-10.4-.6,2.8-3.4,5.6-6.9,8.4-10.3q0-.1.2-.2c1.4-1.8,2.9-3.5,4.3-5.3h0c-.1-5.2-.7-10.5-2-15.8h0ZM556.9,234.9h0ZM548.6,310.3l-.3-.7v-2c.1.8.2,1.7.3,2.7h0Z"/>
  <path class="st8" d="M264,231.6h0v-50.7c0-16.2-13.1-29.4-29.4-29.4h-107.5c-16.2,0-29.4,13.1-29.4,29.4h0v278.4c0,16.2,13.1,29.4,29.4,29.4h107.5c16.2,0,29.4-13.1,29.4-29.4v-191.6h0c1,0,1.9-.8,1.9-1.9v-32.4c-.1-1-.9-1.8-1.9-1.8Z"/>
  <path class="st13" d="M257.7,181.1v278c0,12-9.7,21.8-21.7,21.9h-108.2c-12.1,0-21.9-9.8-21.9-21.9V181.1c0-12.1,9.8-21.9,21.9-21.9h13.1c-2.2,5.3.4,11.4,5.7,13.6,1.2.5,2.6.8,3.9.8h61.6c5.8,0,10.4-4.7,10.4-10.5s-.3-2.7-.8-3.9h14c12.2-.1,22,9.8,22,21.9Z"/>
  <path class="st1" d="M236.3,472.4c0,2.9-.1,5.7-.3,8.6h-108.2c-12.1,0-21.9-9.8-21.9-21.9v-123.9c73,3.7,130.4,64,130.4,137.2Z"/>
  <path class="st12" d="M98.3,260c-1.4,0-2.5-1.1-2.5-2.5v-17c0-1.4,1.1-2.5,2.5-2.5s2.5,1.1,2.5,2.5v17c0,1.4-1.1,2.5-2.5,2.5Z"/>
  <path class="st11" d="M168.5,246.4h26.5c2.4,0,4.3,1.9,4.3,4.3v6.8c0,2.4-1.9,4.3-4.3,4.3h-26.5c-2.4,0-4.3-1.9-4.3-4.3v-6.8c0-2.3,1.9-4.3,4.3-4.3Z"/>
  <path class="st14" d="M131.8,277.3h99.9c2.4,0,4.3,1.9,4.3,4.3v6.8c0,2.4-1.9,4.3-4.3,4.3h-99.9c-2.4,0-4.3-1.9-4.3-4.3v-6.8c0-2.4,1.9-4.3,4.3-4.3Z"/>
  <path class="st14" d="M131.8,308.2h99.9c2.4,0,4.3,1.9,4.3,4.3v6.8c0,2.4-1.9,4.3-4.3,4.3h-99.9c-2.4,0-4.3-1.9-4.3-4.3v-6.8c0-2.4,1.9-4.3,4.3-4.3Z"/>
  <path class="st9" d="M207.7,465.2c-1.2.1-2.3-.9-2.3-2.1s.2-1.3.7-1.7l.2-.6s0-.1-.1-.1c-1.3-3-4.8-4.5-7.9-3.2-1.4.6-2.6,1.8-3.2,3.2-1.8,4.4-4.1,8.7-4.7,13.3-.2,2-.1,4.1.3,6.1-4.2-9.3-6.5-19.3-6.5-29.5s.1-5.1.4-7.7c.2-2.1.6-4.2,1-6.2,2.3-11.1,7.2-21.6,14.3-30.5,3.4-1.9,6.2-4.8,8-8.3.6-1.3,1.1-2.6,1.3-4-.4.1-.8.1-1.2.1h-.4c-1.2.1-2.3-.9-2.3-2.1s.2-1.1.5-1.5c.2-.2.3-.4.5-.6.3-.3.5-.6.8-.9h.1c.3-.5.6-.8.9-1.2-.5-.8-1.3-1.5-2.1-2-2.9-1.7-7-.5-9.1,2.1s-2.5,6.4-1.8,9.7c.7,2.8,1.9,5.5,3.5,7.9-.2.2-.3.4-.5.6-2.9,3.7-5.4,7.7-7.6,12,.5-4.7-.1-9.5-1.8-14-1.7-4.1-4.9-7.6-7.8-11.2-2.1-2.7-6-3.2-8.7-1.1-1.3,1-2.1,2.5-2.3,4.1v.2c.4.2.8.5,1.2.8,1.4.9,1.8,2.8.8,4.2s-1.2,1.2-2.1,1.3h-.1c.2,1.5.4,3,.8,4.5,2.2,8.3,7.8,15.4,15.4,19.4.2.1.5.3.7.4-2.1,6-3.5,12.3-4,18.7-.3,3.8-.3,7.5.1,11.3h0c-.8-4.3-3-8.1-6.3-10.8-4.9-4-11.7-5.5-17-8.7-1.6-1-3.8-.6-4.8,1-.4.7-.6,1.5-.5,2.3h0c.8.4,1.5.8,2.3,1.2.4.2.8.5,1.2.8,1.4.9,1.8,2.8.8,4.2s-1.2,1.2-2.1,1.3h-.2c1.3,3.2,3.2,6.1,5.5,8.7,5.8,6.2,14,9.8,22.5,9.9h0c1.1,5,2.8,9.8,5,14.5h17.7c.1-.2.1-.4.2-.6-1.6.1-3.3,0-4.9-.3,1.3-1.6,2.6-3.2,3.9-4.9h.1c.7-.9,1.3-1.7,2-2.6h0c.5-2.5.2-5-.4-7.4h0ZM187.4,425.2h0ZM183.5,460.6l-.2-.3v-.9c0,.4,0,.8.2,1.2h0Z"/>
  <path class="st12" d="M97.8,227c-1.4,0-2.5-1.1-2.5-2.5v-17c0-1.4,1.1-2.5,2.5-2.5s2.5,1.1,2.5,2.5v17c0,1.4-1.1,2.5-2.5,2.5Z"/>
  <path class="st10" d="M164.3,162c0-1.4,1.1-2.5,2.5-2.5h17c1.4,0,2.5,1.1,2.5,2.5s-1.1,2.5-2.5,2.5h-17c-1.4,0-2.5-1.1-2.5-2.5Z"/>
  <path class="st12" d="M98.3,289c-1.4,0-2.5-1.1-2.5-2.5v-17c0-1.4,1.1-2.5,2.5-2.5s2.5,1.1,2.5,2.5v17c0,1.4-1.1,2.5-2.5,2.5Z"/>
  <circle class="st10" cx="193.3" cy="162" r="2.5"/>
  <path class="st5" d="M858.9,488.6l-857.7.3c-.7,0-1.2-.5-1.2-1.2s.5-1.2,1.2-1.2l857.8-.3c.7,0,1.2.5,1.2,1.2-.1.7-.6,1.2-1.3,1.2Z"/>
  <path class="st17" d="M366.8,226.1l-4.5,1c0-1.9-.3-3.8-.7-5.6-.4,2.2-1.3,4.4-2.5,6.3l-25.9,5.5-24.8-26.2c0-13.1,7.2-23.1,20.3-23.1s1.6,0,2.4.1c14.7-2.5,28.6,7.1,31.6,21.7,9.2,9.1,5.8,14.5,4.1,20.3Z"/>
  <polygon class="st16" points="379.5 532.7 388.9 532.7 393.3 496.5 379.5 496.5 379.5 532.7"/>
  <path class="st17" d="M377.2,528.1l14.8-.9v6.4l14.1,9.7c1.8,1.2,2.3,3.7,1,5.5-.7,1.1-2,1.7-3.3,1.7h-17.7l-3-6.3-1.2,6.3h-6.7l2-22.4Z"/>
  <polygon class="st16" points="269.5 522.5 277.7 527.1 299.4 497.8 287.4 491 269.5 522.5"/>
  <path class="st17" d="M269.8,517.3l13.3,6.6-3.1,5.5,7.5,15.4c1,2,.1,4.3-1.8,5.3-1.2.6-2.6.5-3.7,0l-15.4-8.7.5-7-4.1,4.9-5.8-3.3,12.6-18.6Z"/>
  <path class="st16" d="M414.2,232.4c-4.5.7-7.7,4.9-7,9.4.1.5.2,1,.3,1.4l-14.4,12.4,5.4,10.6,20-17.8c4.3-1.7,6.3-6.6,4.6-10.9-1.4-3.5-5.1-5.6-8.9-5.1h0Z"/>
  <path class="st17" d="M399.7,275.2c-4.8,7.3-15.5,14.3-31.5,20.5-1.8.7-3.8.6-5.5-.2-6-2.7-9.9-12.9-10.2-13.9l-11.6-15.7c-.2-.2-5.7-6.4-5-12.5.3-2.6,1.7-4.9,3.8-6.4,8.8-6.5,28.6,16.2,31.1,19.2l12.9-7.9,9.4-4.2,7.6-9.2,10.7,10.9-9.6,15.3c-.5,1.5-1.2,2.8-2.1,4.1Z"/>
  <path class="st17" d="M366.2,303s27.6,44,22.6,49-12.8,6.3-12.8,6.3l-17.2-22.3,7.4-33Z"/>
  <path class="st17" d="M341.8,243l13,8.8c12.4,8.4,17.8,24,13.1,38.3l-3.7,11.1-22.4-58.2Z"/>
  <polygon class="st17" points="318.8 363 317.1 369.1 311.2 442.1 281.5 497.3 295.7 507.5 336.1 454.9 352.1 402.7 377.2 518.2 396 516.9 382.9 356.7 358.1 311.6 318.8 363"/>
  <path class="st11" d="M339.6,245.2l18.1,14.8c4,3.2,6.8,7.7,8.2,12.6h0c.6,2.2.9,4.6.9,6.9l-.5,32.1,16.6,44.4s-45,17-51,2,7.7-112.8,7.7-112.8Z"/>
  <path class="st0" d="M345,365.8c-22.5,0-28,.2-28.3.1h-.4v-13.6l5.5-24.3c-.6-7.5-2.1-17.5-2-26,.5-30.8-1-60.8-1-60.8l11.9-11,5.4,3.5,10,10c11.7,28.7,20.9,55.7,21,57.4l.7,29.9-3,12c-13.5,9.6-1.1,22.8-19.8,22.8Z"/>
  <polygon class="st2" points="323.8 268 321.1 285 339.6 292.7 323.8 268"/>
  <circle class="st16" cx="342.5" cy="208.9" r="18.1"/>
  <path class="st2" d="M312.1,300.8h0c9.9,11.5,26.3,14.8,39.9,8.1l3.9-2-43.8-6.1Z"/>
  <path class="st16" d="M375.2,296.6c-3.1-3.4-8.3-3.7-11.7-.7-.4.3-.7.7-1,1.1l-18.3-5.1-5.8,10.4,25.9,6.9c3.8,2.6,9,1.6,11.6-2.2,2.1-3.3,1.9-7.5-.7-10.4Z"/>
  <path class="st17" d="M331.5,308.1c-8.7,0-20.5-5.1-34.4-15-1.6-1.1-2.6-2.8-2.9-4.7-1-6.5,5.3-15.4,6-16.2l6.7-18.4c.1-.3,2.2-8.3,7.6-11.1,2.3-1.2,5-1.3,7.4-.3,10.3,3.8,2.3,32.8,1.2,36.6l13.7,6.4,8.7,5.5,11.9,1.2-3.2,14.9-18,.4c-1.6.5-3.2.7-4.7.7Z"/>
  <path class="st17" d="M364.2,197c-1.5,1.9-6.4,3.6-12.4,4.9v-.4c0-1.9-.3-3.8-.7-5.6-.4,2.2-1.3,4.4-2.5,6.3-.1.1-.2.3-.3.4-5.1,1-10.5,1.8-14.7,2.3,2.9,10.4,14,19,12.8,25.4l-32.6,6.7c.2-2.6,0-5.3-.6-7.9-.6,3.4-2.3,6.5-4.7,9l-2.8.6-.8-4.1c-7.1-17.2,2.8-34.7,19.1-43.8,2.9-4.4,7.4-7.4,12.6-8.4l4.1-.8c10.8-2.4,21.3,4.6,23.5,15.4q0-.1,0,0Z"/>
  <path class="st1" d="M442,525.3l.5-10.8c5-2.7,10.6-4.1,16.3-4.1-7.8,6.4-6.9,18.8-12.2,27.4-3.4,5.4-9.1,9-15.4,9.7l-6.6,4c-1.8-10.2.9-20.6,7.4-28.6,1.8-2.2,3.9-4.1,6.3-5.8,1.6,4.1,3.7,8.2,3.7,8.2Z"/>
  <path class="st15" d="M457.9,551.7h-228.4c-.7,0-1.2-.5-1.2-1.2s.5-1.2,1.2-1.2h228.4c.7,0,1.2.5,1.2,1.2s-.5,1.2-1.2,1.2h0Z"/>
</svg>