<?xml version="1.0" encoding="utf-8"?>
<!-- Generator: Adobe Illustrator 28.2.0, SVG Export Plug-In . SVG Version: 6.00 Build 0)  -->
<svg version="1.1" id="Layer_1" xmlns="http://www.w3.org/2000/svg" xmlns:xlink="http://www.w3.org/1999/xlink" x="0px" y="0px"
	 viewBox="0 0 938.2 761" style="enable-background:new 0 0 938.2 761;" xml:space="preserve">
<style type="text/css">
	.st0{fill:#2B190E;}
	.st1{fill:#FFFFFF;}
	.st2{fill:#E1B86C;}
	.st3{fill:#268184;}
	.st4{fill:#EAD8CD;}
	.st5{fill:#C7A896;}
	.st6{opacity:0.5;fill:#EAD8CD;enable-background:new    ;}
	.st7{fill:#2F2E41;}
	.st8{fill:#3F3D56;}
</style>
<rect y="758.4" class="st0" width="937.7" height="2"/>
<path class="st0" d="M474.7,206.2h-4V96.7c0-35-28.4-63.4-63.4-63.4l0,0H175.2c-35,0-63.4,28.4-63.4,63.4c0,0,0,0,0,0v601
	c0,35,28.4,63.4,63.4,63.4h232.1c35,0,63.4-28.4,63.4-63.4V284.2h4L474.7,206.2z"/>
<path class="st1" d="M457.2,97.1v600.1c0,26.2-21.2,47.3-47.3,47.3H176.7c-26.1,0-47.3-21.2-47.3-47.3c0,0,0,0,0,0V97.1
	c0-26.1,21.2-47.3,47.3-47.3c0,0,0,0,0,0H205c-4.7,11.5,0.8,24.6,12.3,29.3c2.7,1.1,5.6,1.7,8.5,1.7h133c12.4,0,22.5-10.1,22.5-22.5
	c0-2.9-0.6-5.8-1.7-8.5h30.3C436,49.8,457.2,71,457.2,97.1z"/>
<circle class="st2" cx="234.7" cy="148.9" r="62"/>
<ellipse transform="matrix(9.812117e-02 -0.9952 0.9952 9.812117e-02 -123.6421 747.5594)" class="st0" cx="350.6" cy="442" rx="83.9" ry="41.1"/>
<path class="st3" d="M340.9,579.1c-6.7-100,19.2-196.4,19.5-197.4l3.1,0.9c-0.3,1-26,96.9-19.4,196.3L340.9,579.1z"/>
<rect x="348.5" y="435.5" transform="matrix(0.9238 -0.3829 0.3829 0.9238 -139.2122 174.8017)" class="st3" width="42.2" height="3.3"/>
<rect x="327.9" y="422.1" transform="matrix(0.5561 -0.8311 0.8311 0.5561 -222.1093 470.6006)" class="st3" width="3.3" height="42.2"/>
<ellipse transform="matrix(9.812118e-02 -0.9952 0.9952 9.812118e-02 -63.0441 537.3788)" class="st4" cx="265" cy="303.5" rx="164.2" ry="80.5"/>
<path class="st0" d="M247.5,571.5c-13.1-195.3,37.5-383.6,38-385.5l3.1,0.9c-0.5,1.9-50.9,189.7-37.9,384.5L247.5,571.5z"/>
<rect x="260.8" y="292.4" transform="matrix(0.9238 -0.3829 0.3829 0.9238 -89.5563 138.0343)" class="st0" width="82.5" height="3.3"/>
<rect x="222.1" y="264.6" transform="matrix(0.5561 -0.8311 0.8311 0.5561 -154.9424 321.6883)" class="st0" width="3.3" height="82.5"/>
<ellipse transform="matrix(9.812117e-02 -0.9952 0.9952 9.812117e-02 195.9869 663.9345)" class="st3" cx="464.3" cy="223.8" rx="224.7" ry="110.1"/>
<path class="st0" d="M441.1,590.6c-17.9-267.2,51.3-524.8,52-527.4l3.1,0.9c-0.7,2.6-69.7,259.7-51.9,526.3L441.1,590.6z"/>
<rect x="458.6" y="209.3" transform="matrix(0.9238 -0.3829 0.3829 0.9238 -41.5062 213.2475)" class="st0" width="112.9" height="3.3"/>
<rect x="406.2" y="170.7" transform="matrix(0.5561 -0.8311 0.8311 0.5561 -7.7656 439.7752)" class="st0" width="3.3" height="112.9"/>
<path class="st3" d="M129.3,587.2l-2,112.5c0,26.6,23.2,48.2,49.3,48.2h233.2c26.2,0,49.3-21.6,49.3-48.2l-2-111.5
	C339.6,542.7,230.9,545.5,129.3,587.2z"/>
<path class="st0" d="M626.8,196.1l12.4-9.9c-9.6-1.1-13.6,4.2-15.2,8.4c-7.5-3.1-15.7,1-15.7,1l24.8,9
	C631.9,201.1,629.7,198.2,626.8,196.1z"/>
<path class="st0" d="M323.4,108.4l12.4-9.9c-9.6-1.1-13.6,4.2-15.2,8.4c-7.5-3.1-15.7,1-15.7,1l24.8,9
	C328.5,113.5,326.3,110.6,323.4,108.4z"/>
<path class="st0" d="M818.3,69.3l12.4-9.9c-9.6-1.1-13.6,4.2-15.2,8.4c-7.5-3.1-15.7,1-15.7,1l24.8,9
	C823.3,74.4,821.2,71.5,818.3,69.3z"/>
<path class="st5" d="M798.7,526l-0.2,16.9c-0.1,6.1-5.1,11-11.2,10.9c-0.7,0-1.4-0.1-2.2-0.2l0,0c-6-1.3-9.8-7.1-8.5-13.1
	c0.2-0.9,0.5-1.7,0.9-2.5l5.7-11.7l11.7-85l-4.5-56.8l22-1.1l4.7,65L798.7,526z"/>
<polygon class="st5" points="690.9,615.8 669.8,729.7 680.3,728.1 719.4,613.4 "/>
<polygon class="st5" points="792.2,617 805.6,733.8 817,732.1 819.8,616.2 "/>
<path class="st4" d="M912.6,582.9c-30.3,24.4-65.8,60.1-101.2,46.8c-36.9-13.9-79.5-14.8-127.4-8.6c11.5-71.8,25.6-139.8,43.9-201.7
	l61,9.8c0.9,1-1.3,6.7-0.4,7.7c17.1,19.3,34.6,34.3,45.2,54.2c15.6,29.6,36.7,56,62.1,77.7L912.6,582.9z"/>
<path class="st6" d="M938.2,595.5c-30.3,25-93.9,66.9-129.2,53.2c-36.9-14.3-80.7-13.2-128.6-6.8c2.3-14.7,4.7-29.3,7.3-43.7
	c10.4-58.4,199.8-37.9,225.4-15.6L938.2,595.5z"/>
<path class="st7" d="M816.1,387c-11.4-3.3-23-1.7-34.8,3.4l4.3-32.1c-0.9-7.4,4.3-14.1,11.7-15l0,0c7.4-0.9,14.1,4.3,15,11.7l0,0
	L816.1,387z"/>
<circle class="st5" cx="764.1" cy="297" r="22.8"/>
<path class="st5" d="M806.4,360.4l-50-11.8c7.4-10.7,5.9-23.2,0-36.6l24.4-4.9c2.7,9.3,6,17.7,10.6,24.4L806.4,360.4z"/>
<path class="st0" d="M788.9,432.4l-61.8-8.9l2.1-11.6c-1-30.2,4-54.9,13.4-75.5l54.5,3.3l0,0c14.4,11.5,19.2,31.3,11.7,48.1
	l-19,37.3L788.9,432.4z"/>
<path class="st0" d="M681.8,759.1c-2.9,1.3-5.2-9.2-7.6-6.9c-6.7,6.6-17,8.1-26,5.2l3.1,0c-2.2-0.7-3.4-3.1-2.7-5.3
	c0-0.1,0-0.1,0.1-0.2l0,0c0.5-1.3,1.6-2.3,2.9-2.6l7.2-1.8l11.2-19.8l12.2-1.6l0.3,0.5c4.8,7.7,6,17.1,3.4,25.8
	C684.8,755.7,683.4,758.3,681.8,759.1z"/>
<path class="st0" d="M816.8,759.1c-2.9,1.3-5.2-9.2-7.6-6.9c-6.7,6.6-17,8.1-26,5.2l3.1,0c-2.2-0.7-3.4-3.1-2.7-5.3
	c0-0.1,0-0.1,0.1-0.2l0,0c0.5-1.3,1.6-2.3,2.9-2.6l7.2-1.8l11.2-19.8l12.2-1.6l0.3,0.5c4.8,7.7,6,17.1,3.4,25.8
	C819.9,755.7,818.5,758.3,816.8,759.1z"/>
<path class="st0" d="M792.5,392.9h-0.6c-11-9.5-20.6-20.2-12.8-33.6c-6.5-16.6-13.8-33.9-13.4-44.5c0.5-7.9-2.1-15.7-7.1-21.8
	c-7-8.1-8.5-11.8-21.2-8.7l0,0c-0.2-13.3,10.4-24.2,23.7-24.4c0.4,0,0.8,0,1.2,0l7.9,0.3c6.1,0.2,25.5,2.7,29.6,6.7
	c4.3,4.3,6.3,10.3,5.5,16.3c-0.8,6.6,1.3,12.5,6.9,17.4c10.7,11.1,15.1,22.5,9,34.7c-4.6,12.9-4.4,23.5,7.4,28.6l0,0l0,0
	C832.6,378.6,807.7,392.9,792.5,392.9z"/>
<ellipse transform="matrix(0.7341 -0.679 0.679 0.7341 -130.3864 571.1057)" class="st8" cx="664.1" cy="452.1" rx="7.8" ry="15.9"/>
<circle class="st3" cx="695.7" cy="390.8" r="22.8"/>
<path class="st8" d="M734,536.3c-10.2-4.6-19.8-10.7-28.3-18c-17.3-14.9-29.8-36.4-30.8-59.5c-0.9-22.2,8.5-43.1,18.5-62.5
	c1.3-2.4,2.5-4.9,3.8-7.3c0.5-0.9,2-0.3,1.5,0.6c-10.3,19.6-21.2,40.4-22.2,63c-1,23.8,10.6,46.6,28,62.4c8.9,8,19.1,14.7,30,19.6"
	/>
<rect x="687.6" y="390.1" transform="matrix(0.9743 -0.2251 0.2251 0.9743 -71.867 165.1054)" class="st8" width="1.1" height="15.3"/>
<ellipse transform="matrix(0.9923 -0.1242 0.1242 0.9923 -56.1714 90.8767)" class="st8" cx="700.7" cy="495.9" rx="7.8" ry="15.9"/>
<path class="st5" d="M727.9,509.7l-2.3,16.8c-0.8,6-6.4,10.3-12.4,9.5c-0.7-0.1-1.4-0.3-2.1-0.5l0,0c-5.8-2-8.8-8.3-6.9-14
	c0.3-0.8,0.7-1.6,1.2-2.4l7-10.9l22-83l2.4-56.9l22,1.6l-3.3,65.1L727.9,509.7z"/>
<path class="st0" d="M761.7,380.3c-10.9-4.7-22.7-4.5-35-0.8l8.1-31.3c0-7.4,6-13.4,13.4-13.4l0,0c7.4,0,13.4,6,13.4,13.4l0,0V380.3
	z"/>
</svg>
