<?xml version="1.0" encoding="UTF-8"?>
<svg id="Layer_1" xmlns="http://www.w3.org/2000/svg" version="1.1" viewBox="0 0 938.2 761">
  <!-- Generator: Adobe Illustrator 29.1.0, SVG Export Plug-In . SVG Version: 2.1.0 Build 142)  -->
  <defs>
    <style>
      .st0 {
        fill: #2b1a11;
      }

      .st1 {
        fill: #e1b86c;
      }

      .st2 {
        fill: #976c52;
      }

      .st3 {
        fill: #5da1a3;
      }

      .st4 {
        fill: #ead8cd;
      }

      .st5 {
        fill: #2f2e41;
      }

      .st6 {
        fill: #9ac5c7;
      }

      .st7 {
        fill: #7a7471;
      }

      .st8 {
        fill: #56321c;
      }

      .st9 {
        fill: #c08a69;
      }

      .st10 {
        fill: #268184;
      }

      .st11 {
        fill: #f7f7f7;
      }

      .st12 {
        isolation: isolate;
        opacity: .5;
      }

      .st12, .st13 {
        fill: #d5b19b;
      }

      .st14 {
        fill: #2b190e;
      }
    </style>
  </defs>
  <rect class="st13" y="758.4" width="937.7" height="2"/>
  <path class="st7" d="M474.7,206.2h-4v-109.5c0-35-28.4-63.4-63.4-63.4h-232.1c-35,0-63.4,28.4-63.4,63.4h0v601c0,35,28.4,63.4,63.4,63.4h232.1c35,0,63.4-28.4,63.4-63.4v-413.5h4v-78Z"/>
  <path class="st11" d="M457.2,97.1v600.1c0,26.2-21.2,47.3-47.3,47.3h-233.2c-26.1,0-47.3-21.2-47.3-47.3h0V97.1c0-26.1,21.2-47.3,47.3-47.3h28.3c-4.7,11.5.8,24.6,12.3,29.3,2.7,1.1,5.6,1.7,8.5,1.7h133c12.4,0,22.5-10.1,22.5-22.5s-.6-5.8-1.7-8.5h30.3c26.1,0,47.3,21.2,47.3,47.3Z"/>
  <circle class="st1" cx="234.7" cy="148.9" r="62"/>
  <ellipse class="st9" cx="350.6" cy="442" rx="83.9" ry="41.1" transform="translate(-123.6 747.6) rotate(-84.4)"/>
  <path class="st10" d="M340.9,579.1c-6.7-100,19.2-196.4,19.5-197.4l3.1.9c-.3,1-26,96.9-19.4,196.3l-3.2.2Z"/>
  <rect class="st10" x="348.5" y="435.5" width="42.2" height="3.3" transform="translate(-139.2 174.8) rotate(-22.5)"/>
  <rect class="st10" x="327.8" y="422.1" width="3.3" height="42.2" transform="translate(-222.1 470.6) rotate(-56.2)"/>
  <ellipse class="st4" cx="265" cy="303.4" rx="164.2" ry="80.5" transform="translate(-63 537.4) rotate(-84.4)"/>
  <path class="st14" d="M247.5,571.5c-13.1-195.3,37.5-383.6,38-385.5l3.1.9c-.5,1.9-50.9,189.7-37.9,384.5h-3.2Z"/>
  <rect class="st14" x="260.8" y="292.4" width="82.5" height="3.3" transform="translate(-89.6 138.1) rotate(-22.5)"/>
  <rect class="st14" x="222" y="264.6" width="3.3" height="82.5" transform="translate(-154.9 321.6) rotate(-56.2)"/>
  <ellipse class="st3" cx="464.3" cy="223.8" rx="224.7" ry="110.1" transform="translate(196 663.9) rotate(-84.4)"/>
  <path class="st14" d="M441.1,590.6c-17.9-267.2,51.3-524.8,52-527.4l3.1.9c-.7,2.6-69.7,259.7-51.9,526.3l-3.2.2Z"/>
  <rect class="st14" x="458.6" y="209.3" width="112.9" height="3.3" transform="translate(-41.5 213.3) rotate(-22.5)"/>
  <rect class="st14" x="406.2" y="170.7" width="3.3" height="112.9" transform="translate(-7.7 439.8) rotate(-56.2)"/>
  <path class="st10" d="M129.3,587.2l-2,112.5c0,26.6,23.2,48.2,49.3,48.2h233.2c26.2,0,49.3-21.6,49.3-48.2l-2-111.5c-117.5-45.5-226.2-42.7-327.8-1Z"/>
  <path class="st13" d="M626.8,196.1l12.4-9.9c-9.6-1.1-13.6,4.2-15.2,8.4-7.5-3.1-15.7,1-15.7,1l24.8,9c-1.2-3.5-3.4-6.4-6.3-8.5Z"/>
  <path class="st13" d="M323.4,108.4l12.4-9.9c-9.6-1.1-13.6,4.2-15.2,8.4-7.5-3.1-15.7,1-15.7,1l24.8,9c-1.2-3.4-3.4-6.3-6.3-8.5Z"/>
  <path class="st13" d="M818.3,69.3l12.4-9.9c-9.6-1.1-13.6,4.2-15.2,8.4-7.5-3.1-15.7,1-15.7,1l24.8,9c-1.3-3.4-3.4-6.3-6.3-8.5Z"/>
  <path class="st2" d="M798.7,526l-.2,16.9c0,6.1-5.1,11-11.2,10.9-.7,0-1.4,0-2.2-.2h0c-6-1.3-9.8-7.1-8.5-13.1.2-.9.5-1.7.9-2.5l5.7-11.7,11.7-85-4.5-56.8,22-1.1,4.7,65-18.4,77.6Z"/>
  <polygon class="st2" points="690.9 615.8 669.8 729.7 680.3 728.1 719.4 613.4 690.9 615.8"/>
  <polygon class="st2" points="792.2 617 805.6 733.8 817 732.1 819.8 616.2 792.2 617"/>
  <path class="st13" d="M912.6,582.9c-30.3,24.4-65.8,60.1-101.2,46.8-36.9-13.9-79.5-14.8-127.4-8.6,11.5-71.8,25.6-139.8,43.9-201.7l61,9.8c.9,1-1.3,6.7-.4,7.7,17.1,19.3,34.6,34.3,45.2,54.2,15.6,29.6,36.7,56,62.1,77.7l16.8,14.1Z"/>
  <path class="st12" d="M938.2,595.5c-30.3,25-93.9,66.9-129.2,53.2-36.9-14.3-80.7-13.2-128.6-6.8,2.3-14.7,4.7-29.3,7.3-43.7,10.4-58.4,199.8-37.9,225.4-15.6l25.1,12.9Z"/>
  <path class="st5" d="M816.1,387c-11.4-3.3-23-1.7-34.8,3.4l4.3-32.1c-.9-7.4,4.3-14.1,11.7-15h0c7.4-.9,14.1,4.3,15,11.7h0l3.8,32Z"/>
  <circle class="st2" cx="764.1" cy="297" r="22.8"/>
  <path class="st2" d="M806.4,360.4l-50-11.8c7.4-10.7,5.9-23.2,0-36.6l24.4-4.9c2.7,9.3,6,17.7,10.6,24.4l15,28.9Z"/>
  <path class="st8" d="M788.9,432.4l-61.8-8.9,2.1-11.6c-1-30.2,4-54.9,13.4-75.5l54.5,3.3h0c14.4,11.5,19.2,31.3,11.7,48.1l-19,37.3-.9,7.3Z"/>
  <path class="st0" d="M681.8,759.1c-2.9,1.3-5.2-9.2-7.6-6.9-6.7,6.6-17,8.1-26,5.2h3.1c-2.2-.7-3.4-3.1-2.7-5.3q0,0,0-.2h0c.5-1.3,1.6-2.3,2.9-2.6l7.2-1.8,11.2-19.8,12.2-1.6.3.5c4.8,7.7,6,17.1,3.4,25.8-1.1,3.3-2.5,5.9-4.1,6.7Z"/>
  <path class="st0" d="M816.8,759.1c-2.9,1.3-5.2-9.2-7.6-6.9-6.7,6.6-17,8.1-26,5.2h3.1c-2.2-.7-3.4-3.1-2.7-5.3q0,0,0-.2h0c.5-1.3,1.6-2.3,2.9-2.6l7.2-1.8,11.2-19.8,12.2-1.6.3.5c4.8,7.7,6,17.1,3.4,25.8-1,3.3-2.4,5.9-4.1,6.7Z"/>
  <path class="st14" d="M792.5,392.9h-.6c-11-9.5-20.6-20.2-12.8-33.6-6.5-16.6-13.8-33.9-13.4-44.5.5-7.9-2.1-15.7-7.1-21.8-7-8.1-8.5-11.8-21.2-8.7h0c-.2-13.3,10.4-24.2,23.7-24.4h1.2l7.9.3c6.1.2,25.5,2.7,29.6,6.7,4.3,4.3,6.3,10.3,5.5,16.3-.8,6.6,1.3,12.5,6.9,17.4,10.7,11.1,15.1,22.5,9,34.7-4.6,12.9-4.4,23.5,7.4,28.6h0c4,14.7-20.9,29-36.1,29Z"/>
  <ellipse class="st8" cx="664.1" cy="452.1" rx="7.8" ry="15.9" transform="translate(-130.4 571.1) rotate(-42.8)"/>
  <circle class="st6" cx="695.7" cy="390.8" r="22.8"/>
  <path class="st8" d="M734,536.3c-10.2-4.6-19.8-10.7-28.3-18-17.3-14.9-29.8-36.4-30.8-59.5-.9-22.2,8.5-43.1,18.5-62.5,1.3-2.4,2.5-4.9,3.8-7.3.5-.9,2-.3,1.5.6-10.3,19.6-21.2,40.4-22.2,63-1,23.8,10.6,46.6,28,62.4,8.9,8,19.1,14.7,30,19.6"/>
  <rect class="st8" x="687.6" y="390.1" width="1.1" height="15.3" transform="translate(-71.9 165.1) rotate(-13)"/>
  <ellipse class="st8" cx="700.7" cy="495.9" rx="7.8" ry="15.9" transform="translate(-56.2 90.9) rotate(-7.1)"/>
  <path class="st2" d="M727.9,509.7l-2.3,16.8c-.8,6-6.4,10.3-12.4,9.5-.7,0-1.4-.3-2.1-.5h0c-5.8-2-8.8-8.3-6.9-14,.3-.8.7-1.6,1.2-2.4l7-10.9,22-83,2.4-56.9,22,1.6-3.3,65.1-27.6,74.7Z"/>
  <path class="st8" d="M761.7,380.3c-10.9-4.7-22.7-4.5-35-.8l8.1-31.3c0-7.4,6-13.4,13.4-13.4h0c7.4,0,13.4,6,13.4,13.4h0v32.1h0Z"/>
</svg>