<?xml version="1.0" encoding="UTF-8"?>
<svg id="Layer_1" xmlns="http://www.w3.org/2000/svg" version="1.1" viewBox="0 0 692 499.9">
  <!-- Generator: Adobe Illustrator 29.1.0, SVG Export Plug-In . SVG Version: 2.1.0 Build 142)  -->
  <defs>
    <style>
      .st0 {
        fill: #2b1a11;
      }

      .st1 {
        fill: #ead8cd;
      }

      .st2 {
        fill: #2f2e41;
      }

      .st3 {
        fill: #3d3a39;
      }

      .st4 {
        fill: #a2782b;
      }

      .st5 {
        fill: #56321c;
      }

      .st6 {
        fill: #775642;
      }

      .st7 {
        fill: #c08a69;
      }

      .st8 {
        fill: #268184;
      }

      .st9 {
        fill: #f7f7f7;
      }

      .st10 {
        fill: #bdbab8;
      }

      .st11 {
        fill: #b3886e;
      }

      .st12 {
        fill: #d5b19b;
      }
    </style>
  </defs>
  <path class="st12" d="M691,496H1c-.6,0-1-.4-1-1s.4-1,1-1h690c.6,0,1,.4,1,1s-.4,1-1,1Z"/>
  <path class="st12" d="M622.7,321.6H216.7c-3.6,0-6.5,2.9-6.5,6.5s2.9,6.5,6.5,6.5h11.5v155.5c0,3.6,2.9,6.5,6.5,6.5s6.5-2.9,6.5-6.5v-155.5h356v155.5c0,3.6,2.9,6.5,6.5,6.5s6.5-2.9,6.5-6.5v-152.1l1.9-3.4h10.6c3.6,0,6.5-2.9,6.5-6.5s-2.9-6.5-6.5-6.5Z"/>
  <path class="st3" d="M441.8,325h-123c-5,0-9-4-9-9v-67.7c0-5,4-9,9-9h123c5,0,9,4,9,9v67.7c0,5-4,9-9,9Z"/>
  <path class="st9" d="M441.8,246.3h-123c-1.1,0-2.1.9-2.1,2.1v67.7c0,1.1.9,2.1,2.1,2.1h123c1.1,0,2.1-.9,2.1-2.1v-67.7c0-1.1-.9-2.1-2.1-2.1Z"/>
  <path class="st2" d="M390.8,294.2s-14.7-3.4-22.8,2.8,10.3,20.4,10.3,20.4l12.5-23.2Z"/>
  <circle class="st6" cx="381" cy="273.9" r="13.9"/>
  <path class="st0" d="M370.3,254.4c1.9-3.2,5.4-5.1,9.1-4.9,1.9.2,3.8.8,5.5,1.5l9.1,3.5c2.3.9,4.9,2,5.9,4.3.9,2.1.2,4.6-.5,6.8l-3.4,10.6c-.4-2.4-1-4.7-1.9-7-.9-2.3-2.6-4.2-4.7-5.4-2.4-1.2-5.1-1.2-7.8-1.1-3.7.2-7.8.7-10.5,3.3-1.4,1.5-2.4,3.4-2.8,5.4-.4,2-.6,4.1-.6,6.1-1.5-2.6-2.8-5.4-3.9-8.3-.9-2.1-1.3-4.4-1.4-6.7,0-2.3.7-4.6,2.2-6.4,1.5-1.8,3.9-2.5,6.2-2h-.6Z"/>
  <path class="st8" d="M414.2,306.3c-.3-1-1.1-1.7-2.1-1.8,0,0,0,0-.1,0l-20.7-11.6c-1.2-.7-2.8-.3-3.5.9l-5.7,9.2-8.5-8.5h-.1c-.9-1-2.3-1.2-3.4-.4l-17,11.9s0,0,0,0c-1.7.3-2.9,1.7-3,3.4l-.4,8.9h68l-3.3-11.9Z"/>
  <path class="st3" d="M452.2,316.8h-13.1c0-.8-.6-1.4-1.4-1.4h-4.1c-.8,0-1.4.6-1.4,1.4h-4.1c0-.8-.6-1.4-1.4-1.4h-4.1c-.8,0-1.4.6-1.4,1.4h-4.1c0-.8-.6-1.4-1.4-1.4h-4.1c-.8,0-1.4.6-1.4,1.4h-4.1c0-.8-.6-1.4-1.4-1.4h-4.1c-.8,0-1.4.6-1.4,1.4h-4.1c0-.8-.6-1.4-1.4-1.4h-4.1c-.8,0-1.4.6-1.4,1.4h-4.1c0-.8-.6-1.4-1.4-1.4h-4.1c-.8,0-1.4.6-1.4,1.4h-4.1c0-.8-.6-1.4-1.4-1.4h-4.1c-.8,0-1.4.6-1.4,1.4h-4.1c0-.8-.6-1.4-1.4-1.4h-4.1c-.8,0-1.4.6-1.4,1.4h-4.1c0-.8-.6-1.4-1.4-1.4h-4.1c-.8,0-1.4.6-1.4,1.4h-4.1c0-.8-.6-1.4-1.4-1.4h-4.1c-.8,0-1.4.6-1.4,1.4h-4.1c0-.8-.6-1.4-1.4-1.4h-4.1c-.8,0-1.4.6-1.4,1.4h-13.1c-2.3,0-4.1,1.9-4.1,4.2,0,2.3,1.9,4.1,4.1,4.1h143.7c2.3,0,4.1-1.9,4.1-4.2,0-2.3-1.9-4.1-4.1-4.1Z"/>
  <path class="st9" d="M287.1,292.7v27.5h-69c-7.6.3-14-5.7-14.2-13.3s5.7-14,13.3-14.2c.3,0,.6,0,1,0h69Z"/>
  <path class="st8" d="M288.8,320c0,.6-.5,1.1-1.1,1.1h-70.8c-8,0-14.5-6.5-14.5-14.5s6.5-14.5,14.5-14.5h70.8c.6,0,1.1.5,1.1,1.1s-.5,1.1-1.1,1.1h-70.8c-6.8,0-12.4,5.6-12.4,12.4,0,6.8,5.5,12.4,12.4,12.4h70.8c.6,0,1.1.5,1.1,1.1Z"/>
  <path class="st10" d="M287.1,299h-74.1c-.1,0-.2,0-.2-.2,0-.1,0-.2.2-.2h74.1c.1,0,.2,0,.2.2,0,.1,0,.2-.2.2Z"/>
  <path class="st10" d="M287.1,304.1h-74.1c-.1,0-.2,0-.2-.2,0-.1,0-.2.2-.2h74.1c.1,0,.2,0,.2.2,0,.1,0,.2-.2.2Z"/>
  <path class="st10" d="M287.1,309.2h-74.1c-.1,0-.2,0-.2-.2,0-.1,0-.2.2-.2h74.1c.1,0,.2,0,.2.2,0,.1,0,.2-.2.2Z"/>
  <path class="st10" d="M287.1,314.3h-74.1c-.1,0-.2,0-.2-.2,0-.1,0-.2.2-.2h74.1c.1,0,.2,0,.2.2,0,.1,0,.2-.2.2Z"/>
  <path class="st9" d="M274.1,263.7v27.5h-69c-7.6.3-14-5.7-14.2-13.3s5.7-14,13.3-14.2c.3,0,.6,0,1,0h69Z"/>
  <path class="st5" d="M275.8,291c0,.6-.5,1.1-1.1,1.1h-70.8c-8,0-14.5-6.5-14.5-14.5s6.5-14.5,14.5-14.5h70.8c.6,0,1.1.5,1.1,1.1s-.5,1.1-1.1,1.1h-70.8c-6.8,0-12.4,5.5-12.4,12.4s5.5,12.4,12.4,12.4h70.8c.6,0,1.1.5,1.1,1.1Z"/>
  <path class="st10" d="M274.1,270h-74.1c-.1,0-.2,0-.2-.2,0-.1,0-.2.2-.2h74.1c.1,0,.2,0,.2.2,0,.1,0,.2-.2.2Z"/>
  <path class="st10" d="M274.1,275.1h-74.1c-.1,0-.2,0-.2-.2,0-.1,0-.2.2-.2h74.1c.1,0,.2,0,.2.2,0,.1,0,.2-.2.2Z"/>
  <path class="st10" d="M274.1,280.2h-74.1c-.1,0-.2,0-.2-.2,0-.1,0-.2.2-.2h74.1c.1,0,.2,0,.2.2,0,.1,0,.2-.2.2Z"/>
  <path class="st10" d="M274.1,285.3h-74.1c-.1,0-.2,0-.2-.2,0-.1,0-.2.2-.2h74.1c.1,0,.2,0,.2.2,0,.1,0,.2-.2.2Z"/>
  <path class="st7" d="M354.3,418v-24c0-2.2-1.8-4-4-4h-91c-2.2,0-4,1.8-4,4v24h99Z"/>
  <rect class="st7" x="255.3" y="427" width="99" height="31"/>
  <path class="st7" d="M255.3,467v24c0,2.2,1.8,4,4,4h91c2.2,0,4-1.8,4-4v-24h-99Z"/>
  <circle class="st9" cx="304.3" cy="405" r="3"/>
  <circle class="st9" cx="304.3" cy="445" r="3"/>
  <circle class="st9" cx="304.5" cy="484.2" r="3"/>
  <path class="st9" d="M343.1,362.7v27.5h-69c-7.6.3-14-5.7-14.2-13.3-.3-7.6,5.7-14,13.3-14.2.3,0,.6,0,1,0h69Z"/>
  <path class="st3" d="M344.8,390c0,.6-.5,1.1-1.1,1.1h-70.8c-8,0-14.5-6.5-14.5-14.5,0-8,6.5-14.5,14.5-14.5h70.8c.6,0,1.1.5,1.1,1.1s-.5,1.1-1.1,1.1h-70.8c-6.8,0-12.4,5.6-12.4,12.4,0,6.8,5.5,12.4,12.4,12.4h70.8c.6,0,1.1.5,1.1,1.1Z"/>
  <path class="st10" d="M343.1,369h-74.1c-.1,0-.2,0-.2-.2s0-.2.2-.2h74.1c.1,0,.2,0,.2.2,0,.1,0,.2-.2.2h0Z"/>
  <path class="st10" d="M343.1,374.1h-74.1c-.1,0-.2,0-.2-.2s0-.2.2-.2h74.1c.1,0,.2,0,.2.2,0,.1,0,.2-.2.2h0Z"/>
  <path class="st10" d="M343.1,379.2h-74.1c-.1,0-.2,0-.2-.2s0-.2.2-.2h74.1c.1,0,.2,0,.2.2,0,.1,0,.2-.2.2h0Z"/>
  <path class="st10" d="M343.1,384.3h-74.1c-.1,0-.2,0-.2-.2s0-.2.2-.2h74.1c.1,0,.2,0,.2.2,0,.1,0,.2-.2.2h0Z"/>
  <path class="st7" d="M250.1,183V7.5c0-4.2,3.4-7.5,7.5-7.5h138.7c4.2,0,7.5,3.4,7.5,7.5v175.5c0,4.2-3.4,7.5-7.5,7.5h-138.7c-4.2,0-7.5-3.4-7.5-7.5ZM257.6,1.7c-3.2,0-5.8,2.6-5.9,5.9v175.5c0,3.2,2.6,5.8,5.9,5.9h138.7c3.2,0,5.8-2.6,5.8-5.9V7.5c0-3.2-2.6-5.8-5.8-5.9h-138.7Z"/>
  <path class="st8" d="M334.8,80.6v-36c0-2.1,1.7-3.8,3.8-3.8h30.5c2.1,0,3.8,1.7,3.8,3.8v36c0,2.1-1.7,3.8-3.8,3.8h-30.5c-2.1,0-3.8-1.7-3.8-3.8Z"/>
  <path class="st10" d="M275.4,97.3v-36c0-2.1,1.7-3.8,3.8-3.8h30.5c2.1,0,3.8,1.7,3.8,3.8v36c0,2.1-1.7,3.8-3.8,3.8h-30.5c-2.1,0-3.8-1.7-3.8-3.8Z"/>
  <path class="st4" d="M323.1,148.3v-36c0-2.1,1.7-3.8,3.8-3.8h30.5c2.1,0,3.8,1.7,3.8,3.8v36c0,2.1-1.7,3.8-3.8,3.8h-30.5c-2.1,0-3.8-1.7-3.8-3.8Z"/>
  <path class="st3" d="M505.6,313h-31.4c-.3,0-.6,0-.9.2l-7.9,4c-.7.3-1.1,1.2-.8,1.9.1.3.4.6.8.8l7.9,4c.3.1.6.2.9.2h31.4c.9,0,1.7-.6,1.7-1.5v-7.9c0-.9-.8-1.6-1.7-1.5Z"/>
  <path class="st8" d="M507.3,314.6v7.9c0,.9-.8,1.6-1.7,1.5h-6.3v-11h6.3c.9,0,1.7.6,1.7,1.5Z"/>
  <path class="st11" d="M505.3,253.6c5.6-2.4,12.1.2,14.5,5.7.2.4.3.8.4,1.2.1.5.2.9.3,1.4l43.9,21.8,10.2-6.7,12.7,14.6-15.5,12.6c-3.8,3.1-9.2,3.3-13.3.5l-44.6-30.8c-.3.1-.7.3-1,.4-5.8,1.8-12-1.5-13.7-7.3-.1-.4-.2-.8-.3-1.2,0-.4-.1-.9-.2-1.3-.3-4.6,2.4-8.9,6.6-10.7Z"/>
  <path class="st3" d="M596.8,387.8h-48c0,1.4-49.5,2.5-49.5,2.5-.8.6-1.5,1.3-2.1,2-1.9,2.2-2.9,5.1-2.9,8v2c0,6.9,5.6,12.5,12.5,12.5h90c6.9,0,12.5-5.6,12.5-12.5v-2c0-6.9-5.6-12.5-12.5-12.5Z"/>
  <rect class="st3" x="544.6" y="414.3" width="13" height="84"/>
  <path class="st3" d="M507.6,497.8c0,1.4,19.7.5,44,.5s44,.9,44-.5-19.7-12.5-44-12.5-44,11.1-44,12.5Z"/>
  <polygon class="st11" points="519.4 488 507.1 488 501.3 456.2 519.4 456.2 519.4 488"/>
  <path class="st0" d="M522.5,499.9h-39.5v-.5c0-8.5,6.9-15.4,15.4-15.4h24.1s0,15.9,0,15.9Z"/>
  <path class="st5" d="M501,468.3l-24.4-54.8c-4.2-9.6-.4-20.8,8.8-25.8l53-28.4,24.2-2.1,22.3-2,.2.3c.2.3,5,8.6,1.8,17.7-2.5,6.9-8.9,12.3-19,16-23.7,8.7-51.1,16.1-61.8,18.9-1,.2-1.8.9-2.2,1.8-.5.9-.5,1.9-.2,2.8l22.7,51c.9,2.3-.3,4.9-2.7,5.8-.4.1-.7.2-1.1.3l-17,1.2c-.1,0-.3,0-.4,0-1.8,0-3.4-1-4.1-2.7Z"/>
  <polygon class="st11" points="525.4 488 513.1 488 507.3 456.2 525.4 456.2 525.4 488"/>
  <path class="st0" d="M528.5,499.9h-39.5v-.5c0-8.5,6.9-15.4,15.4-15.4h24.1s0,15.9,0,15.9Z"/>
  <path class="st5" d="M508,471.3l-24.4-54.8c-4.2-9.6-.4-20.8,8.8-25.8l53-28.4,24.2-2.1,22.3-2,.2.3c.2.3,5,8.6,1.8,17.7-2.5,6.9-8.9,12.3-19,16-23.7,8.7-51.1,16.1-61.8,18.9-1,.2-1.8.9-2.2,1.8-.5.9-.5,1.9-.2,2.8l22.7,51c.9,2.3-.3,4.9-2.7,5.8-.4.1-.7.2-1.1.3l-17,1.2c-.1,0-.3,0-.4,0-1.8,0-3.4-1-4.1-2.7Z"/>
  <path class="st10" d="M495.8,303.8c-10.3-13.7-18.4-28.8-24.1-44.9-.7-2,.2-4.2,2-5.2l35.1-18.8c1.2-.6,2.5-.7,3.7-.2,1.2.5,2.1,1.6,2.5,2.9,4.1,15.5,11.8,29.9,22.4,41.9.9,1,1.3,2.3,1,3.6-.2,1.3-1,2.4-2.2,3l-35.1,18.8c-1.9,1-4.2.5-5.4-1.2Z"/>
  <path class="st9" d="M498.2,302c.4.5,1.1.6,1.6.3l35.1-18.8c.3-.2.6-.5.7-.9,0-.4,0-.8-.3-1.1-11-12.4-18.9-27.1-23.1-43.1,0-.4-.4-.7-.8-.9-.4-.2-.8-.1-1.1,0l-35.1,18.8c-.5.3-.8.9-.6,1.5,5.6,15.8,13.6,30.7,23.6,44.1Z"/>
  <path class="st8" d="M612.6,298.8l-27.5,10.5-6.7-18.7c-1.8-5.1.3-10.8,5-13.5h0c4.8-2.7,10.8-1.5,14.3,2.8l15,18.9Z"/>
  <path class="st8" d="M542.6,372.8c-1.2-.8-1.9-2.1-2.1-3.5-3.5-32.9-1.1-58.7,7.5-78.7,3.1-7,9.2-12.2,16.6-14.2l22.2-1.1h.1c10.3,5.1,16.1,16.3,14.2,27.6-7.2,18.9-13.1,38.5-8.6,54.3.4,1.3.2,2.8-.5,4-.7,1.2-1.8,2-3.1,2.3l-42.4,10.1c-1.4.3-2.9,0-4-.8h0Z"/>
  <circle class="st11" cx="579.4" cy="242.3" r="24.6"/>
  <path class="st10" d="M511.2,261.8l-19.1,8.4c-1.5.7-3.3,0-4-1.5l-.5-1.1c-.7-1.5,0-3.3,1.5-4l19.1-8.4c1.5-.7,3.3,0,4,1.5l.5,1.1c.7,1.5,0,3.3-1.5,4Z"/>
  <path class="st10" d="M518.2,274.8l-19.1,8.4c-1.5.7-3.3,0-4-1.5l-.5-1.1c-.7-1.5,0-3.3,1.5-4l19.1-8.4c1.5-.7,3.3,0,4,1.5l.5,1.1c.7,1.5,0,3.3-1.5,4Z"/>
  <path class="st11" d="M533,325.6l-42.7-33.7c-.3.1-.7.2-1,.3-3,.7-6.3,0-8.8-1.7-2.6-1.8-4.3-4.6-4.6-7.7-.6-5.1,2.4-9.9,7.2-11.6,5.7-2.1,12,.9,14.1,6.6.1.4.3.8.4,1.2.1.5.2,1,.2,1.5l42.5,24.5,10.6-6.1,11.7,15.3-16.4,11.7c-3.9,2.8-9.3,2.7-13.1-.3Z"/>
  <path class="st8" d="M567.7,318.9l-24.3-16.6,11.4-16.2c3.1-4.4,9-6,13.9-3.6h0c5,2.4,7.5,8,5.9,13.3l-6.9,23.1Z"/>
  <path class="st0" d="M570.4,238.7c-6.3,4.3-14.6,8.8-21,4.2-4.2-3-5.6-8.6-3.9-13.5,3.1-8.8,11.6-12.7,19.7-15.7,10.5-3.9,22-7,32.9-4.2s20.5,13.3,18.5,24.4c-1.6,8.9-10,16.3-8.8,25.2,1.2,9,11.3,13.8,20.3,15.4s19,2.1,25.4,8.6c8.2,8.2,6.2,22.9-1.6,31.5s-19.4,12.6-30.7,15.2c-15,3.5-31.1,5.4-45.3-.5s-25.3-21.7-21.1-36.5c1.7-6.3,5.8-11.5,9.8-16.7s8-10.5,9.5-16.8c1.3-5.3.3-11.4-3.2-15.3-1.3-1.4-1.5-3.5-.6-5.2h0Z"/>
  <path class="st12" d="M109.1,358c-12.9,4.5-27.2,2-37.7-6.6-13.2-11.1-17.4-29.4-20.7-46.3-3.3-16.7-6.6-33.4-10-50l20.9,14.4c15,10.3,30.4,21,40.8,36s14.9,35.4,6.6,51.6"/>
  <path class="st1" d="M107.3,418.6c2.1-15.4,4.3-31,2.8-46.5-1.3-13.8-5.5-27.3-14.1-38.4-4.6-5.9-10.1-10.9-16.4-14.8-1.6-1-3.1,1.6-1.5,2.6,10.9,6.9,19.3,17,24,29,5.2,13.3,6.1,27.8,5.2,41.9-.5,8.5-1.7,17-2.9,25.5-.2.8.3,1.6,1,1.8.8.2,1.6-.3,1.8-1h0Z"/>
  <path class="st12" d="M86.9,391.3c-5.5,8.4-15,13.3-25.1,12.9-12.7-.6-23.3-9.5-32.8-17.9L1,361.6l18.6-.9c13.4-.6,27.1-1.2,39.9,2.9s24.5,14.1,26.9,27.3"/>
  <path class="st1" d="M113.3,427.4c-10.2-18-22-38-43-44.4-5.9-1.8-12-2.4-18.1-1.9-1.9.2-1.4,3.1.5,3,10.2-.8,20.4,1.9,28.9,7.6,8.1,5.5,14.5,13.3,19.9,21.4,3.3,5,6.2,10.2,9.2,15.4.9,1.7,3.7.5,2.7-1.2h0Z"/>
  <path class="st1" d="M129.5,446.4c-.7-8.1-5.8-15.1-13.3-18.2v-10.4h-17.4v10.7c-7.1,3.3-11.9,10.1-12.6,17.9l-4.1,47.7h51.6l-4.1-47.7Z"/>
</svg>