<?xml version="1.0" encoding="utf-8"?>
<!-- Generator: Adobe Illustrator 28.2.0, SVG Export Plug-In . SVG Version: 6.00 Build 0)  -->
<svg version="1.1" id="Layer_1" xmlns="http://www.w3.org/2000/svg" xmlns:xlink="http://www.w3.org/1999/xlink" x="0px" y="0px"
	 viewBox="0 0 717.7 454" style="enable-background:new 0 0 717.7 454;" xml:space="preserve">
<style type="text/css">
	.st0{fill:#56321B;}
	.st1{fill:#B3886E;}
	.st2{fill:#EAD8CD;}
	.st3{fill:#FFFFFF;}
	.st4{fill:#3F3D56;}
	.st5{fill:#E6E6E6;}
	.st6{fill:#F5ECE6;}
	.st7{fill:#268184;}
</style>
<path class="st0" d="M272,71.5c-1,1.3-2.8,1.8-4.3,1.3c-0.2-0.1-0.5-0.2-0.7-0.2c0.2-2.7,0.1-5.4-0.4-8c-0.2,2.3-0.7,4.5-1.6,6.6
	c-0.7-0.7-1.3-1.6-1.8-2.5c-0.8-1.9-1.4-4-1.6-6c-1.2-7.1-2.4-14.5-0.4-21.4c2.9-10.1,12-17.4,15.7-27.2l1.9-1.7
	c3.2,5.4,3.3,12.2,2,18.4s-3.9,12-6,18s-3.6,12.3-2.7,18.6C272.4,68.6,272.8,70.2,272,71.5z"/>
<polygon class="st1" points="230.5,157.1 218.3,212.8 271.5,230.1 263.6,157.1 "/>
<path class="st2" d="M605.7,452.6h24.1V342.1c-0.1-59.4-48.2-107.5-107.5-107.5h-224c-59.4,0.1-107.5,48.2-107.5,107.5v110.5h24.1
	v-75.5c0.1-59.9,48.6-108.5,108.5-108.5h173.7c59.9,0.1,108.5,48.6,108.5,108.5v75.5H605.7z"/>
<path class="st2" d="M312.9,394.8l-25.7-7.8c-1.7-6.9-2.5-13.9-2.5-21c0-4.6,3.8-8.4,8.5-8.3c2,0,3.9,0.7,5.4,2
	c13.8,11.8,33.9,18.1,47,31.6c10.9,11.5,16,27.3,13.9,42.9l5.6,18.2c-25.5-1.8-48.8-14.7-64-35.3c-4.1-5.7-7.5-12-10.1-18.6
	C301.8,397.3,312.9,394.8,312.9,394.8z"/>
<path class="st2" d="M379.8,424.6l13.1-4c0-0.1,0-0.1,0.1-0.2c1-4.5-1.8-9-6.3-10.1c-2.1-0.5-4.3-0.1-6.1,1
	c-5.9,3.5-12.5,6.6-17.3,11.5c-5.6,5.8-8.2,13.9-7.1,21.9l-2.9,9.3c13-0.9,24.9-7.5,32.6-18c2.1-2.9,3.8-6.1,5.2-9.5
	C385.5,425.9,379.8,424.6,379.8,424.6z"/>
<path class="st0" d="M485.8,153.1h-51c-1.5,0-2.7,1.2-2.7,2.7v80.6h56.4v-80.6C488.6,154.4,487.4,153.1,485.8,153.1
	C485.9,153.1,485.8,153.1,485.8,153.1z M460.5,198.9c-3.3,0-6-2.7-6-6v-9.3c0-3.3,2.7-6,6-6s6,2.7,6,6l0,0v9.3
	C466.5,196.2,463.8,198.9,460.5,198.9z"/>
<path class="st0" d="M570.3,27.4h-218c-3.9,0-7.1,3.2-7.1,7.1v147.1c0,3.9,3.2,7.1,7.1,7.1h218c3.9,0,7.1-3.2,7.1-7.1V34.5
	C577.4,30.6,574.2,27.4,570.3,27.4z"/>
<path class="st3" d="M568.5,32.5H354.1c-2.1,0-3.8,1.7-3.8,3.8v143.5c0,2.1,1.7,3.8,3.8,3.8h214.4c2.1,0,3.8-1.7,3.8-3.8V36.3
	C572.3,34.2,570.6,32.5,568.5,32.5z"/>
<path class="st4" d="M432,233.9v7.8c0,0.8,0.7,1.5,1.5,1.5h53.8c0.8,0,1.5-0.7,1.5-1.5v-7.8H432z"/>
<path class="st0" d="M526.7,245.8H399.2c-1.3,0-2.3-1.1-2.3-2.3c0-0.2,0-0.3,0.1-0.5l2-9.4c0.2-1.1,1.2-1.9,2.3-1.9h123.6
	c1.1,0,2.1,0.8,2.3,1.9l2,9.4c0.3,1.3-0.5,2.5-1.8,2.8C527.1,245.8,526.9,245.8,526.7,245.8z"/>
<path class="st5" d="M402.6,233.4h3c0.3,0,0.5,0.2,0.5,0.5v1.4c0,0.3-0.2,0.5-0.5,0.5h-3c-0.3,0-0.5-0.2-0.5-0.5v-1.4
	C402.1,233.7,402.3,233.4,402.6,233.4z"/>
<path class="st5" d="M410.4,233.4h3c0.3,0,0.5,0.2,0.5,0.5v1.4c0,0.3-0.2,0.5-0.5,0.5h-3c-0.3,0-0.5-0.2-0.5-0.5v-1.4
	C409.9,233.7,410.1,233.4,410.4,233.4z"/>
<path class="st5" d="M418.3,233.4h3c0.3,0,0.5,0.2,0.5,0.5v1.4c0,0.3-0.2,0.5-0.5,0.5h-3c-0.3,0-0.5-0.2-0.5-0.5v-1.4
	C417.8,233.7,418,233.4,418.3,233.4z"/>
<path class="st5" d="M426.1,233.4h3c0.3,0,0.5,0.2,0.5,0.5v1.4c0,0.3-0.2,0.5-0.5,0.5h-3c-0.3,0-0.5-0.2-0.5-0.5v-1.4
	C425.6,233.7,425.9,233.4,426.1,233.4z"/>
<path class="st5" d="M434,233.4h3c0.3,0,0.5,0.2,0.5,0.5v1.4c0,0.3-0.2,0.5-0.5,0.5h-3c-0.3,0-0.5-0.2-0.5-0.5v-1.4
	C433.5,233.7,433.7,233.4,434,233.4z"/>
<path class="st5" d="M441.8,233.4h3c0.3,0,0.5,0.2,0.5,0.5v1.4c0,0.3-0.2,0.5-0.5,0.5h-3c-0.3,0-0.5-0.2-0.5-0.5v-1.4
	C441.3,233.7,441.6,233.4,441.8,233.4z"/>
<path class="st5" d="M449.7,233.4h3c0.3,0,0.5,0.2,0.5,0.5v1.4c0,0.3-0.2,0.5-0.5,0.5h-3c-0.3,0-0.5-0.2-0.5-0.5v-1.4
	C449.2,233.7,449.4,233.4,449.7,233.4z"/>
<path class="st5" d="M457.6,233.4h3c0.3,0,0.5,0.2,0.5,0.5v1.4c0,0.3-0.2,0.5-0.5,0.5h-3c-0.3,0-0.5-0.2-0.5-0.5v-1.4
	C457.1,233.7,457.3,233.4,457.6,233.4z"/>
<path class="st5" d="M465.4,233.4h3c0.3,0,0.5,0.2,0.5,0.5v1.4c0,0.3-0.2,0.5-0.5,0.5h-3c-0.3,0-0.5-0.2-0.5-0.5v-1.4
	C464.9,233.7,465.1,233.4,465.4,233.4z"/>
<path class="st5" d="M473.3,233.4h3c0.3,0,0.5,0.2,0.5,0.5v1.4c0,0.3-0.2,0.5-0.5,0.5h-3c-0.3,0-0.5-0.2-0.5-0.5v-1.4
	C472.8,233.7,473,233.4,473.3,233.4z"/>
<path class="st5" d="M481.1,233.4h3c0.3,0,0.5,0.2,0.5,0.5v1.4c0,0.3-0.2,0.5-0.5,0.5h-3c-0.3,0-0.5-0.2-0.5-0.5v-1.4
	C480.6,233.7,480.9,233.4,481.1,233.4z"/>
<path class="st5" d="M489,233.4h3c0.3,0,0.5,0.2,0.5,0.5v1.4c0,0.3-0.2,0.5-0.5,0.5h-3c-0.3,0-0.5-0.2-0.5-0.5v-1.4
	C488.5,233.7,488.7,233.4,489,233.4z"/>
<path class="st5" d="M496.8,233.4h3c0.3,0,0.5,0.2,0.5,0.5v1.4c0,0.3-0.2,0.5-0.5,0.5h-3c-0.3,0-0.5-0.2-0.5-0.5v-1.4
	C496.3,233.7,496.6,233.4,496.8,233.4z"/>
<path class="st5" d="M504.7,233.4h3c0.3,0,0.5,0.2,0.5,0.5v1.4c0,0.3-0.2,0.5-0.5,0.5h-3c-0.3,0-0.5-0.2-0.5-0.5v-1.4
	C504.2,233.7,504.4,233.4,504.7,233.4z"/>
<path class="st5" d="M512.5,233.4h3c0.3,0,0.5,0.2,0.5,0.5v1.4c0,0.3-0.2,0.5-0.5,0.5h-3c-0.3,0-0.5-0.2-0.5-0.5v-1.4
	C512.1,233.7,512.3,233.4,512.5,233.4z"/>
<path class="st5" d="M520.4,233.4h3c0.3,0,0.5,0.2,0.5,0.5v1.4c0,0.3-0.2,0.5-0.5,0.5h-3c-0.3,0-0.5-0.2-0.5-0.5v-1.4
	C519.9,233.7,520.1,233.4,520.4,233.4z"/>
<path class="st5" d="M402.5,237.4h3c0.3,0,0.5,0.2,0.5,0.5v1.4c0,0.3-0.2,0.5-0.5,0.5h-3c-0.3,0-0.5-0.2-0.5-0.5v-1.4
	C402,237.6,402.2,237.4,402.5,237.4z"/>
<path class="st5" d="M410.3,237.4h3c0.3,0,0.5,0.2,0.5,0.5v1.4c0,0.3-0.2,0.5-0.5,0.5h-3c-0.3,0-0.5-0.2-0.5-0.5v-1.4
	C409.8,237.6,410,237.4,410.3,237.4z"/>
<path class="st5" d="M418.2,237.4h3c0.3,0,0.5,0.2,0.5,0.5v1.4c0,0.3-0.2,0.5-0.5,0.5h-3c-0.3,0-0.5-0.2-0.5-0.5v-1.4
	C417.7,237.6,417.9,237.4,418.2,237.4z"/>
<path class="st5" d="M426,237.4h3c0.3,0,0.5,0.2,0.5,0.5v1.4c0,0.3-0.2,0.5-0.5,0.5h-3c-0.3,0-0.5-0.2-0.5-0.5v-1.4
	C425.5,237.6,425.8,237.4,426,237.4z"/>
<path class="st5" d="M433.9,237.4h3c0.3,0,0.5,0.2,0.5,0.5v1.4c0,0.3-0.2,0.5-0.5,0.5h-3c-0.3,0-0.5-0.2-0.5-0.5v-1.4
	C433.4,237.6,433.6,237.4,433.9,237.4z"/>
<path class="st5" d="M441.7,237.4h3c0.3,0,0.5,0.2,0.5,0.5v1.4c0,0.3-0.2,0.5-0.5,0.5h-3c-0.3,0-0.5-0.2-0.5-0.5v-1.4
	C441.3,237.6,441.5,237.4,441.7,237.4z"/>
<path class="st5" d="M449.6,237.4h3c0.3,0,0.5,0.2,0.5,0.5v1.4c0,0.3-0.2,0.5-0.5,0.5h-3c-0.3,0-0.5-0.2-0.5-0.5v-1.4
	C449.1,237.6,449.3,237.4,449.6,237.4z"/>
<path class="st5" d="M457.5,237.4h3c0.3,0,0.5,0.2,0.5,0.5v1.4c0,0.3-0.2,0.5-0.5,0.5h-3c-0.3,0-0.5-0.2-0.5-0.5v-1.4
	C457,237.6,457.2,237.4,457.5,237.4z"/>
<path class="st5" d="M465.3,237.4h3c0.3,0,0.5,0.2,0.5,0.5v1.4c0,0.3-0.2,0.5-0.5,0.5h-3c-0.3,0-0.5-0.2-0.5-0.5v-1.4
	C464.8,237.6,465,237.4,465.3,237.4z"/>
<path class="st5" d="M473.2,237.4h3c0.3,0,0.5,0.2,0.5,0.5v1.4c0,0.3-0.2,0.5-0.5,0.5h-3c-0.3,0-0.5-0.2-0.5-0.5v-1.4
	C472.7,237.6,472.9,237.4,473.2,237.4z"/>
<path class="st5" d="M481,237.4h3c0.3,0,0.5,0.2,0.5,0.5v1.4c0,0.3-0.2,0.5-0.5,0.5h-3c-0.3,0-0.5-0.2-0.5-0.5v-1.4
	C480.5,237.6,480.8,237.4,481,237.4z"/>
<path class="st5" d="M488.9,237.4h3c0.3,0,0.5,0.2,0.5,0.5v1.4c0,0.3-0.2,0.5-0.5,0.5h-3c-0.3,0-0.5-0.2-0.5-0.5v-1.4
	C488.4,237.6,488.6,237.4,488.9,237.4z"/>
<path class="st5" d="M496.7,237.4h3c0.3,0,0.5,0.2,0.5,0.5v1.4c0,0.3-0.2,0.5-0.5,0.5h-3c-0.3,0-0.5-0.2-0.5-0.5v-1.4
	C496.3,237.6,496.5,237.4,496.7,237.4z"/>
<path class="st5" d="M504.6,237.4h3c0.3,0,0.5,0.2,0.5,0.5v1.4c0,0.3-0.2,0.5-0.5,0.5h-3c-0.3,0-0.5-0.2-0.5-0.5v-1.4
	C504.1,237.6,504.3,237.4,504.6,237.4z"/>
<path class="st5" d="M512.5,237.4h3c0.3,0,0.5,0.2,0.5,0.5v1.4c0,0.3-0.2,0.5-0.5,0.5h-3c-0.3,0-0.5-0.2-0.5-0.5v-1.4
	C512,237.6,512.2,237.4,512.5,237.4z"/>
<path class="st5" d="M520.3,237.4h3c0.3,0,0.5,0.2,0.5,0.5v1.4c0,0.3-0.2,0.5-0.5,0.5h-3c-0.3,0-0.5-0.2-0.5-0.5v-1.4
	C519.8,237.6,520,237.4,520.3,237.4z"/>
<path class="st5" d="M440.2,242.1h30.5c0.3,0,0.5,0.2,0.5,0.5v1.4c0,0.3-0.2,0.5-0.5,0.5h-30.5c-0.3,0-0.5-0.2-0.5-0.5v-1.4
	C439.7,242.3,439.9,242.1,440.2,242.1z"/>
<path class="st6" d="M536.5,68.5V144c0,10.5-8.5,19.1-19.1,19.1h-94.5c-7.6,0-14.5-4.5-17.5-11.5c-0.5-1.1-0.9-2.3-1.1-3.5
	c2,0.8,4.1,1.2,6.3,1.2h94.5c9.7,0,17.6-7.9,17.6-17.6V56.2c0-2.2-0.4-4.3-1.2-6.3c1.2,0.3,2.4,0.6,3.5,1.1
	C532,54,536.5,60.9,536.5,68.5z"/>
<polygon class="st1" points="183.9,369 174.5,374.8 146.9,340.8 160.7,332.3 "/>
<path class="st0" d="M192,381.1l-7.5,3.4L180,378l-0.3,8.7l-20,8.9c-2.5,1.1-5.4,0-6.5-2.5c-0.7-1.5-0.6-3.2,0.3-4.6l11-18.2
	l-3.2-7.2l17.2-6.5L192,381.1z"/>
<path class="st0" d="M157.6,362.4l15.8-15.3c-11.8-29-12.7-47-29-82.1c38.7,7.9,66.4,7.4,98.4,0.3c10.8-2.4,38.8-24,36.5-35
	c-0.1-0.5-0.2-1-0.4-1.5c-3.4-11.7-1-29.6-8.5-42.6c-13.8-5.2-34.7,12.3-51,23c-7.9,5.1-2.1,12.2-8,14l-22.6,7.3l-55.4-8.9
	c-11.2-1.7-21.7,6-23.4,17.2c0,0.1,0,0.1,0,0.2c-0.1,0.6-0.2,1.2-0.2,1.8c2.5,14.1,5.2,27.8,8.1,40.9c0.9,4.2-0.6,12.3,2.8,12.4
	s2.1,8.5,3.2,12.5C130.7,331.6,134.9,343.7,157.6,362.4z"/>
<polygon class="st1" points="127.3,429.7 117.6,424.6 133,383.7 147.4,391.2 "/>
<path class="st0" d="M125.7,399.2l15.7,10.8c19.2-27.8,31.7-64.9,40.9-106.4c36.1-15.8,67.8-33.8,89.8-58c7.5-8.4,7-21.3-1.2-29.1
	c-0.4-0.4-0.8-0.7-1.2-1c-9.5-7.6-30.7-3.2-44.3-9.6l-24.2,33.5l2.8,7.8l-8.4,4.1l-7.1,3.5l-8.1,4l-26.7,13
	c-10.1,5.1-14.2,17.4-9.2,27.5c0,0,0,0.1,0.1,0.1c0.3,0.5,0.6,1.1,0.9,1.6l-9.9,49.4c0,0,2.7,8.6-1.6,7.8s-2,9.7-2,9.7L125.7,399.2z
	"/>
<path class="st0" d="M121.4,452.3l-7.3-3.8l2.3-7.6l-7,5.2L90,435.9c-2.4-1.3-3.3-4.2-2.1-6.6c0.7-1.4,2.2-2.4,3.8-2.6l21.1-2.6
	l3.6-7l15.8,9.5L121.4,452.3z"/>
<path class="st1" d="M334.9,237.7l-11.4-27.6l-9,5l5.4,28.1c-1.6,5.3,1.4,10.9,6.6,12.5c5.3,1.6,10.9-1.4,12.5-6.6
	C340.3,244.8,338.6,240.1,334.9,237.7z"/>
<path class="st1" d="M143.2,19.4l17.4,24.3l7.6-6.9l-11.7-26.1c0.4-5.5-3.8-10.3-9.3-10.7s-10.3,3.8-10.7,9.3
	C136.3,13.8,139,17.9,143.2,19.4L143.2,19.4z"/>
<path class="st7" d="M221.7,173.4c-11.3,17.5,30,55.6,51.8,46.7c3.8-1.6,16.9-6.7,8-13.9s1,0.9,1.3-3.8c0.2-3.1-2.2-9.9,0.3-9.6
	s4-7-1.5-8.8c-3.9-1.4-6.6-4.9-7-9c-0.5-19.2,6-39.2,6-39.2l26.5,67.7c0,0-0.2,11.7,3.2,8.1s3.1,8,3.1,8s5,3.5,2.1,5.5s3.1,8,3.1,8
	l14-1c0,0-0.2-10.4-2.6-12.7s-1.2-5.9-1.2-5.9s-4.9-4.6-2.1-10s-21-102-21-102c-1.9-9.5-9-17.1-18.4-19.6l-15.1-4.2L269.5,67h-21.3
	l-3.7,7l-34-3c0,0-33.6-30.6-32-33s-3.6-8-3.6-8s-4.5-1.5-1.9-2.2s-2.2-2.6-2.2-2.6s-4.4-1.2-2.3-2.7s-6.9-2.5-6.9-2.5l-11.7,9.5
	l2.4,4c0,0-1.4,5.4,0.4,3.5s2.2,3.8,2.2,3.8s1,6.3,6.6,8.2s10,20,10,20l48,40c-7.3,8.4-5.6,17.2,0.9,26.1L221.7,173.4z"/>
<circle class="st1" cx="258.3" cy="37" r="23.1"/>
<path class="st0" d="M278.5,30.1c-0.6,0.2-9.2,1.3-13,2c-3.7,0.7-4.3-4-7.3-3.1c0,0,0,0,0-0.1c-0.5-2.5-1.3-4.9-2.4-7.2
	c0.4,2.2,0.5,4.4,0.2,6.6c0,0.1,0,0.1,0,0.2s0,0.2,0,0.3c-3.2-1.4-5.2-0.1-7.4,0.3c-2.5,0.5-4.4,1.6-3,10c2.8,17.3,17.6,23.5,15,35
	c-0.5,2.3-1.8,5.1-3.3,5.8c-0.5-2.5-1.3-4.9-2.4-7.2c0.4,2.2,0.5,4.4,0.2,6.6c-2.5-2.6-4.2-11.9-12.5-19.2c-2-1.8-12.2-12.5-13.4-15
	c0.4,2,0.6,4.1,0.5,6.1c0,1.4-0.1,2.7-0.3,4.1c0,0.1,0,0.2,0,0.3c0,0.2,0,0.3-0.1,0.5c0,0.2,0,0.3-0.1,0.5c-3.3-0.5-6.3-1.1-7.7-2.4
	c-6.8-6.6,1.5-19.4,6-31c6.5-16.6,25.2-18.8,27-19c8-0.8,21.6,0.9,26,10C283.6,20.5,281.6,29.2,278.5,30.1z"/>
<path class="st0" d="M229.9,33.8l16.7-26c-4-2.3-8.6-3.5-13.2-3.5c-4.7,0.1-9.1,2.2-12.1,5.7c-3.4,4.2-4,10.2-2.7,15.5
	c0.4,1.8,8.8-4.6,6.8-1.6c-1.6,2.3-4.3,12.2-5,15c-1.1,4.5-4.1,9.1-1.4,12.8c3.1,4.4,8.7,6.7,14.2,6.9s10.8-1.3,16-3L229.9,33.8z"/>
<path class="st7" d="M236.3,32.8c-0.6,0-1-0.4-1-1c0-0.4,0.3-0.8,0.7-1c0.3-0.4,0.2-2.3,0.1-3.7c-0.3-5.5-0.9-14.8,8.1-21
	c0.5-0.3,1.1-0.2,1.4,0.2s0.2,1.1-0.2,1.4l0,0c-8.1,5.6-7.6,13.8-7.3,19.3c0.2,3.1,0.3,5.4-1.6,5.8
	C236.4,32.8,236.3,32.8,236.3,32.8z"/>
<path class="st6" d="M0,452c0,0.7,0.5,1.2,1.2,1.2h715.3c0.7,0,1.2-0.5,1.2-1.2s-0.5-1.2-1.2-1.2H1.2C0.5,450.8,0,451.3,0,452L0,452
	L0,452z"/>
<path class="st7" d="M442.5,94.8h-15.1c-0.8,0-1.5-0.7-1.5-1.5s0.7-1.5,1.5-1.5h15.1c0.8,0,1.5,0.7,1.5,1.5S443.4,94.8,442.5,94.8z"
	/>
<path class="st7" d="M469.8,94.8h-15.1c-0.8,0-1.5-0.7-1.5-1.5s0.7-1.5,1.5-1.5h15.1c0.8,0,1.5,0.7,1.5,1.5S470.6,94.8,469.8,94.8
	L469.8,94.8z"/>
<path class="st7" d="M483.4,107h-15.1c-0.8,0-1.5-0.7-1.5-1.5s0.7-1.5,1.5-1.5h15.1c0.8,0,1.5,0.7,1.5,1.5S484.2,107,483.4,107z"/>
<path class="st7" d="M456.2,107h-28.8c-0.8,0-1.5-0.7-1.5-1.5s0.7-1.5,1.5-1.5h28.8c0.8,0,1.5,0.7,1.5,1.5S457.1,107,456.2,107z"/>
<path class="st7" d="M510.7,94.8h-28.8c-0.8,0-1.5-0.7-1.5-1.5s0.7-1.5,1.5-1.5h28.8c0.8,0,1.5,0.7,1.5,1.5S511.5,94.8,510.7,94.8
	L510.7,94.8z"/>
<path class="st7" d="M452.9,71.9h-28.8c-0.8,0-1.5-0.7-1.5-1.5s0.7-1.5,1.5-1.5l0,0h28.8c0.8,0,1.5,0.7,1.5,1.5
	C454.4,71.2,453.7,71.9,452.9,71.9L452.9,71.9z"/>
<path class="st7" d="M455.3,80.8c-0.7,0-1.4-0.6-1.4-1.4c0-0.4,0.2-0.8,0.5-1.1l7.4-5.7c1.2-0.9,1.4-2.6,0.5-3.8
	c0-0.1-0.1-0.1-0.1-0.2l-6.2-6.7c-0.5-0.5-0.5-1.4,0.1-1.9c0.5-0.5,1.4-0.5,1.9,0.1l0,0l9.2,10c0.5,0.5,0.5,1.4-0.1,1.9l-0.1,0.1
	l-10.9,8.5C455.9,80.7,455.6,80.8,455.3,80.8z"/>
<path class="st7" d="M422.6,80.8c0.7,0,1.4-0.6,1.4-1.4c0-0.4-0.2-0.8-0.5-1.1l-7.4-5.7c-1.2-0.9-1.4-2.6-0.5-3.8
	c0-0.1,0.1-0.1,0.1-0.2l6.2-6.7c0.5-0.6,0.5-1.4-0.1-1.9c-0.5-0.5-1.4-0.5-1.9,0.1l-9.2,10c-0.5,0.5-0.5,1.4,0.1,1.9l0.1,0.1
	l10.9,8.5C422,80.7,422.3,80.8,422.6,80.8z"/>
<path class="st7" d="M467.8,132.9H439c-0.8,0-1.5-0.7-1.5-1.5s0.7-1.5,1.5-1.5h28.8c0.8,0,1.5,0.7,1.5,1.5S468.6,132.9,467.8,132.9
	L467.8,132.9L467.8,132.9z"/>
<path class="st7" d="M472.9,140.4c-0.7,0-1.4-0.6-1.4-1.4c0-0.4,0.2-0.8,0.5-1.1l7.4-5.7c1.2-0.9,1.4-2.6,0.5-3.8
	c0-0.1-0.1-0.1-0.1-0.2l-6.2-6.7c-0.5-0.6-0.5-1.4,0.1-1.9c0.5-0.5,1.4-0.5,1.9,0.1l9.2,10c0.5,0.5,0.5,1.4-0.1,1.9l-0.1,0.1
	l-10.9,8.5C473.5,140.3,473.2,140.4,472.9,140.4z"/>
<path class="st7" d="M422.6,140.4c0.7,0,1.4-0.6,1.4-1.4c0-0.4-0.2-0.8-0.5-1.1l-7.4-5.7c-1.2-0.9-1.4-2.6-0.5-3.8
	c0-0.1,0.1-0.1,0.1-0.2l6.2-6.7c0.5-0.5,0.5-1.4-0.1-1.9c-0.5-0.5-1.4-0.5-1.9,0.1l0,0l-9.2,10c-0.5,0.5-0.5,1.4,0.1,1.9l0.1,0.1
	l10.9,8.5C422,140.3,422.3,140.4,422.6,140.4z"/>
<path class="st7" d="M425.2,136.2l6.1-13.9c0.3-0.8,1.2-1.1,2-0.8c0.8,0.3,1.1,1.2,0.8,2l-6.1,13.9c-0.3,0.8-1.2,1.1-2,0.8
	S424.8,136.9,425.2,136.2L425.2,136.2L425.2,136.2z"/>
</svg>
