<?xml version="1.0" encoding="UTF-8"?>
<svg id="Layer_1" xmlns="http://www.w3.org/2000/svg" version="1.1" viewBox="0 0 864.7 682.2">
  <!-- Generator: Adobe Illustrator 29.1.0, SVG Export Plug-In . SVG Version: 2.1.0 Build 142)  -->
  <defs>
    <style>
      .st0 {
        fill: #2b1a11;
      }

      .st1 {
        fill: #ead8cd;
      }

      .st2 {
        fill: #9b9795;
      }

      .st3 {
        fill: #7a7471;
      }

      .st4 {
        fill: #56321c;
      }

      .st5 {
        fill: #d7a038;
      }

      .st6 {
        fill: #dfdddc;
      }

      .st7 {
        fill: #268184;
      }

      .st8 {
        fill: #ab8167;
      }

      .st9 {
        fill: #f7f7f7;
      }

      .st10 {
        fill: #d5b19b;
      }
    </style>
  </defs>
  <path class="st2" d="M522.1,301h-198.1c-11.4,0-20.7-9.3-20.7-20.7V21.7c0-11.4,9.3-20.7,20.7-20.7h198.1c11.4,0,20.7,9.3,20.7,20.7v258.6c0,11.4-9.3,20.7-20.7,20.7Z"/>
  <path class="st7" d="M522.1,302h-198.1c-12,0-21.7-9.7-21.7-21.7V21.7C302.3,9.7,312,0,324,0h198.1c12,0,21.7,9.7,21.7,21.7v258.6c0,12-9.7,21.7-21.7,21.7ZM324,2c-10.9,0-19.7,8.8-19.7,19.7v258.6c0,10.9,8.8,19.7,19.7,19.7h198.1c10.9,0,19.7-8.8,19.7-19.7V21.7c0-10.9-8.8-19.7-19.7-19.7h-198.1Z"/>
  <path class="st2" d="M844,301h-198.1c-11.4,0-20.7-9.3-20.7-20.7V21.7c0-11.4,9.3-20.7,20.7-20.7h198.1c11.4,0,20.7,9.3,20.7,20.7v258.6c0,11.4-9.3,20.7-20.7,20.7Z"/>
  <circle class="st7" cx="419.6" cy="297.2" r="35.8"/>
  <path class="st9" d="M414.7,315.8c-1.3,0-2.4-.6-3.2-1.6l-9.8-13c-1.3-1.8-1-4.3.8-5.6s4.3-1,5.6.8l6.4,8.5,16.4-24.6c1.2-1.8,3.7-2.3,5.5-1.1,1.8,1.2,2.3,3.7,1.1,5.5l-19.5,29.3c-.7,1.1-1.9,1.7-3.2,1.8,0,0,0,0-.1,0Z"/>
  <path class="st3" d="M388.5,439.3H8.5c-4.7,0-8.5-3.8-8.5-8.5V86.8c0-4.7,3.8-8.5,8.5-8.5h380c4.7,0,8.5,3.8,8.5,8.5v344c0,4.7-3.8,8.5-8.5,8.5Z"/>
  <path class="st6" d="M380.5,431.3H16.5c-4.7,0-8.5-3.8-8.5-8.5V94.8c0-4.7,3.8-8.5,8.5-8.5h364c4.7,0,8.5,3.8,8.5,8.5v328c0,4.7-3.8,8.5-8.5,8.5Z"/>
  <path class="st3" d="M35,121.9c42.8-.7,85.7-.9,128.5-.3,42.8.5,85.7,1.7,128.5,3.5,24,1,48,2.2,72,3.7,1.9.1,1.9-2.9,0-3-42.8-2.5-85.6-4.4-128.4-5.7-42.8-1.3-85.7-1.9-128.5-1.8-24,0-48.1.2-72.1.7-1.9,0-1.9,3,0,3h0Z"/>
  <path class="st3" d="M333.5,103.1l18.7-1.4c1.9-.1,1.9-3.1,0-3l-18.7,1.4c-1.9.1-1.9,3.1,0,3Z"/>
  <path class="st3" d="M333.5,121.1l18.7-1.4c1.9-.1,1.9-3.1,0-3l-18.7,1.4c-1.9.1-1.9,3.1,0,3Z"/>
  <path class="st3" d="M332.1,112.9l26.6,2.4c1.9.2,1.9-2.8,0-3l-26.6-2.4c-1.9-.2-1.9,2.8,0,3h0Z"/>
  <path class="st3" d="M46.1,99.1c-2.7,0-5.1,1.6-6.1,4-1.2,2.4-.6,5.3,1.4,7.1,1.9,1.6,4.4,2.1,6.7,1.4,2.4-.8,4-3.1,4-5.6.1-2.8-1.6-5.4-4.2-6.5-.8-.2-1.6.3-1.8,1-.2.8.3,1.6,1,1.8.3.1-.2-.1,0,0,.1,0,.2.1.3.2,0,0,.2.1.2.2.3.2-.1-.1,0,0,.2.1.3.3.5.4,0,0,.3.2,0,.1-.1,0,0,0,0,0,0,0,0,.1.1.2.1.2.2.4.3.6,0,0,0,0,0,.1,0,0,.1.1,0,0,0,0,0,0,0,0,0,0,0,.1,0,.2,0,.2.1.4.2.6,0,0,0,.2,0,.3,0,.3,0-.2,0,0,0,.2,0,.4,0,.6,0,0,0,.2,0,.3,0,0,0,0,0,.1,0,.2,0,0,0-.1,0,.2-.1.4-.1.6,0,0,0,.2,0,.3-.1.3,0-.2,0,0,0,.2-.2.4-.3.5,0,0-.2.2,0,.1.2-.1,0,0-.1.1,0,0-.1.1-.2.2,0,0,0,0-.1.1,0,0,.3-.2.1,0-.2.1-.3.2-.5.3,0,0-.3.1-.3.1,0,0,.3-.1,0,0,0,0,0,0-.1,0-.2,0-.4.1-.6.2,0,0,0,0-.1,0-.2,0,.1,0,.2,0-.1,0-.2,0-.3,0-.2,0-.4,0-.6,0,0,0,0,0-.1,0-.1,0-.2,0,0,0,.1,0,.1,0,0,0,0,0,0,0-.1,0-.2,0-.4,0-.6-.2-.1,0-.2,0-.3-.1,0,0,0,0-.1,0,0,0,.3.1.1,0-.2-.1-.4-.2-.6-.3,0,0-.2-.1-.3-.2,0,0,0,0-.1,0,0,0,.2.2.1,0-.2-.1-.3-.3-.5-.4,0,0,0,0,0-.1h0c0-.1,0-.1,0,0,0,0,0,.1,0,0,0,0,0,0,0-.1-.1-.2-.2-.4-.3-.6,0,0,.1.4,0,0,0,0,0-.1,0-.2,0-.1,0-.2,0-.3,0-.1,0-.2,0-.3,0-.2,0,.1,0,.1,0,0,0-.2,0-.2,0-.2,0-.5,0-.7,0-.2,0,.1,0,.1,0,0,0-.1,0-.2,0-.1,0-.2,0-.4,0-.1,0-.3.1-.4,0,0,0-.1,0-.2,0-.2-.1.2,0,0,.1-.2.2-.5.4-.7,0,0,.3-.4.1-.2-.1.2.1-.1.2-.2.2-.2.4-.4.6-.6.1-.1,0,0,0,0,0,0,.1,0,.2-.1.1,0,.2-.1.3-.2.1,0,.3-.1.4-.2.1,0-.1,0-.1,0,0,0,.1,0,.2,0,.1,0,.6-.3.7-.2,0,0-.4,0,0,0,0,0,.1,0,.2,0,.1,0,.3,0,.4,0,.8,0,1.5-.7,1.5-1.5,0-.8-.7-1.5-1.5-1.5h0Z"/>
  <path class="st3" d="M67.1,99.1c-2.7,0-5.1,1.6-6.1,4-1.2,2.4-.6,5.3,1.4,7.1,1.9,1.6,4.4,2.1,6.7,1.4,2.4-.8,4-3.1,4-5.6.1-2.8-1.6-5.4-4.2-6.5-.8-.2-1.6.3-1.8,1-.2.8.3,1.6,1,1.8.3.1-.2-.1,0,0,.1,0,.2.1.3.2,0,0,.2.1.2.2.3.2-.1-.1,0,0,.2.1.3.3.5.4,0,0,.3.2,0,.1-.1,0,0,0,0,0,0,0,0,.1.1.2.1.2.2.4.3.6,0,0,0,0,0,.1,0,0,.1.1,0,0,0,0,0,0,0,0,0,0,0,.1,0,.2,0,.2.1.4.2.6,0,0,0,.2,0,.3,0,.3,0-.2,0,0,0,.2,0,.4,0,.6,0,0,0,.2,0,.3,0,0,0,0,0,.1,0,.2,0,0,0-.1,0,.2-.1.4-.1.6,0,0,0,.2,0,.3-.1.3,0-.2,0,0,0,.2-.2.4-.3.5,0,0-.2.2,0,.1.2-.1,0,0-.1.1,0,0-.1.1-.2.2,0,0,0,0-.1.1,0,0,.3-.2.1,0-.2.1-.3.2-.5.3,0,0-.3.1-.3.1,0,0,.3-.1,0,0,0,0,0,0-.1,0-.2,0-.4.1-.6.2,0,0,0,0-.1,0-.2,0,.1,0,.2,0-.1,0-.2,0-.3,0-.2,0-.4,0-.6,0,0,0,0,0-.1,0-.1,0-.2,0,0,0,.1,0,.1,0,0,0,0,0,0,0-.1,0-.2,0-.4,0-.6-.2-.1,0-.2,0-.3-.1,0,0,0,0-.1,0,0,0,.3.1.1,0-.2-.1-.4-.2-.6-.3,0,0-.2-.1-.3-.2,0,0,0,0-.1,0,0,0,.2.2.1,0-.2-.1-.3-.3-.5-.4,0,0,0,0,0-.1h0c0-.1,0-.1,0,0,0,0,0,.1,0,0,0,0,0,0,0-.1-.1-.2-.2-.4-.3-.6,0,0,.1.4,0,0,0,0,0-.1,0-.2,0-.1,0-.2,0-.3,0-.1,0-.2,0-.3,0-.2,0,.1,0,.1,0,0,0-.2,0-.2,0-.2,0-.5,0-.7,0-.2,0,.1,0,.1,0,0,0-.1,0-.2,0-.1,0-.2,0-.4,0-.1,0-.3.1-.4,0,0,0-.1,0-.2,0-.2-.1.2,0,0,.1-.2.2-.5.4-.7,0,0,.3-.4.1-.2-.1.2.1-.1.2-.2.2-.2.4-.4.6-.6.1-.1,0,0,0,0,0,0,.1,0,.2-.1.1,0,.2-.1.3-.2.1,0,.3-.1.4-.2.1,0-.1,0-.1,0,0,0,.1,0,.2,0,.1,0,.6-.3.7-.2,0,0-.4,0,0,0,0,0,.1,0,.2,0,.1,0,.3,0,.4,0,.8,0,1.5-.7,1.5-1.5,0-.8-.7-1.5-1.5-1.5h0Z"/>
  <path class="st3" d="M88.1,99.1c-2.7,0-5.1,1.6-6.1,4-1.2,2.4-.6,5.3,1.4,7.1,1.9,1.6,4.4,2.1,6.7,1.4,2.4-.8,4-3.1,4-5.6.1-2.8-1.6-5.4-4.2-6.5-.8-.2-1.6.3-1.8,1-.2.8.3,1.6,1,1.8.3.1-.2-.1,0,0,.1,0,.2.1.3.2,0,0,.2.1.2.2.3.2-.1-.1,0,0,.2.1.3.3.5.4,0,0,.3.2,0,.1-.1,0,0,0,0,0,0,0,0,.1.1.2.1.2.2.4.3.6,0,0,0,0,0,.1,0,0,.1.1,0,0,0,0,0,0,0,0,0,0,0,.1,0,.2,0,.2.1.4.2.6,0,0,0,.2,0,.3,0,.3,0-.2,0,0,0,.2,0,.4,0,.6,0,0,0,.2,0,.3,0,0,0,0,0,.1,0,.2,0,0,0-.1,0,.2-.1.4-.1.6,0,0,0,.2,0,.3-.1.3,0-.2,0,0,0,.2-.2.4-.3.5,0,0-.2.2,0,.1.2-.1,0,0-.1.1,0,0-.1.1-.2.2,0,0,0,0-.1.1,0,0,.3-.2.1,0-.2.1-.3.2-.5.3,0,0-.3.1-.3.1,0,0,.3-.1,0,0,0,0,0,0-.1,0-.2,0-.4.1-.6.2,0,0,0,0-.1,0-.2,0,.1,0,.2,0-.1,0-.2,0-.3,0-.2,0-.4,0-.6,0,0,0,0,0-.1,0-.1,0-.2,0,0,0,.1,0,.1,0,0,0,0,0,0,0-.1,0-.2,0-.4,0-.6-.2-.1,0-.2,0-.3-.1,0,0,0,0-.1,0,0,0,.3.1.1,0-.2-.1-.4-.2-.6-.3,0,0-.2-.1-.3-.2,0,0,0,0-.1,0,0,0,.2.2.1,0-.2-.1-.3-.3-.5-.4,0,0,0,0,0-.1h0c0-.1,0-.1,0,0,0,0,0,.1,0,0,0,0,0,0,0-.1-.1-.2-.2-.4-.3-.6,0,0,.1.4,0,0,0,0,0-.1,0-.2,0-.1,0-.2,0-.3,0-.1,0-.2,0-.3,0-.2,0,.1,0,.1,0,0,0-.2,0-.2,0-.2,0-.5,0-.7,0-.2,0,.1,0,.1,0,0,0-.1,0-.2,0-.1,0-.2,0-.4,0-.1,0-.3.1-.4,0,0,0-.1,0-.2,0-.2-.1.2,0,0,.1-.2.2-.5.4-.7,0,0,.3-.4.1-.2-.1.2.1-.1.2-.2.2-.2.4-.4.6-.6.1-.1,0,0,0,0,0,0,.1,0,.2-.1.1,0,.2-.1.3-.2.1,0,.3-.1.4-.2.1,0-.1,0-.1,0,0,0,.1,0,.2,0,.1,0,.6-.3.7-.2,0,0-.4,0,0,0,0,0,.1,0,.2,0,.1,0,.3,0,.4,0,.8,0,1.5-.7,1.5-1.5,0-.8-.7-1.5-1.5-1.5h0Z"/>
  <path class="st3" d="M44.3,177.9l1.3,51.2,1.3,51.2c.2,6.5-.7,15.3,5.8,19.1,2.7,1.6,6,1.9,9.1,2,4.1.1,8.2,0,12.4,0h51.3c6.7,0,14.1-.1,19-5.6,4-4.5,5.2-10.8,5.6-16.7.5-7.7.3-15.6.3-23.3l.2-25.7.2-25.7c0-7.8.4-15.7,0-23.5-.3-6-1.3-12.3-5.3-17-4.6-5.3-11.8-6.1-18.3-6.3-17-.5-34-1-50.9-1.5-3.9-.1-7.8-.3-11.7-.3-3.5,0-6.9.5-10.2,1.6-5.5,2.1-9.8,7-9.6,13.1,0,2.6,1.2,5,3.1,6.8,1.5,1.2,3.6-.9,2.1-2.1-4-3.4-2.1-9.7,1.4-12.7,5.1-4.4,13-3.6,19.2-3.5l48.1,1.4c3.7.1,7.5.1,11.2.4,3.3.2,6.8.6,9.8,2.2,5.1,2.8,7.2,8.5,7.8,14,.9,6.9.3,14.1.3,21l-.2,24.5-.4,48.5c0,5.9,0,12-1.9,17.6-.9,2.6-2.4,4.9-4.5,6.7-2.6,1.9-5.8,3-9,3.1-3.7.3-7.3.2-11,.1h-12.5s-24,0-24,0h-12.5c-3.7,0-7.3.1-11,0-2.8-.2-5.9-.6-8-2.7-2.3-2.3-2.5-5.9-2.6-9-1.1-32.2-1.7-64.5-2.5-96.7l-.3-12c0-1.9-3.1-1.9-3,0h0Z"/>
  <path class="st3" d="M234.3,177.9l1.3,51.2,1.3,51.2c.2,6.5-.7,15.3,5.8,19.1,2.7,1.6,6,1.9,9.1,2,4.1.1,8.2,0,12.4,0h51.2c6.7,0,14.1-.1,19-5.6,4-4.5,5.2-10.8,5.6-16.7.5-7.7.3-15.6.3-23.3l.2-25.7.2-25.7c0-7.8.4-15.7,0-23.5-.3-6-1.3-12.3-5.3-17-4.6-5.3-11.8-6.1-18.3-6.3-17-.5-34-1-50.9-1.5-3.9-.1-7.8-.3-11.7-.3-3.5,0-6.9.5-10.2,1.6-5.5,2.1-9.8,7-9.6,13.1,0,2.6,1.2,5,3.1,6.8,1.5,1.2,3.6-.9,2.1-2.1-4-3.4-2.1-9.7,1.4-12.7,5.1-4.4,13-3.6,19.2-3.5l48.1,1.4c3.7.1,7.5.1,11.2.4,3.3.2,6.8.6,9.8,2.2,5.1,2.8,7.2,8.5,7.8,14,.9,6.9.3,14.1.3,21l-.2,24.5-.4,48.5c0,5.9,0,12-1.9,17.6-.9,2.6-2.4,4.9-4.5,6.7-2.6,1.9-5.8,3-9,3.1-3.7.3-7.3.2-11,.1h-12.5s-24,0-24,0h-12.5c-3.7,0-7.3.1-11,0-2.8-.2-5.9-.6-8-2.7-2.3-2.3-2.5-5.9-2.6-9-1.1-32.2-1.7-64.5-2.5-96.7l-.3-12c0-1.9-3.1-1.9-3,0Z"/>
  <path class="st3" d="M96,312.5c-2.1-2.1-5.2-2.8-8-2.1-2.8.8-5.2,2.8-6.4,5.5-2.8,6-.3,13.1,3.6,18,3.6,4.6,9.6,7.6,15.3,5.2,5.4-2.3,8.7-7.8,8.2-13.6-.7-6.7-6.2-12.1-12.6-13.8-1.9-.5-2.7,2.4-.8,2.9,4.5,1.1,8.2,4.3,9.8,8.7,1.5,4.3,0,9-3.6,11.8-8.9,6.9-19.2-6.3-18.2-14.8.2-2.6,1.6-4.9,3.8-6.3,2.1-1.3,4.9-1,6.7.7.6.6,1.6.5,2.1,0,.5-.6.5-1.5,0-2h0Z"/>
  <path class="st3" d="M279.3,208.4c-3.5-1.2-7.6-2.4-11.2-1-3.4,1.3-5.3,4.6-5.7,8.1-.4,3.9,1.3,7.7,3,11.1,2.1,4.1,4.3,8.2,6.5,12.3l7.5,14.1c.4.7,1.4.9,2.1.5.4-.3.7-.7.7-1.2-.4-4.7.3-9.5,2.2-13.9,1.9-4.4,5.1-8.2,7.3-12.4,2.1-3.9,3.4-8.4,2.3-12.8-.9-3.6-3.5-7.1-7.2-7.9-3.9-1-8,1-9.6,4.7-.7,1.8,2.2,2.6,2.9.8,1-2.5,4.5-3.3,6.8-2.3,3,1.3,4.5,4.9,4.5,8,0,4.2-2.2,8.1-4.4,11.5-2.2,3.5-4.5,6.9-6,10.8-1.6,4.3-2.3,9-1.9,13.6l2.8-.8c-4.9-9.2-10-18.3-14.6-27.6-1.8-3.6-3.4-8.4-.6-12,2.8-3.7,8.1-1.9,11.7-.7,1.8.6,2.6-2.3.8-2.9h0Z"/>
  <path class="st3" d="M88.4,320.9l4.4,8.6c.4.7,1.4.9,2.1.5.3-.2.6-.5.7-.9,1.2-5.9,3.9-11.4,8-15.9,1.3-1.4-.8-3.6-2.1-2.1-4.4,4.8-7.5,10.8-8.7,17.2l2.7-.4-4.4-8.6c-.9-1.7-3.5-.2-2.6,1.5h0Z"/>
  <path class="st3" d="M138.5,281.3l-34.9,30.8c-.4.4-1.1.3-1.4,0-.3-.4-.3-1,0-1.4l32.5-35.5,3.8,6.1Z"/>
  <polygon class="st8" points="185 656.5 198.7 656.5 205.3 603.6 185 603.6 185 656.5"/>
  <path class="st0" d="M177.8,680.3h9.8l1.8-9.3,4.5,9.3h26.1c3.2,0,5.9-2.6,5.9-5.9,0-1.9-.9-3.7-2.5-4.8l-20.8-14.4v-9.4l-21.9,1.3-2.8,33.2Z"/>
  <polygon class="st8" points="302.5 656.5 316.2 656.5 322.8 603.6 302.5 603.6 302.5 656.5"/>
  <path class="st0" d="M295.3,680.3h9.8l1.8-9.3,4.5,9.3h26.1c3.2,0,5.9-2.6,5.9-5.9,0-1.9-.9-3.7-2.5-4.8l-20.8-14.4v-9.4l-21.9,1.3-2.8,33.2Z"/>
  <path class="st4" d="M262.9,376l-69.6-7.7s-30.9,40.2-19.3,75v38.7l8.5,151.4,21.3,1.2,6.2-68.8,5.8-27.4,4.9-104.6,24.9,30,2.3,11.6,7.7,5.4,14.3,19.7,29.4,120.7,25.9.4s-13.9-125.2-15.5-125.2-40.2-84.3-40.2-84.3v-4.5l-1.5-8.7s3.9-3.1,2.3-4.6-3.1-6.2-3.1-6.2l-4.3-12Z"/>
  <path class="st7" d="M237.7,268.2l13.9,15.5,19.3,7-10.8,63.4,3.6,18.2,5.3,20c-20.4,11.3-44.7-4.3-67-11.2l-21.9,9.7,1.2-26.7.6-67.2c0-10.4,8.6-18.8,19-18.7.4,0,.9,0,1.3,0h0l14.7-10.8,20.9.8Z"/>
  <path class="st8" d="M111.5,296.6c.4,4.3,4.3,7.5,8.6,7.1.5,0,.9-.1,1.4-.3l16,23,5.4-13.5-16-19.8c-1.5-4.1-6-6.3-10.1-4.8-3.5,1.2-5.6,4.6-5.3,8.3h0Z"/>
  <path class="st7" d="M195,278.6s-20.8-.9-18.4,40.3l-8.8,18.1-17.8-16.6v-5.3c0,0-15.1-16.8-15.1-16.8l-12.1,13.3,8,12.3,1.5,6.9,4.9,3,12.8,19.5,5.9,5.8s7.5,7.5,16,6.3c2.3-.3,4.5-.9,6.5-1.9,4-1.9,8-5.4,11.4-11.2,7-12,13.3-24.4,18.8-37.2l-13.6-36.6Z"/>
  <path class="st8" d="M285.9,232c-1.2,4.2,1.2,8.5,5.4,9.7.4.1.9.2,1.4.3l6.4,27.3,10-10.6-7.6-24.3c.2-4.4-3.3-8-7.6-8.2-3.7-.1-6.9,2.3-7.9,5.8h0Z"/>
  <path class="st7" d="M241.8,286.9s11-17.6,43.7,7.6l19.9,3-3.6-24-4.3-3.1-5.4-21.9,17.8-2.4,5.6,13.6,4.8,5.2-.3,5.7,8.9,21.6,1.5,8.2s1.9,10.4-3.8,16.7c-1.5,1.7-3.3,3.1-5.3,4.3-3.9,2.2-8.9,3.6-15.6,3-13.9-1-27.7-2.9-41.3-5.5l-22.5-31.9Z"/>
  <circle class="st8" cx="227.4" cy="238.3" r="26.8"/>
  <path class="st0" d="M262.6,229c0,0-.1,0-.2,0-.2,0-.3.1-.5.2-1,.4-2.1.6-3.2.7-.5,0-.9,0-1.4,0-.6,0-1.2,0-1.8-.1-.7,0-1.3-.2-1.9-.4-.3,0-.6-.2-.9-.3-4-1.4-7.1-4.7-8.4-8.8h0c0-.2-.1-.4-.2-.6-.3-1.1-.4-2.3-.4-3.5h0c0-2.9.9-5.6,2.5-7.9,1-1.4,2.2-1.6,1.5-3.3-2-5.2,6.4-9.3,11.4-7.1.2,0,.4,0,.5,0,3.4,0,4.6,5,6.6,7.7h0c-1.3.5-2.1,1.9-1.6,3.3.3.8.9,1.3,1.6,1.6,1.3.4,2.7.8,4,1.2,4.5,5.3-.7,20.8-7.6,17.1Z"/>
  <path class="st0" d="M260.1,243.2c-1.5,5.6-4.2,11.1-8.8,14.8-4.5,3.6-25.9,12.3-27.6,4.8,1.2,5.2.5,7.2-1.5,9-.3-.5-.7-.9-1-1.3-1.3-1.5-2.9-2.8-4.7-3.8,0,3.1.2,6.3.6,9.4-.8.7-1.6,1.5-2.3,2.3-3.4-10.3-10.9-22.6-5.5-31.9,2.2-3.7.4-4.2-1.5-4.6-3.4-.8-5.2-14.5-6-17.9-1-4.2-1.4-9,1.2-12.5s9.2-3.6,10.5.5l2.8-3.8c3.6-7.9,13.1-6.3,21.7-5.2,8.6,1,16.2,7.1,20,14.8,3.8,7.8,4.2,17,2,25.3Z"/>
  <path class="st5" d="M246.6,207.2c-.4,9.7,5,18.7,13.8,22.9,1.7.8,3.3-1.8,1.5-2.6-7.8-3.6-12.7-11.7-12.3-20.3.1-1.9-2.9-1.9-3,0Z"/>
  <path class="st1" d="M128.9,662.3c-1.4,0-2.7-1-2.7-2.5,0-.8.3-1.5.8-2l.2-.7c0,0,0-.1,0-.2-2.4-5.7-17.7,10.2-18.4,15.6-.3,2.4-.2,4.8.4,7.1-5-10.8-7.5-22.6-7.5-34.5,0-3,.2-6,.5-8.9.3-2.4.7-4.8,1.1-7.2,2.7-13,8.4-25.2,16.6-35.6,4.7.3,8.9-.5,9.3-9.6,0-1.6,1.3-3,1.5-4.7-.5,0-.9,0-1.4.1-.1,0-.3,0-.4,0h0c-1.4,0-2.6-1-2.7-2.5,0-.6.2-1.3.6-1.7.2-.2.4-.5.6-.7.3-.4.6-.7.9-1.1,0,0,0,0,0-.1.3-.4.7-.8,1-1.3-.6-1-1.5-1.8-2.4-2.4-3.4-2-8.1-.6-10.6,2.5-2.5,3.1-2.9,7.4-2.1,11.3.8,3.3,2.2,6.4,4.1,9.2-.2.2-.4.5-.6.7-3.4,4.4-6.3,9-8.8,14,.7-5.5-7.9-25.2-11.2-29.4-4-5-12.1-2.8-12.8,3.5,0,0,0,.1,0,.2.5.3,1,.6,1.4.9,1.6,1.1,2.1,3.3,1,4.9-.6.8-1.4,1.4-2.4,1.5h0c-6.6,9.4,14.5,33.9,19.8,28.4-2.5,7.1-4,14.4-4.6,21.8-.3,4.4-.3,8.8,0,13.2v-.2c-1.2-9.6-21.3-23.8-27.2-22.6-3.4.7-6.7.5-6.2,3.9,0,0,0,.1,0,.2.9.4,1.8.8,2.7,1.3.5.3,1,.6,1.4.9,1.6,1.1,2.1,3.3,1,4.9-.6.8-1.4,1.4-2.4,1.5h0c0,0,0,0-.1,0-3,10.3,19.2,27,32.8,21.7h0c1.3,5.8,3.3,11.5,5.8,16.9h20.7c0-.2.1-.5.2-.7-1.9.1-3.8,0-5.7-.3,1.5-1.9,3.1-3.8,4.6-5.7,0,0,0,0,0-.1.8-1,1.6-1.9,2.3-2.9h0c0-3-.3-5.9-1-8.8h0ZM105.2,615.7h0s0,0,0,0h0ZM100.6,657l-.2-.4c0-.3,0-.6,0-.9,0,0,0-.2,0-.2,0,.5.1,1,.2,1.5h0Z"/>
  <rect class="st10" x="66.8" y="680.2" width="292.1" height="2"/>
  <path class="st5" d="M745.1,124.4h0c-8.2-8.3-21.7-8.5-30.1-.2-7.8,7.7-8.5,20-1.6,28.5h0s28.4,31.8,28.4,31.8l31.8-28.4c8.8-7.8,9.6-21.3,1.8-30.1-7.8-8.8-21.3-9.6-30.1-1.8,0,0,0,0,0,0h0Z"/>
</svg>