<?xml version="1.0" encoding="UTF-8"?>
<svg id="Layer_1" xmlns="http://www.w3.org/2000/svg" version="1.1" viewBox="0 0 662.2 680">
  <!-- Generator: Adobe Illustrator 29.1.0, SVG Export Plug-In . SVG Version: 2.1.0 Build 142)  -->
  <defs>
    <style>
      .st0 {
        fill: #5da1a3;
      }

      .st1 {
        fill: #c7a896;
      }

      .st2 {
        fill: #3d3a39;
      }

      .st3 {
        fill: #9b9795;
      }

      .st4 {
        fill: #a2782b;
      }

      .st5 {
        fill: #7a7471;
      }

      .st6 {
        fill: #56321c;
      }

      .st7 {
        fill: #dfdddc;
      }

      .st8 {
        fill: #268184;
      }

      .st9 {
        fill: #5c5755;
      }

      .st10 {
        fill: #f7f7f7;
      }

      .st11 {
        fill: #866048;
      }

      .st12 {
        fill: #bdbab8;
      }
    </style>
  </defs>
  <path id="a55003b0-0446-4784-a3ce-c481a9759178-168" class="st5" d="M488.9,161.6h-3.7V59.2c0-32.7-26.5-59.2-59.2-59.2h-216.9c-32.7,0-59.2,26.5-59.2,59.2v561.5c0,32.7,26.5,59.2,59.2,59.2h216.9c32.7,0,59.2-26.5,59.2-59.2V234.5h3.7v-72.9h0Z"/>
  <path id="ad332593-d547-4870-8db7-c0503e6eb31e-169" class="st3" d="M473.1,55.3v569.5c0,24.8-20.1,44.9-44.9,44.9h-221.3c-24.8,0-44.9-20.1-44.9-44.9V55.3c0-24.8,20.1-44.9,44.9-44.9h26.8c-4.4,10.9.8,23.4,11.7,27.8,2.5,1,5.3,1.6,8,1.6h126.2c11.8,0,21.4-9.6,21.3-21.4,0-2.8-.5-5.5-1.6-8h28.8c24.8,0,45,20.1,45,44.9h0Z"/>
  <path class="st7" d="M449.5,639.9H185.5c-4.7,0-8.5-3.8-8.5-8.5V76.4c0-4.7,3.8-8.5,8.5-8.5h264c4.7,0,8.5,3.8,8.5,8.5v555c0,4.7-3.8,8.5-8.5,8.5Z"/>
  <circle id="edacdc74-dfad-4c1d-939b-d6c7a98a2115" class="st12" cx="316.5" cy="182.6" r="72.7"/>
  <circle id="aec4df6d-8b06-4bbe-8d40-2c8bcc37cf40" class="st10" cx="315.5" cy="182.6" r="62.9"/>
  <path id="b468b121-27e1-4684-879a-d4a6b6510a38-170" class="st8" d="M316.9,146.9c-19.8,0-35.9,16.1-35.9,35.9s16.1,35.9,35.9,35.9,35.9-16.1,35.9-35.9c0-19.8-16.1-35.9-35.9-35.9h0ZM316.9,157.7c5.9,0,10.8,4.8,10.8,10.8s-4.8,10.8-10.8,10.8-10.8-4.8-10.8-10.8,4.8-10.8,10.8-10.8h0ZM316.9,209.4c-8.6,0-16.7-4.3-21.5-11.5.2-7.2,14.3-11.1,21.5-11.1s21.3,3.9,21.5,11.1c-4.8,7.2-12.9,11.5-21.5,11.5h0Z"/>
  <rect id="af237293-25a3-489f-aa06-65014690590a" class="st12" x="250.7" y="279.7" width="125.8" height="9.5"/>
  <rect id="aecd757e-3845-4054-8ef4-8f3b3f1464a2" class="st12" x="233.8" y="304.3" width="158.4" height="9.5"/>
  <rect id="a528162f-764e-4523-bc44-e6dc5465582a" class="st12" x="205.9" y="374.9" width="223.1" height="223.1"/>
  <rect id="ac408f88-9589-4a26-924c-e7a781ddb6bc" class="st10" x="209.5" y="379.6" width="213.7" height="213.7"/>
  <g id="be47c712-4ebf-4226-80ad-879612060a69">
    <rect id="fadc6105-0551-448d-b6d9-436c4cc2b7a7" class="st12" x="253.5" y="400.3" width="83.2" height="6.3"/>
    <rect id="a4376b16-bb23-442d-8938-a8bcab4f190c" class="st12" x="253.5" y="418.6" width="128.4" height="6.3"/>
    <rect id="ae6c1c25-1aef-4af7-84b7-a99cb79f7c28" class="st12" x="254.8" y="436.1" width="104.7" height="6.3"/>
    <rect id="ad31106a-9486-4fc6-9d92-2d07f7dcec19" class="st12" x="253.5" y="455.3" width="61.1" height="6.3"/>
    <rect id="e133e237-d12d-4331-8259-b0f1b7869d24" class="st12" x="253.5" y="474" width="92.2" height="6.3"/>
    <rect id="a9ae706b-b3a6-4b62-8ac7-3a7f4cd0039d" class="st12" x="253.5" y="492.9" width="83.2" height="6.3"/>
    <rect id="bd082349-b2f2-4b60-be0c-57e16efac88b" class="st12" x="253.5" y="511.2" width="128.4" height="6.3"/>
    <rect id="ac0416d6-b57f-4bc7-9ff0-bb8dbe215cb0" class="st12" x="254.8" y="528.7" width="104.7" height="6.3"/>
    <rect id="b9702d28-4113-492b-a4b0-dbfc92fa702e" class="st12" x="253.5" y="547.9" width="61.1" height="6.3"/>
    <rect id="b41357bb-831a-49ca-b340-115c840dd657" class="st12" x="253.5" y="566.6" width="92.2" height="6.3"/>
  </g>
  <path id="b13647df-bb42-4a02-9bba-2700c526619d-171" class="st1" d="M626.8,485c-2.5,4.4-8.1,5.9-12.5,3.4s-5.9-8.1-3.4-12.5h0s0-.1,0-.1c.3-.4.5-.8.9-1.2l-7.7-54.7-.2-1.6-1.6-11.2-.2-1.6h.8l14.9.7,4,.2.5,10.2,2.8,57.3c3.1,2.9,3.8,7.5,1.6,11.1Z"/>
  <path id="bd34735f-0976-456f-8e45-072b5e73a744-172" class="st8" d="M604,418.8l18.9-1.7c2-.2,3.5-2,3.4-4l-3.5-39.3c-.7-7.9-7.7-13.7-15.5-13-7.9.7-13.7,7.7-13,15.5,0,.3,0,.5,0,.8l5.7,38.5c.3,1.8,1.8,3.2,3.7,3.2,0,0,0,0,.2,0Z"/>
  <path id="f1e660d0-c56f-45d1-8714-e8a3d2ffeea9-173" class="st8" d="M618.4,387c3.9-11.1,0-23.5-9.7-30.3-7.1-4.9-16.9-6.6-27.4,5.9-21,25-26.5,52.5-26.5,52.5l43,7s14.6-17.9,20.6-35.1Z"/>
  <path id="eb60bd0b-2a6b-4db7-a453-977e2259822f-174" class="st1" d="M548.8,668.6h-12.3l-5.8-47.3h18.1v47.3Z"/>
  <path id="b4104c20-2c86-47e7-b6b0-d86d656d7ba2-175" class="st6" d="M512.9,680h38.5v-14.9h-23.6c-8.2,0-14.9,6.7-14.9,14.9h0Z"/>
  <path id="b4e48bf6-fea8-48c3-adaa-b392a855b3f6-176" class="st1" d="M649.6,657.9l-11.6,3.8-20.4-43.1,17.2-5.7,14.8,45Z"/>
  <path id="a6908023-9fbc-48a9-be4c-c86c0c45ebaf-177" class="st6" d="M619.1,680l36.6-12.1-4.7-14.1-22.4,7.4c-7.8,2.6-12.1,11-9.5,18.8h0Z"/>
  <circle id="a687fec6-02c9-4040-89ed-32d713123e7f" class="st1" cx="591.4" cy="319.8" r="24.6"/>
  <path id="badfc474-5669-4d61-bc01-f70cc92406de-178" class="st6" d="M569.9,655.5l11.4-75.1c.3-1.9,2.1-3.2,4-2.9,1.4.2,2.5,1.3,2.9,2.6l17.3,71.6c.6,2.3,2.8,3.7,5.1,3.4l47.8-7.7c2.5-.4,4.1-2.7,3.7-5.2,0-.2,0-.4,0-.6l-62.4-205.6c-.2-.6-.2-1.2,0-1.8l2.1-9c.5-2-.5-4.1-2.3-5-8.5-4.3-30-13.3-46.2-3.5-1.1.6-1.8,1.7-2.1,2.9l-48.7,229c-.5,2.4,1,4.8,3.5,5.3.2,0,.4,0,.5,0l58.8,5.3h.4c2.1,0,4-1.7,4.4-3.8h0Z"/>
  <path id="eb685785-93ca-4296-839e-b201e57ae5bb-179" class="st4" d="M607.7,302.4c-1.9-1.1-3.5-2.5-4.9-4.2s-1.7-4-1-6.1c1.2-2.7,4.9-3.6,7.8-2.7s5.1,3.2,7.2,5.3c1.8,1.9,3.7,3.9,4.6,6.4s.4,5.7-1.7,7.2c-2.1,1.5-5.2.9-7.2-.7s-3.3-4-4.5-6.3l-.3,1.1Z"/>
  <path id="a7ccb8bb-f2b9-4447-b454-9c546e399f41-180" class="st4" d="M616,295.4c0-6.9,8-11.9,14.8-10.7s12,7,14.7,13.4c5.5,13.5,1.4,29-4,42.6s-11.9,27.4-11.2,42c1.1,16.1,10.9,30.3,25.5,37-7.7,3.5-16.9-.1-23.3-5.5-14.3-12.1-19.9-33.5-13.2-51,3.3-8.6,9.2-16,13.7-24.1s7.9-17.5,5.6-26.5-12.4-16.2-21-12.7l-1.6-4.5Z"/>
  <path id="bd42e2a1-f38b-413b-b655-cc202f14f4c1-181" class="st4" d="M589.9,330.7c2.1-3.6,4.3-8.4.4-11.5-1.7-1.3-3.9-1.9-6-1.6-4.4.5-9.2.8-13.5-.9-3.2-1.1-5.9-3.5-7.3-6.6-2.2-5.2.6-11.6,5.2-14.9,5.8-4,13.4-4.1,19.3-.3,6-2.6,13.2-1.5,18.6,2.2s9.1,9.4,11.2,15.6c1.9,5.3,2.2,11.1.9,16.6-2,7.8-7.8,14.1-15.3,16.9-2.9,1.2-6.3.7-8.8-1.3,0,0-3.4-3-4.4-6.5-1-2.8-1.4-5.8-.3-7.7Z"/>
  <path id="a0cecca8-8fe0-4420-9365-651f9eef8dd5-182" class="st1" d="M517,352.6c0,.5.2,1.1.2,1.6l43,24.8,10.4-6,11.1,14.6-17.3,12.4c-2.9,2.1-6.8,2-9.6-.2l-44.3-34.9c-5.4,2-11.5-.8-13.5-6.2-2-5.4.8-11.5,6.2-13.5,5.4-2,11.5.8,13.5,6.2,0,.3.2.8.3,1.2h0Z"/>
  <path id="b21f2b01-13d8-4bae-8637-c810de2f9faf-183" class="st8" d="M561.7,380.2l13.9,18c1.5,2,4.3,2.3,6.3.8.2-.1.3-.3.5-.4l15.7-16.3c5.5-4.1,6.7-12,2.6-17.5s-12-6.7-17.5-2.6h0c0,.1-.3.2-.4.3l-19.7,11c-2.2,1.2-2.9,4-1.7,6.1,0,.2.1.4.3.6h0Z"/>
  <path id="e5b1612b-0075-49ae-a43a-e875f9772667-184" class="st11" d="M125.3,423.1c-.5.2-1,.5-1.4.8l-44.9-19.2-1.6-11.8h-17.9c0-.1,1.1,27,1.1,27l59.2,15.7c0,.4.3.8.4,1.2,2.4,5.1,8.5,7.3,13.6,4.9,5.1-2.4,7.3-8.5,4.9-13.6-2.3-5.1-8.3-7.3-13.4-5h0Z"/>
  <path id="aa9c986c-d78a-4457-b2bb-b0791fabccea-185" class="st11" d="M53,668.6h12.3l5.8-47.3h-18.1v47.3Z"/>
  <path id="b210f84f-9c85-4cf8-a59b-65b7d4fb35d0-186" class="st2" d="M74,665.1h-23.7v14.9h38.5c0-8.2-6.6-14.9-14.8-14.9h0Z"/>
  <path id="f66096e0-a946-448d-a2e8-3cde5fe284ed-187" class="st11" d="M5.3,665.2l12.2,1.2,10.4-46.5-18-1.8-4.6,47.1Z"/>
  <path id="fcefb2c9-d6d5-4bec-a5f5-cc8066a5bb74-188" class="st2" d="M26.6,663.7l-23.6-2.3-1.5,14.8,38.3,3.8c.9-8.2-5.1-15.5-13.2-16.3h0Z"/>
  <circle id="b1d8892c-f39d-4126-8224-86b256c1ff9d" class="st11" cx="49.6" cy="318.2" r="24.6"/>
  <path id="ac2d3eab-b9a5-4eb5-9d63-fe405943fbfc-189" class="st9" d="M68,659.1c2.2,0,4-1.6,4.4-3.7,6.3-35.3,27.1-150.4,27.6-153.6v-8.8c0-.3,0-.6-.3-.9l-2.7-3.8c-.3-.4-.7-.6-1.1-.6-15.6-.7-66.8-2.9-69.3.2h0c-2.5,3.1-1.6,12.5-1.4,14.4v.2L2.2,649.5c-.4,2.4,1.3,4.7,3.7,5.1l14.4,2.4c2.2.4,4.3-1,5-3.1,4.4-14.2,19.3-61.9,24.5-80.4,0-.3.4-.4.6-.3.2,0,.4.3.4.5-.3,17.6-.9,62.5-1.1,78v1.7c0,2.3,1.8,4.3,4.1,4.5l13.8,1.3c0-.2.2-.1.4-.1Z"/>
  <path id="bbed60f3-1a89-4078-91d7-bc96163e326a-190" class="st0" d="M65.1,352.4c4.3,2.5,6.9,7.2,8.3,12,2.7,8.8,4.4,17.9,4.9,27.2l1.6,27.6,19.3,73.2c-16.7,14.1-26.3,10.9-48.8-.6s-25,3.9-25,3.9l-4.5-62.3-6.4-68c1.4-1.7,3.1-3.3,4.9-4.7,12-9.3,27.7-12.7,42.4-9l3.3.7Z"/>
  <path id="ff536e95-7831-431c-8ca8-0e166a93b4bb-191" class="st11" d="M71.4,437.8c-.5.2-1,.4-1.5.7l-44.4-22.2-.7-12-18.3-1.3-1,27.4,59.3,19.6c1.3,5.6,7,9.2,12.6,7.8,5.6-1.3,9.2-7,7.8-12.6s-7-9.2-12.6-7.8c-.4.2-.8.3-1.2.4h0Z"/>
  <path id="ed99b844-bab2-4090-afff-3e8d6994d5eb-192" class="st0" d="M14.8,365.5c-10.9,3.9-12.8,45.6-12.8,45.6,12.8-7.1,28.2,4.5,28.2,4.5,0,0,3.2-10.9,7.1-25,2.4-8.1.4-16.8-5.1-23.1-.1,0-6.5-5.8-17.4-2Z"/>
  <path id="a410275c-d14b-4b59-9c0e-be849f4d4fe2-193" class="st6" d="M27.5,324.7c3.1-2.4,7.2,2,7.2,2l2.4-22s15.3,1.8,25.1-.6,11.3,8.9,11.3,8.9c.5-4.6.6-9.2.3-13.8-.6-5.5-8.6-11-22.6-14.7s-21.4,12.2-21.4,12.2c-9.7,4.9-5.3,30.4-2.3,28Z"/>
</svg>