<?xml version="1.0" encoding="UTF-8"?>
<svg id="Layer_1" xmlns="http://www.w3.org/2000/svg" version="1.1" viewBox="0 0 469 499.9">
  <!-- Generator: Adobe Illustrator 29.1.0, SVG Export Plug-In . SVG Version: 2.1.0 Build 142)  -->
  <defs>
    <style>
      .st0 {
        fill: #2b1a11;
      }

      .st1 {
        fill: #2f2e41;
      }

      .st2 {
        fill: #3d3a39;
      }

      .st3 {
        fill: #d5b19b;
      }

      .st4 {
        fill: #56321c;
      }

      .st5 {
        fill: #775642;
      }

      .st6 {
        fill: #268184;
      }

      .st7 {
        fill: #f7f7f7;
      }

      .st8 {
        fill: #c08a69;
      }

      .st9 {
        fill: #bdbab8;
      }

      .st10 {
        fill: #b3886e;
      }

      .st11 {
        fill: #a2782b;
      }
    </style>
  </defs>
  <path class="st3" d="M470.3,496H1.7c-.4,0-.7-.4-.7-1s.3-1,.7-1h468.6c.4,0,.7.4.7,1s-.3,1-.7,1Z"/>
  <path class="st3" d="M431.7,321.6H25.7c-3.6,0-6.5,2.9-6.5,6.5s2.9,6.5,6.5,6.5h11.5v155.5c0,3.6,2.9,6.5,6.5,6.5s6.5-2.9,6.5-6.5v-155.5h356v155.5c0,3.6,2.9,6.5,6.5,6.5s6.5-2.9,6.5-6.5v-152.1l1.9-3.4h10.6c3.6,0,6.5-2.9,6.5-6.5s-2.9-6.5-6.5-6.5Z"/>
  <path class="st2" d="M250.8,325h-123c-5,0-9-4-9-9v-67.7c0-5,4-9,9-9h123c5,0,9,4,9,9v67.7c0,5-4,9-9,9Z"/>
  <path class="st7" d="M250.8,246.3h-123c-1.1,0-2.1.9-2.1,2.1v67.7c0,1.1.9,2.1,2.1,2.1h123c1.1,0,2.1-.9,2.1-2.1v-67.7c0-1.1-.9-2.1-2.1-2.1Z"/>
  <path class="st1" d="M199.8,294.2s-14.7-3.4-22.8,2.8,10.3,20.4,10.3,20.4l12.5-23.2h0Z"/>
  <circle class="st5" cx="190" cy="273.9" r="13.9"/>
  <path class="st0" d="M179.3,254.4c1.9-3.2,5.4-5.1,9.1-4.9,1.9.2,3.8.8,5.5,1.5l9.1,3.5c2.3.9,4.9,2,5.9,4.3.9,2.1.2,4.6-.5,6.8l-3.4,10.6c-.4-2.4-1-4.7-1.9-7s-2.6-4.2-4.7-5.4c-2.4-1.2-5.1-1.2-7.8-1.1-3.7.2-7.8.7-10.5,3.3-1.4,1.5-2.4,3.4-2.8,5.4s-.6,4.1-.6,6.1c-1.5-2.6-2.8-5.4-3.9-8.3-.9-2.1-1.3-4.4-1.4-6.7,0-2.3.7-4.6,2.2-6.4,1.5-1.8,3.9-2.5,6.2-2h-.6v.3Z"/>
  <path class="st6" d="M223.2,306.3c-.3-1-1.1-1.7-2.1-1.8h-.1l-20.7-11.6c-1.2-.7-2.8-.3-3.5.9l-5.7,9.2-8.5-8.5h-.1c-.9-1-2.3-1.2-3.4-.4l-17,11.9h0c-1.7.3-2.9,1.7-3,3.4l-.4,8.9h68l-3.3-11.9h-.2Z"/>
  <path class="st2" d="M261.2,316.8h-13.1c0-.8-.6-1.4-1.4-1.4h-4.1c-.8,0-1.4.6-1.4,1.4h-4.1c0-.8-.6-1.4-1.4-1.4h-4.1c-.8,0-1.4.6-1.4,1.4h-4.1c0-.8-.6-1.4-1.4-1.4h-4.1c-.8,0-1.4.6-1.4,1.4h-4.1c0-.8-.6-1.4-1.4-1.4h-4.1c-.8,0-1.4.6-1.4,1.4h-4.1c0-.8-.6-1.4-1.4-1.4h-4.1c-.8,0-1.4.6-1.4,1.4h-4.1c0-.8-.6-1.4-1.4-1.4h-4.1c-.8,0-1.4.6-1.4,1.4h-4.1c0-.8-.6-1.4-1.4-1.4h-4.1c-.8,0-1.4.6-1.4,1.4h-4.1c0-.8-.6-1.4-1.4-1.4h-4.1c-.8,0-1.4.6-1.4,1.4h-4.1c0-.8-.6-1.4-1.4-1.4h-4.1c-.8,0-1.4.6-1.4,1.4h-4.1c0-.8-.6-1.4-1.4-1.4h-4.1c-.8,0-1.4.6-1.4,1.4h-4.1c0-.8-.6-1.4-1.4-1.4h-4.1c-.8,0-1.4.6-1.4,1.4h-13.1c-2.3,0-4.1,1.9-4.1,4.2s1.9,4.1,4.1,4.1h143.7c2.3,0,4.1-1.9,4.1-4.2s-1.9-4.1-4.1-4.1h-.6Z"/>
  <path class="st7" d="M96.1,292.7v27.5H27.1c-7.6.3-14-5.7-14.2-13.3s5.7-14,13.3-14.2h70-.1Z"/>
  <path class="st6" d="M97.8,320c0,.6-.5,1.1-1.1,1.1H25.9c-8,0-14.5-6.5-14.5-14.5s6.5-14.5,14.5-14.5h70.8c.6,0,1.1.5,1.1,1.1s-.5,1.1-1.1,1.1H25.9c-6.8,0-12.4,5.6-12.4,12.4s5.5,12.4,12.4,12.4h70.8c.6,0,1.1.5,1.1,1.1v-.2Z"/>
  <path class="st9" d="M96.1,299H22c-.1,0-.2,0-.2-.2s0-.2.2-.2h74.1c.1,0,.2,0,.2.2s0,.2-.2.2Z"/>
  <path class="st9" d="M96.1,304.1H22c-.1,0-.2,0-.2-.2s0-.2.2-.2h74.1c.1,0,.2,0,.2.2s0,.2-.2.2Z"/>
  <path class="st9" d="M96.1,309.2H22c-.1,0-.2,0-.2-.2s0-.2.2-.2h74.1c.1,0,.2,0,.2.2s0,.2-.2.2Z"/>
  <path class="st9" d="M96.1,314.3H22c-.1,0-.2,0-.2-.2s0-.2.2-.2h74.1c.1,0,.2,0,.2.2s0,.2-.2.2Z"/>
  <path class="st7" d="M83.1,263.7v27.5H14.1c-7.6.3-14-5.7-14.2-13.3s5.7-14,13.3-14.2h70-.1Z"/>
  <path class="st4" d="M84.8,291c0,.6-.5,1.1-1.1,1.1H12.9c-8,0-14.5-6.5-14.5-14.5s6.5-14.5,14.5-14.5h70.8c.6,0,1.1.5,1.1,1.1s-.5,1.1-1.1,1.1H12.9c-6.8,0-12.4,5.5-12.4,12.4s5.5,12.4,12.4,12.4h70.8c.6,0,1.1.5,1.1,1.1v-.2Z"/>
  <path class="st9" d="M83.1,270H9c-.1,0-.2,0-.2-.2s0-.2.2-.2h74.1c.1,0,.2,0,.2.2s0,.2-.2.2Z"/>
  <path class="st9" d="M83.1,275.1H9c-.1,0-.2,0-.2-.2s0-.2.2-.2h74.1c.1,0,.2,0,.2.2s0,.2-.2.2Z"/>
  <path class="st9" d="M83.1,280.2H9c-.1,0-.2,0-.2-.2s0-.2.2-.2h74.1c.1,0,.2,0,.2.2s0,.2-.2.2Z"/>
  <path class="st9" d="M83.1,285.3H9c-.1,0-.2,0-.2-.2s0-.2.2-.2h74.1c.1,0,.2,0,.2.2s0,.2-.2.2Z"/>
  <path class="st8" d="M163.3,418v-24c0-2.2-1.8-4-4-4h-91c-2.2,0-4,1.8-4,4v24h99Z"/>
  <rect class="st8" x="64.3" y="427" width="99" height="31"/>
  <path class="st8" d="M64.3,467v24c0,2.2,1.8,4,4,4h91c2.2,0,4-1.8,4-4v-24h-99,0Z"/>
  <circle class="st7" cx="113.3" cy="405" r="3"/>
  <circle class="st7" cx="113.3" cy="445" r="3"/>
  <circle class="st7" cx="113.5" cy="484.2" r="3"/>
  <path class="st7" d="M152.1,362.7v27.5h-69c-7.6.3-14-5.7-14.2-13.3-.3-7.6,5.7-14,13.3-14.2h70,0Z"/>
  <path class="st2" d="M153.8,390c0,.6-.5,1.1-1.1,1.1h-70.8c-8,0-14.5-6.5-14.5-14.5s6.5-14.5,14.5-14.5h70.8c.6,0,1.1.5,1.1,1.1s-.5,1.1-1.1,1.1h-70.8c-6.8,0-12.4,5.6-12.4,12.4s5.5,12.4,12.4,12.4h70.8c.6,0,1.1.5,1.1,1.1v-.2Z"/>
  <path class="st9" d="M152.1,369h-74.1c-.1,0-.2,0-.2-.2s0-.2.2-.2h74.1c.1,0,.2,0,.2.2s0,.2-.2.2h0Z"/>
  <path class="st9" d="M152.1,374.1h-74.1c-.1,0-.2,0-.2-.2s0-.2.2-.2h74.1c.1,0,.2,0,.2.2s0,.2-.2.2h0Z"/>
  <path class="st9" d="M152.1,379.2h-74.1c-.1,0-.2,0-.2-.2s0-.2.2-.2h74.1c.1,0,.2,0,.2.2s0,.2-.2.2h0Z"/>
  <path class="st9" d="M152.1,384.3h-74.1c-.1,0-.2,0-.2-.2s0-.2.2-.2h74.1c.1,0,.2,0,.2.2s0,.2-.2.2h0Z"/>
  <path class="st8" d="M59.1,183V7.5c0-4.2,3.4-7.5,7.5-7.5h138.7c4.2,0,7.5,3.4,7.5,7.5v175.5c0,4.2-3.4,7.5-7.5,7.5H66.6c-4.2,0-7.5-3.4-7.5-7.5h0ZM66.6,1.7c-3.2,0-5.8,2.6-5.9,5.9v175.5c0,3.2,2.6,5.8,5.9,5.9h138.7c3.2,0,5.8-2.6,5.8-5.9V7.5c0-3.2-2.6-5.8-5.8-5.9H66.6h0Z"/>
  <path class="st6" d="M143.8,80.6v-36c0-2.1,1.7-3.8,3.8-3.8h30.5c2.1,0,3.8,1.7,3.8,3.8v36c0,2.1-1.7,3.8-3.8,3.8h-30.5c-2.1,0-3.8-1.7-3.8-3.8Z"/>
  <path class="st9" d="M84.4,97.3v-36c0-2.1,1.7-3.8,3.8-3.8h30.5c2.1,0,3.8,1.7,3.8,3.8v36c0,2.1-1.7,3.8-3.8,3.8h-30.5c-2.1,0-3.8-1.7-3.8-3.8Z"/>
  <path class="st11" d="M132.1,148.3v-36c0-2.1,1.7-3.8,3.8-3.8h30.5c2.1,0,3.8,1.7,3.8,3.8v36c0,2.1-1.7,3.8-3.8,3.8h-30.5c-2.1,0-3.8-1.7-3.8-3.8Z"/>
  <path class="st2" d="M314.6,313h-31.4c-.3,0-.6,0-.9.2l-7.9,4c-.7.3-1.1,1.2-.8,1.9.1.3.4.6.8.8l7.9,4c.3.1.6.2.9.2h31.4c.9,0,1.7-.6,1.7-1.5v-7.9c0-.9-.8-1.6-1.7-1.5v-.2Z"/>
  <path class="st6" d="M316.3,314.6v7.9c0,.9-.8,1.6-1.7,1.5h-6.3v-11h6.3c.9,0,1.7.6,1.7,1.5h0Z"/>
  <path class="st10" d="M314.3,253.6c5.6-2.4,12.1.2,14.5,5.7.2.4.3.8.4,1.2,0,.5.2.9.3,1.4l43.9,21.8,10.2-6.7,12.7,14.6-15.5,12.6c-3.8,3.1-9.2,3.3-13.3.5l-44.6-30.8c-.3.1-.7.3-1,.4-5.8,1.8-12-1.5-13.7-7.3-.1-.4-.2-.8-.3-1.2,0-.4-.1-.9-.2-1.3-.3-4.6,2.4-8.9,6.6-10.7v-.2Z"/>
  <path class="st2" d="M405.8,387.8h-48c0,1.4-49.5,2.5-49.5,2.5-.8.6-1.5,1.3-2.1,2-1.9,2.2-2.9,5.1-2.9,8v2c0,6.9,5.6,12.5,12.5,12.5h90c6.9,0,12.5-5.6,12.5-12.5v-2c0-6.9-5.6-12.5-12.5-12.5Z"/>
  <rect class="st2" x="353.6" y="414.3" width="13" height="84"/>
  <path class="st2" d="M316.6,497.8c0,1.4,19.7.5,44,.5s44,.9,44-.5-19.7-12.5-44-12.5-44,11.1-44,12.5h0Z"/>
  <polygon class="st10" points="328.4 488 316.1 488 310.3 456.2 328.4 456.2 328.4 488"/>
  <path class="st0" d="M331.5,499.9h-39.5v-.5c0-8.5,6.9-15.4,15.4-15.4h24.1v15.9Z"/>
  <path class="st4" d="M310,468.3l-24.4-54.8c-4.2-9.6-.4-20.8,8.8-25.8l53-28.4,24.2-2.1,22.3-2,.2.3c.2.3,5,8.6,1.8,17.7-2.5,6.9-8.9,12.3-19,16-23.7,8.7-51.1,16.1-61.8,18.9-1,.2-1.8.9-2.2,1.8-.5.9-.5,1.9-.2,2.8l22.7,51c.9,2.3-.3,4.9-2.7,5.8-.4.1-.7.2-1.1.3l-17,1.2h-.4c-1.8,0-3.4-1-4.1-2.7h-.1Z"/>
  <polygon class="st10" points="334.4 488 322.1 488 316.3 456.2 334.4 456.2 334.4 488"/>
  <path class="st0" d="M337.5,499.9h-39.5v-.5c0-8.5,6.9-15.4,15.4-15.4h24.1v15.9Z"/>
  <path class="st4" d="M317,471.3l-24.4-54.8c-4.2-9.6-.4-20.8,8.8-25.8l53-28.4,24.2-2.1,22.3-2,.2.3c.2.3,5,8.6,1.8,17.7-2.5,6.9-8.9,12.3-19,16-23.7,8.7-51.1,16.1-61.8,18.9-1,.2-1.8.9-2.2,1.8-.5.9-.5,1.9-.2,2.8l22.7,51c.9,2.3-.3,4.9-2.7,5.8-.4.1-.7.2-1.1.3l-17,1.2h-.4c-1.8,0-3.4-1-4.1-2.7h-.1Z"/>
  <path class="st9" d="M304.8,303.8c-10.3-13.7-18.4-28.8-24.1-44.9-.7-2,.2-4.2,2-5.2l35.1-18.8c1.2-.6,2.5-.7,3.7-.2s2.1,1.6,2.5,2.9c4.1,15.5,11.8,29.9,22.4,41.9.9,1,1.3,2.3,1,3.6-.2,1.3-1,2.4-2.2,3l-35.1,18.8c-1.9,1-4.2.5-5.4-1.2h0Z"/>
  <path class="st7" d="M307.2,302c.4.5,1.1.6,1.6.3l35.1-18.8c.3-.2.6-.5.7-.9,0-.4,0-.8-.3-1.1-11-12.4-18.9-27.1-23.1-43.1,0-.4-.4-.7-.8-.9s-.8-.1-1.1,0l-35.1,18.8c-.5.3-.8.9-.6,1.5,5.6,15.8,13.6,30.7,23.6,44.1h0Z"/>
  <path class="st6" d="M421.6,298.8l-27.5,10.5-6.7-18.7c-1.8-5.1.3-10.8,5-13.5h0c4.8-2.7,10.8-1.5,14.3,2.8l15,18.9h0Z"/>
  <path class="st6" d="M351.6,372.8c-1.2-.8-1.9-2.1-2.1-3.5-3.5-32.9-1.1-58.7,7.5-78.7,3.1-7,9.2-12.2,16.6-14.2l22.2-1.1h0c10.3,5.1,16.1,16.3,14.2,27.6-7.2,18.9-13.1,38.5-8.6,54.3.4,1.3.2,2.8-.5,4s-1.8,2-3.1,2.3l-42.4,10.1c-1.4.3-2.9,0-4-.8h0Z"/>
  <circle class="st10" cx="388.4" cy="242.3" r="24.6"/>
  <path class="st9" d="M320.2,261.8l-19.1,8.4c-1.5.7-3.3,0-4-1.5l-.5-1.1c-.7-1.5,0-3.3,1.5-4l19.1-8.4c1.5-.7,3.3,0,4,1.5l.5,1.1c.7,1.5,0,3.3-1.5,4Z"/>
  <path class="st9" d="M327.2,274.8l-19.1,8.4c-1.5.7-3.3,0-4-1.5l-.5-1.1c-.7-1.5,0-3.3,1.5-4l19.1-8.4c1.5-.7,3.3,0,4,1.5l.5,1.1c.7,1.5,0,3.3-1.5,4Z"/>
  <path class="st10" d="M342,325.6l-42.7-33.7c-.3.1-.7.2-1,.3-3,.7-6.3,0-8.8-1.7-2.6-1.8-4.3-4.6-4.6-7.7-.6-5.1,2.4-9.9,7.2-11.6,5.7-2.1,12,.9,14.1,6.6.1.4.3.8.4,1.2.1.5.2,1,.2,1.5l42.5,24.5,10.6-6.1,11.7,15.3-16.4,11.7c-3.9,2.8-9.3,2.7-13.1-.3h-.1Z"/>
  <path class="st6" d="M376.7,318.9l-24.3-16.6,11.4-16.2c3.1-4.4,9-6,13.9-3.6h0c5,2.4,7.5,8,5.9,13.3l-6.9,23.1h0Z"/>
  <path class="st0" d="M379.4,238.7c-6.3,4.3-14.6,8.8-21,4.2-4.2-3-5.6-8.6-3.9-13.5,3.1-8.8,11.6-12.7,19.7-15.7,10.5-3.9,22-7,32.9-4.2s20.5,13.3,18.5,24.4c-1.6,8.9-10,16.3-8.8,25.2,1.2,9,11.3,13.8,20.3,15.4s19,2.1,25.4,8.6c8.2,8.2,6.2,22.9-1.6,31.5s-19.4,12.6-30.7,15.2c-15,3.5-31.1,5.4-45.3-.5s-25.3-21.7-21.1-36.5c1.7-6.3,5.8-11.5,9.8-16.7s8-10.5,9.5-16.8c1.3-5.3.3-11.4-3.2-15.3-1.3-1.4-1.5-3.5-.6-5.2h0Z"/>
</svg>