<?xml version="1.0" encoding="utf-8"?>
<!-- Generator: Adobe Illustrator 28.2.0, SVG Export Plug-In . SVG Version: 6.00 Build 0)  -->
<svg version="1.1" id="Layer_1" xmlns="http://www.w3.org/2000/svg" xmlns:xlink="http://www.w3.org/1999/xlink" x="0px" y="0px"
	 viewBox="0 0 802.6 507.2" style="enable-background:new 0 0 802.6 507.2;" xml:space="preserve">
<style type="text/css">
	.st0{fill:#F5ECE6;}
	.st1{fill:#EAD8CD;}
	.st2{fill:#3F3D56;}
	.st3{fill:#FFFFFF;}
	.st4{fill:#2B190E;}
	.st5{fill:#268184;}
	.st6{fill:#412615;}
	.st7{fill:#A2785D;}
	.st8{fill:#2F2E41;}
</style>
<path class="st0" d="M706.8,463.9l0.8-17.6c8.1-4.4,17.2-6.7,26.5-6.7C721.3,450,722.9,470,714.3,484c-5.5,8.8-14.7,14.6-25,15.8
	l-10.6,6.5c-3-16.5,1.5-33.4,12.1-46.4c3-3.6,6.4-6.7,10.2-9.4C703.4,457.2,706.8,463.9,706.8,463.9z"/>
<path class="st0" d="M168.8,444.6l-25.7-7.8c-3.4-13.7-3.3-28,0.1-41.7c10.6,22.7,40.8,27.9,58.2,45.9c10.9,11.5,16,27.3,13.9,42.9
	l5.6,18.2c-25.5-1.8-48.8-14.7-64-35.3c-4.1-5.7-7.5-12-10.1-18.6C157.7,447.1,168.8,444.6,168.8,444.6z"/>
<path class="st0" d="M617.8,503.4c0,0.5-0.2,1-0.6,1.4c-0.4,0.4-0.9,0.6-1.4,0.6h-8c-1.1,0-2-0.9-2-2V260.3c0-5.4-1.8-9.7-4-9.7
	H101.2c-2.2,0-4,4.4-4,9.7v241.6c0,1-0.8,1.9-1.8,2c-1.6,0.2-3.2,0.3-4.9,0.4c0,0-0.1,0-0.1,0c-0.9,0.1-1.8,0.1-2.6,0.2h0
	c-0.5-0.8-0.9-1.7-1.4-2.5c-0.1-0.3-0.2-0.6-0.2-0.9V247.7c0-1.5,0.1-3,0.2-4.4c0.1-2,0.4-4,0.8-6c1.7-9.3,5.5-15.6,9.9-15.6h509
	c0.6,0,1.3,0.1,1.8,0.4c0.9,0.4,1.6,0.9,2.3,1.6c0.9,0.9,1.6,1.9,2.2,3c2.1,3.8,3.7,9.4,4.2,15.9c0,0.1,0,0.1,0,0.2
	c0.1,1.6,0.2,3.3,0.2,4.9l0.1,21.4l0.1,12.8l0.3,40.1l0.1,14.2L617.8,503.4z"/>
<path class="st1" d="M432,147.5h-51c-1.5,0-2.7,1.2-2.7,2.7v80.6h56.4v-80.6C434.7,148.7,433.5,147.5,432,147.5L432,147.5z
	 M406.7,193.3c-3.3,0-6-2.7-6-6V178c0-3.3,2.7-6,6-6s6,2.7,6,6v9.3C412.7,190.6,410,193.3,406.7,193.3z"/>
<path class="st2" d="M378.1,228.2v7.8c0,0.8,0.7,1.5,1.5,1.5h53.8c0.8,0,1.5-0.7,1.5-1.5v-7.8H378.1z"/>
<path class="st0" d="M516.5,21.7h-218c-3.9,0-7.1,3.2-7.1,7.1v147.1c0,3.9,3.2,7.1,7.1,7.1h218c3.9,0,7.1-3.2,7.1-7.1V28.8
	C523.5,24.9,520.4,21.7,516.5,21.7z"/>
<path class="st3" d="M514.7,26.8H300.3c-2.1,0-3.8,1.7-3.8,3.8v143.5c0,2.1,1.7,3.8,3.8,3.8h214.4c2.1,0,3.8-1.7,3.8-3.8V30.6
	C518.4,28.5,516.8,26.9,514.7,26.8z"/>
<path class="st1" d="M472.9,240.2H345.4c-1.3,0-2.3-1.1-2.3-2.3c0-0.2,0-0.3,0.1-0.5l2-9.4c0.2-1.1,1.2-1.9,2.3-1.9h123.6
	c1.1,0,2.1,0.8,2.3,1.9l2,9.4c0.3,1.3-0.5,2.5-1.8,2.8C473.2,240.2,473.1,240.2,472.9,240.2z"/>
<path class="st0" d="M348.9,228h3c0.3,0,0.5,0.2,0.5,0.5v1.4c0,0.3-0.2,0.5-0.5,0.5h-3c-0.3,0-0.5-0.2-0.5-0.5v-1.4
	C348.5,228.2,348.7,228,348.9,228z"/>
<path class="st0" d="M356.8,228h3c0.3,0,0.5,0.2,0.5,0.5v1.4c0,0.3-0.2,0.5-0.5,0.5h-3c-0.3,0-0.5-0.2-0.5-0.5v-1.4
	C356.3,228.2,356.5,228,356.8,228z"/>
<path class="st0" d="M364.7,228h3c0.3,0,0.5,0.2,0.5,0.5v1.4c0,0.3-0.2,0.5-0.5,0.5h-3c-0.3,0-0.5-0.2-0.5-0.5v-1.4
	C364.2,228.2,364.4,228,364.7,228z"/>
<path class="st0" d="M372.5,228h3c0.3,0,0.5,0.2,0.5,0.5v1.4c0,0.3-0.2,0.5-0.5,0.5h-3c-0.3,0-0.5-0.2-0.5-0.5v-1.4
	C372,228.2,372.2,228,372.5,228z"/>
<path class="st0" d="M380.4,228h3c0.3,0,0.5,0.2,0.5,0.5v1.4c0,0.3-0.2,0.5-0.5,0.5h-3c-0.3,0-0.5-0.2-0.5-0.5v-1.4
	C379.9,228.2,380.1,228,380.4,228z"/>
<path class="st0" d="M388.2,228h3c0.3,0,0.5,0.2,0.5,0.5v1.4c0,0.3-0.2,0.5-0.5,0.5h-3c-0.3,0-0.5-0.2-0.5-0.5v-1.4
	C387.7,228.2,388,228,388.2,228z"/>
<path class="st0" d="M396.1,228h3c0.3,0,0.5,0.2,0.5,0.5v1.4c0,0.3-0.2,0.5-0.5,0.5h-3c-0.3,0-0.5-0.2-0.5-0.5v-1.4
	C395.6,228.2,395.8,228,396.1,228z"/>
<path class="st0" d="M403.7,227.8h3c0.3,0,0.5,0.2,0.5,0.5v1.4c0,0.3-0.2,0.5-0.5,0.5h-3c-0.3,0-0.5-0.2-0.5-0.5v-1.4
	C403.2,228,403.5,227.8,403.7,227.8z"/>
<path class="st0" d="M411.6,227.8h3c0.3,0,0.5,0.2,0.5,0.5v1.4c0,0.3-0.2,0.5-0.5,0.5h-3c-0.3,0-0.5-0.2-0.5-0.5v-1.4
	C411.1,228,411.3,227.8,411.6,227.8z"/>
<path class="st0" d="M419.4,227.8h3c0.3,0,0.5,0.2,0.5,0.5v1.4c0,0.3-0.2,0.5-0.5,0.5h-3c-0.3,0-0.5-0.2-0.5-0.5v-1.4
	C419,228,419.2,227.8,419.4,227.8z"/>
<path class="st0" d="M427.3,227.8h3c0.3,0,0.5,0.2,0.5,0.5v1.4c0,0.3-0.2,0.5-0.5,0.5h-3c-0.3,0-0.5-0.2-0.5-0.5v-1.4
	C426.8,228,427,227.8,427.3,227.8z"/>
<path class="st0" d="M435.2,227.8h3c0.3,0,0.5,0.2,0.5,0.5v1.4c0,0.3-0.2,0.5-0.5,0.5h-3c-0.3,0-0.5-0.2-0.5-0.5v-1.4
	C434.7,228,434.9,227.8,435.2,227.8z"/>
<path class="st0" d="M443,227.8h3c0.3,0,0.5,0.2,0.5,0.5v1.4c0,0.3-0.2,0.5-0.5,0.5h-3c-0.3,0-0.5-0.2-0.5-0.5v-1.4
	C442.5,228,442.7,227.8,443,227.8z"/>
<path class="st0" d="M450.9,227.8h3c0.3,0,0.5,0.2,0.5,0.5v1.4c0,0.3-0.2,0.5-0.5,0.5h-3c-0.3,0-0.5-0.2-0.5-0.5v-1.4
	C450.4,228,450.6,227.8,450.9,227.8z"/>
<path class="st0" d="M458.7,227.8h3c0.3,0,0.5,0.2,0.5,0.5v1.4c0,0.3-0.2,0.5-0.5,0.5h-3c-0.3,0-0.5-0.2-0.5-0.5v-1.4
	C458.2,228,458.5,227.8,458.7,227.8z"/>
<path class="st0" d="M466.6,227.8h3c0.3,0,0.5,0.2,0.5,0.5v1.4c0,0.3-0.2,0.5-0.5,0.5h-3c-0.3,0-0.5-0.2-0.5-0.5v-1.4
	C466.1,228,466.3,227.8,466.6,227.8z"/>
<path class="st0" d="M348.9,232h3c0.3,0,0.5,0.2,0.5,0.5v1.4c0,0.3-0.2,0.5-0.5,0.5h-3c-0.3,0-0.5-0.2-0.5-0.5v-1.4
	C348.4,232.2,348.6,232,348.9,232z"/>
<path class="st0" d="M356.7,232h3c0.3,0,0.5,0.2,0.5,0.5v1.4c0,0.3-0.2,0.5-0.5,0.5h-3c-0.3,0-0.5-0.2-0.5-0.5v-1.4
	C356.2,232.2,356.4,232,356.7,232z"/>
<path class="st0" d="M364.6,232h3c0.3,0,0.5,0.2,0.5,0.5v1.4c0,0.3-0.2,0.5-0.5,0.5h-3c-0.3,0-0.5-0.2-0.5-0.5v-1.4
	C364.1,232.2,364.3,232,364.6,232z"/>
<path class="st0" d="M372.4,232h3c0.3,0,0.5,0.2,0.5,0.5v1.4c0,0.3-0.2,0.5-0.5,0.5h-3c-0.3,0-0.5-0.2-0.5-0.5v-1.4
	C371.9,232.2,372.2,232,372.4,232z"/>
<path class="st0" d="M380.3,232h3c0.3,0,0.5,0.2,0.5,0.5v1.4c0,0.3-0.2,0.5-0.5,0.5h-3c-0.3,0-0.5-0.2-0.5-0.5v-1.4
	C379.8,232.2,380,232,380.3,232z"/>
<path class="st0" d="M388.1,232h3c0.3,0,0.5,0.2,0.5,0.5v1.4c0,0.3-0.2,0.5-0.5,0.5h-3c-0.3,0-0.5-0.2-0.5-0.5v-1.4
	C387.7,232.2,387.9,232,388.1,232z"/>
<path class="st0" d="M396,232h3c0.3,0,0.5,0.2,0.5,0.5v1.4c0,0.3-0.2,0.5-0.5,0.5h-3c-0.3,0-0.5-0.2-0.5-0.5v-1.4
	C395.5,232.2,395.7,232,396,232z"/>
<path class="st0" d="M403.6,231.7h3c0.3,0,0.5,0.2,0.5,0.5v1.4c0,0.3-0.2,0.5-0.5,0.5h-3c-0.3,0-0.5-0.2-0.5-0.5v-1.4
	C403.1,232,403.4,231.7,403.6,231.7z"/>
<path class="st0" d="M411.5,231.7h3c0.3,0,0.5,0.2,0.5,0.5v1.4c0,0.3-0.2,0.5-0.5,0.5h-3c-0.3,0-0.5-0.2-0.5-0.5v-1.4
	C411,232,411.2,231.7,411.5,231.7z"/>
<path class="st0" d="M419.3,231.7h3c0.3,0,0.5,0.2,0.5,0.5v1.4c0,0.3-0.2,0.5-0.5,0.5h-3c-0.3,0-0.5-0.2-0.5-0.5v-1.4
	C418.9,232,419.1,231.7,419.3,231.7z"/>
<path class="st0" d="M427.2,231.7h3c0.3,0,0.5,0.2,0.5,0.5v1.4c0,0.3-0.2,0.5-0.5,0.5h-3c-0.3,0-0.5-0.2-0.5-0.5v-1.4
	C426.7,232,426.9,231.7,427.2,231.7z"/>
<path class="st0" d="M435.1,231.7h3c0.3,0,0.5,0.2,0.5,0.5v1.4c0,0.3-0.2,0.5-0.5,0.5h-3c-0.3,0-0.5-0.2-0.5-0.5v-1.4
	C434.6,232,434.8,231.7,435.1,231.7z"/>
<path class="st0" d="M442.9,231.7h3c0.3,0,0.5,0.2,0.5,0.5v1.4c0,0.3-0.2,0.5-0.5,0.5h-3c-0.3,0-0.5-0.2-0.5-0.5v-1.4
	C442.4,232,442.6,231.7,442.9,231.7z"/>
<path class="st0" d="M450.8,231.7h3c0.3,0,0.5,0.2,0.5,0.5v1.4c0,0.3-0.2,0.5-0.5,0.5h-3c-0.3,0-0.5-0.2-0.5-0.5v-1.4
	C450.3,232,450.5,231.7,450.8,231.7z"/>
<path class="st0" d="M458.6,231.7h3c0.3,0,0.5,0.2,0.5,0.5v1.4c0,0.3-0.2,0.5-0.5,0.5h-3c-0.3,0-0.5-0.2-0.5-0.5v-1.4
	C458.1,232,458.4,231.7,458.6,231.7z"/>
<path class="st0" d="M466.5,231.7h3c0.3,0,0.5,0.2,0.5,0.5v1.4c0,0.3-0.2,0.5-0.5,0.5h-3c-0.3,0-0.5-0.2-0.5-0.5v-1.4
	C466,232,466.2,231.7,466.5,231.7z"/>
<path class="st0" d="M386.3,236.4h30.5c0.3,0,0.5,0.2,0.5,0.5v1.4c0,0.3-0.2,0.5-0.5,0.5h-30.5c-0.3,0-0.5-0.2-0.5-0.5v-1.4
	C385.9,236.7,386.1,236.4,386.3,236.4z"/>
<path class="st1" d="M503.9,46.6H303.3c-0.4,0-0.8-0.4-0.8-0.8c0-0.4,0.4-0.8,0.8-0.8h200.6c0.4,0,0.8,0.4,0.8,0.8
	C504.7,46.3,504.3,46.6,503.9,46.6z"/>
<ellipse class="st1" cx="316.9" cy="36.2" rx="4.7" ry="4.8"/>
<ellipse class="st1" cx="333.1" cy="36.2" rx="4.7" ry="4.8"/>
<ellipse class="st1" cx="349.2" cy="36.2" rx="4.7" ry="4.8"/>
<polygon class="st4" points="403.4,58.7 402.7,56.8 485.6,13.8 486.2,15.7 "/>
<polygon class="st4" points="653.4,138.5 652.7,136.6 702.6,93.7 703.2,95.6 "/>
<polygon class="st4" points="557.6,148.4 474.7,105.4 475.4,103.5 558.2,146.5 "/>
<polygon class="st4" points="600,118.5 551.4,38.7 553,37.4 601.5,117.2 "/>
<polygon class="st4" points="637.9,14.6 590.6,14.3 590.6,12.3 637.9,12.6 "/>
<path class="st5" d="M723.6,27h-53c-7.2,0-13-5.8-13-13s5.8-13,13-13h53c7.2,0,13,5.8,13,13S730.8,27,723.6,27L723.6,27z"/>
<path class="st5" d="M789.6,103h-53c-7.2,0-13-5.8-13-13s5.8-13,13-13h53c7.2,0,13,5.8,13,13S796.8,103,789.6,103z"/>
<polygon class="st4" points="703.9,156.6 656.6,156.3 656.6,154.3 703.9,154.6 "/>
<path class="st5" d="M789.6,169h-53c-7.2,0-13-5.8-13-13s5.8-13,13-13h53c7.2,0,13,5.8,13,13S796.8,169,789.6,169z"/>
<path class="st5" d="M634.6,160h-53c-7.2,0-13-5.8-13-13s5.8-13,13-13h53c7.2,0,13,5.8,13,13S641.8,160,634.6,160z"/>
<path class="st5" d="M562.6,26h-53c-7.2,0-13-5.8-13-13s5.8-13,13-13h53c7.2,0,13,5.8,13,13S569.8,26,562.6,26z"/>
<path class="st6" d="M309.3,249.2h-60c-4.4,0-8,3.6-8,8c0,4.4,3.6,8,8,8h22v62h16v-62h22c4.4,0,8-3.6,8-8S313.7,249.2,309.3,249.2
	L309.3,249.2z"/>
<path class="st6" d="M348.9,361.5H188.4c-32.2-0.1-59.4-23.8-63.9-55.6l-5.7-20.9c-11.8-43.3-29.7-84.7-53.2-122.9
	c-10.7-17.5-16.3-34.3-3.7-50.6c0.1-0.1,0.2-0.3,0.3-0.4c10.1-13.1,60.2-16,76.6-16.5c0.6,0,1.3,0,1.9,0h99.8c0.7,0,1.3,0,1.9,0
	c18,0.5,34.2,10.9,42.2,26.9c8.6,16.4,7.5,36.2-2.9,51.5c-35.1,52.7-45.8,85.7-34.8,107.1c10.6,20.7,43.2,31.3,102.6,33.3
	c15.9,0.5,23.3,13,23.3,24.3c0,11-7,23.2-22.6,23.8C349.9,361.5,349.4,361.5,348.9,361.5z"/>
<path class="st6" d="M215.7,504h60c4.4,0,8-3.6,8-8s-3.6-8-8-8h-22V353h-16v135h-22c-4.4,0-8,3.6-8,8S211.2,504,215.7,504z"/>
<polygon class="st7" points="270,449.6 280.3,455.2 307.7,417.4 292.4,409.1 "/>
<path class="st4" d="M274.9,436.1l18.8,5.9l-3,7.9l12.9,18.7c1.6,2.4,1,5.7-1.3,7.3c-1.4,1-3.2,1.2-4.8,0.6l-21.8-8.3l-0.8-9.2
	l-4.4,7.2l-8.2-3.1L274.9,436.1z"/>
<path class="st7" d="M296.1,68.1c0.9,6.3-3.5,12.2-9.8,13.2c-0.7,0.1-1.4,0.1-2,0.1l-39.9,84.8l-12.5-17.4l41-80.2
	c0.6-6.4,6.3-11.1,12.8-10.5C291,58.6,295.3,62.7,296.1,68.1L296.1,68.1z"/>
<path class="st5" d="M163.8,183.3c0,0-1.1,14.8,15.7,17.7s61.5-25.4,68.9-29.8s21.1-59.1,21.1-59.1L257.6,92
	c-14.7,18.6-26.3,35.8-27,48L163.8,183.3z"/>
<path class="st7" d="M183.2,234.3l3.6,15.5c0,0,0,14.3,2.6,17c2.5,2.6,58-2.7,58-2.7s-5.9-23.1-5.8-40.6L183.2,234.3L183.2,234.3z"
	/>
<path class="st4" d="M300.3,433.2l-20-11c-0.4-26,15.3-61.2,33.8-98.1c-41.5,7.1-80.7,9.4-114.6,0.8c-11.6-3.1-18.6-14.8-15.7-26.5
	c0.1-0.5,0.3-1.1,0.5-1.6c4.1-12.4-5-20.1,3.3-33.7c22-7.5,42.9-9.6,62-3l12,26.5l59.3-7.7c12-1.4,22.9,7.1,24.3,19.1
	c0,0.1,0,0.1,0,0.2c0.1,0.6,0.1,1.3,0.2,1.9C333.5,356.3,320,406.9,300.3,433.2z"/>
<path class="st5" d="M175.1,135.9l22.9-1.3c2-0.1,3.8,1,4.6,2.9l6.5,15.7l26.9,22.2c0,0,10.6,13.5,10.7,31s3.8,57.9,3.8,57.9
	s-15.5-21.8-25.1-16c-1.6,1-2.2,3-3.9,4c-0.9,0.5-2.8,0-3.7,0.5c-13.2,7.8-27,15.5-28.2,14.1c-2.5-2.6-5.6-16.1-5.6-16.1l-20.9-76.9
	c-2.3-8.2-0.8-17,4-24c1.5-2.1,3-3.6,4.4-3.8C174.5,145.4,172.8,138.2,175.1,135.9L175.1,135.9z"/>
<polygon class="st7" points="369.6,482.2 379.2,475.5 357.4,434.2 343.1,444.1 "/>
<path class="st4" d="M371,454.5L355.9,468c-24-26.8-42.2-64.4-57.6-107.1c-40.4-11.8-70.8-30.9-97.4-53.5c-9-7.6-15.8-17.4-8.1-26.7
	c0.4-0.4,0.7-0.9,1.1-1.3c9.1-9.3,32.1-7.6,45.6-16.1l30.1,32.2l-1.9,8.6l56.6,19.2c11.4,4,17.4,16.5,13.4,27.8c0,0.1,0,0.1-0.1,0.2
	c-0.2,0.6-0.4,1.2-0.7,1.8L371,454.5z"/>
<path class="st4" d="M364,479.4l15.4-12.2l4.8,6.9l22.7-0.1c2.9,0,5.3,2.3,5.3,5.2c0,1.7-0.8,3.3-2.3,4.3L390.7,497l-8.1-4.5
	l3.5,7.7l-7.2,5L364,479.4z"/>
<path class="st7" d="M208.9,329.7c-5.9-2.5-8.7-9.3-6.2-15.2c0.3-0.6,0.6-1.2,1-1.8l-51.8-78.1l21.4-1.6l47.2,76.7
	c5.2,3.9,6.2,11.2,2.3,16.3C219.6,330.3,213.8,331.8,208.9,329.7L208.9,329.7z"/>
<path class="st5" d="M179.1,156.8c0,0-12.1-8.6-23.3,4.2s-10.3,65.8-10.4,74.3c0,2.7,3.8,8.4,9.2,15.1c2.4,3,5.1,6.2,7.8,9.3
	c1.6,1.8,0.2,5.6,1.8,7.4c1.6,1.8,6.2,1.5,7.7,3.1c7.2,7.8,13,13.7,13,13.7l23.4,0.3c0.3-17.4-11.7-33-27-48L179.1,156.8
	L179.1,156.8z"/>
<path class="st8" d="M155.5,81c-2.2,1.6-4.5,3.2-7.3,3.6s-5.9-0.9-6.6-3.5c-0.9-3.2,2-6.1,4.6-8.2l8.3-6.6c1.5-1.3,3.2-2.5,5.1-3.3
	c1.9-0.8,4-0.8,5.9,0.2c1.8,1.2,2.9,3.3,2.8,5.5c-0.1,2.1-0.8,4.2-2,6c-3.1,4.8-8,8.2-13.7,9.3"/>
<path class="st6" d="M218.3,253.2h-60c-4.4,0-8,3.6-8,8s3.6,8,8,8h22v62h16v-62h22c4.4,0,8-3.6,8-8S222.7,253.2,218.3,253.2
	L218.3,253.2z"/>
<path class="st4" d="M159.2,64.2c0.2-6-6.2-10.7-12.1-10.4s-11.1,4.6-14.5,9.5c-3.4,4.9-5.4,10.7-8.1,16s-6.2,10.6-11.6,13.4
	c-5.3,2.8-12.7,2.3-16.4-2.5c-2.3,3.5-2.8,7.9-1.4,11.9c1.5,3.9,4.3,7.1,7.9,9.2c1.4,0.9,3,1.5,4.6,2c0.7-1.8,1.6-3.5,2.8-5
	c-0.5,1.8-0.7,3.7-0.6,5.5c2.5,0.5,5,0.4,7.5-0.1c4.9-1.1,9-4.4,11.1-9c2.2-5.3,1.1-11.4,1.6-17.1c0.5-5.8,3.9-12.3,9.7-12.4
	c4.4-0.1,3.8,0.3,6.6,3.7"/>
<path class="st4" d="M199.1,95.7c0,14.4-11.6,26-26,26s-28-16.6-28-31s13.6-21,28-21S199.1,81.4,199.1,95.7z"/>
<circle class="st7" cx="181" cy="102.6" r="24.8"/>
<path class="st4" d="M212.1,98.7c-7.3,2-14.8,4.1-17.6,0c-0.6-2.7-1.6-5.3-3.1-7.7c-0.3,2.6-0.9,5.2-1.8,7.7c-9.3,2-17.9,2.5-25.4,0
	c-1,1.9-1.6,3.9-1.8,6.1c-0.4-0.2-0.8-0.4-1.2-0.6c-0.5-0.3-1.1-0.3-1.6-0.1c-0.4,0.2-0.6,0.6-0.6,1c0,0.4,0,0.8,0.1,1.2
	c0.1,1.4,0.5,2.8,1.2,4.1c0.6,0.9,1.5,1.4,2.5,1.6c1,5.9,9.3,13.8,9.3,13.8c-25,1-25-16-25-32l3-6h10v-13h28
	C201.4,74.7,212.1,85.5,212.1,98.7z"/>
<path class="st1" d="M439.9,506.9L1.2,507.2c-0.7,0-1.2-0.5-1.2-1.2s0.5-1.2,1.2-1.2h0l438.8-0.3c0.7,0,1.2,0.5,1.2,1.2
	C441.1,506.4,440.6,506.9,439.9,506.9z"/>
<path class="st1" d="M732.9,506.9l-226.8,0.3c-0.7,0-1.2-0.5-1.2-1.2s0.5-1.2,1.2-1.2h0l226.8-0.3c0.7,0,1.2,0.5,1.2,1.2
	S733.6,506.9,732.9,506.9L732.9,506.9z"/>
<path class="st0" d="M450,148h-86c-7.5,0-13.5-6.1-13.5-13.5v-57c0-7.5,6.1-13.5,13.5-13.5h86c7.5,0,13.5,6.1,13.5,13.5v57
	C463.5,141.9,457.4,148,450,148z M364,66c-6.4,0-11.5,5.2-11.5,11.5v57c0,6.4,5.2,11.5,11.5,11.5h86c6.4,0,11.5-5.2,11.5-11.5v-57
	c0-6.4-5.2-11.5-11.5-11.5L364,66z"/>
<rect x="366.5" y="82" class="st0" width="23" height="2"/>
<rect x="366.5" y="90" class="st0" width="51" height="2"/>
<rect x="366.5" y="97" class="st0" width="51" height="2"/>
<rect x="366.5" y="104" class="st0" width="65" height="2"/>
<rect x="366.5" y="111" class="st0" width="34" height="2"/>
<rect x="366.5" y="118" class="st0" width="62" height="2"/>
<rect x="366.5" y="125" class="st0" width="11" height="2"/>
<path class="st1" d="M365.7,39c-0.1,0-0.2,0-0.3-0.1l-2.1-2.2c-0.1-0.1-0.1-0.4,0-0.5l2.1-2.2c0.1-0.1,0.4-0.1,0.5,0
	c0.1,0.1,0.2,0.4,0,0.5l-1.9,1.9l1.9,1.9c0.1,0.1,0.1,0.4,0,0.5C365.9,38.9,365.8,39,365.7,39L365.7,39z"/>
<path class="st1" d="M369.3,39c-0.1,0-0.2,0-0.3-0.1c-0.1-0.1-0.2-0.4,0-0.5l1.9-1.9l-1.9-1.9c-0.1-0.1-0.1-0.4,0-0.5
	c0.1-0.1,0.4-0.1,0.5,0l2.1,2.2c0.1,0.1,0.1,0.4,0,0.5l-2.1,2.2C369.5,38.9,369.4,39,369.3,39L369.3,39z"/>
<path class="st1" d="M481,33.5h-4c-0.5,0-0.8,0.4-0.8,0.8v4c0,0.5,0.4,0.8,0.8,0.8h4c0.5,0,0.8-0.4,0.8-0.8v-4
	C481.8,33.9,481.4,33.5,481,33.5z"/>
<path class="st1" d="M471.2,33.5h-4c-0.5,0-0.8,0.4-0.8,0.8v4c0,0.5,0.4,0.8,0.8,0.8h4c0.5,0,0.8-0.4,0.8-0.8v-4
	C472.1,33.9,471.7,33.5,471.2,33.5z"/>
<path class="st1" d="M490.1,33.7h-4c-0.5,0-0.8,0.4-0.8,0.8v4c0,0.5,0.4,0.8,0.8,0.8h4c0.5,0,0.8-0.4,0.8-0.8v-4
	C490.9,34.1,490.6,33.7,490.1,33.7z"/>
<path class="st1" d="M430.3,35.2h-31.7c-0.6,0-1,0.4-1,1s0.4,1,1,1h31.7c0.5,0,1-0.4,1-1S430.9,35.2,430.3,35.2z"/>
</svg>
