<?xml version="1.0" encoding="UTF-8"?>
<svg id="Layer_1" xmlns="http://www.w3.org/2000/svg" version="1.1" viewBox="0 0 873 528.7">
  <!-- Generator: Adobe Illustrator 29.1.0, SVG Export Plug-In . SVG Version: 2.1.0 Build 142)  -->
  <defs>
    <style>
      .st0 {
        fill: #2b1a11;
      }

      .st1 {
        fill: #e1b86c;
      }

      .st2 {
        fill: #ead8cd;
      }

      .st3 {
        fill: #9b9795;
      }

      .st4 {
        fill: #9ac5c7;
      }

      .st5 {
        fill: #3f3d56;
      }

      .st6 {
        fill: #56321c;
      }

      .st7 {
        fill: #fff;
      }

      .st8 {
        fill: #288185;
      }

      .st9 {
        fill: #a2785d;
      }

      .st10 {
        fill: #d5b19b;
      }
    </style>
  </defs>
  <path class="st3" d="M859.4,0H252.4c-4.8,0-8.7,3.9-8.7,8.7v411.3c0,4.8,3.9,8.7,8.7,8.7h607c2.6,0,5-1.1,6.6-3.1,0,0,.1-.2.2-.2.5-.6.9-1.3,1.2-2.1.4-1,.7-2.2.7-3.3V8.7C868.1,3.9,864.2,0,859.4,0ZM865.6,420c0,1.2-.4,2.4-1,3.4-.6.9-1.4,1.6-2.4,2.1-.9.5-1.9.7-2.9.7H252.4c-3.4,0-6.2-2.8-6.2-6.2V8.7c0-3.4,2.8-6.2,6.2-6.2h607c3.4,0,6.2,2.8,6.2,6.2v411.3Z"/>
  <rect class="st3" x="244.9" y="34.9" width="622" height="2.5"/>
  <circle class="st3" cx="266.1" cy="18.7" r="7.5"/>
  <circle class="st3" cx="287.6" cy="18.7" r="7.5"/>
  <circle class="st3" cx="309.1" cy="18.7" r="7.5"/>
  <path class="st2" d="M793.1,215.7h-485c-9.4,0-17-7.6-17-17v-103c0-9.4,7.6-17,17-17h485c9.4,0,17,7.6,17,17v103c0,9.4-7.6,17-17,17ZM308.1,80.7c-8.3,0-15,6.7-15,15v103c0,8.3,6.7,15,15,15h485c8.3,0,15-6.7,15-15v-103c0-8.3-6.7-15-15-15h-485Z"/>
  <path class="st2" d="M415.1,401.7h-107c-9.4,0-17-7.6-17-17v-76c0-9.4,7.6-17,17-17h107c9.4,0,17,7.6,17,17v76c0,9.4-7.6,17-17,17ZM308.1,293.7c-8.3,0-15,6.7-15,15v76c0,8.3,6.7,15,15,15h107c8.3,0,15-6.7,15-15v-76c0-8.3-6.7-15-15-15h-107Z"/>
  <path class="st2" d="M793.1,401.7h-107c-9.4,0-17-7.6-17-17v-76c0-9.4,7.6-17,17-17h107c9.4,0,17,7.6,17,17v76c0,9.4-7.6,17-17,17ZM686.1,293.7c-8.3,0-15,6.7-15,15v76c0,8.3,6.7,15,15,15h107c8.3,0,15-6.7,15-15v-76c0-8.3-6.7-15-15-15h-107Z"/>
  <path class="st2" d="M612.1,401.7h-107c-9.4,0-17-7.6-17-17v-76c0-9.4,7.6-17,17-17h107c9.4,0,17,7.6,17,17v76c0,9.4-7.6,17-17,17ZM505.1,293.7c-8.3,0-15,6.7-15,15v76c0,8.3,6.7,15,15,15h107c8.3,0,15-6.7,15-15v-76c0-8.3-6.7-15-15-15h-107Z"/>
  <rect class="st2" x="552" y="-116.7" width="2" height="527.4" transform="translate(278.8 649.2) rotate(-76.3)"/>
  <rect class="st2" x="289.2" y="146.2" width="522.9" height="2" transform="translate(-19.2 136.7) rotate(-13.9)"/>
  <path class="st7" d="M813.1,250.2h-485c-9.1,0-16.5-7.4-16.5-16.5v-103c0-9.1,7.4-16.5,16.5-16.5h485c9.1,0,16.5,7.4,16.5,16.5v103c0,9.1-7.4,16.5-16.5,16.5Z"/>
  <rect class="st2" x="557.3" y="265.7" width="2" height="162.5" transform="translate(-58.7 573.8) rotate(-52)"/>
  <rect class="st2" x="478.8" y="346.6" width="162" height="2" transform="translate(-94.5 425.9) rotate(-38.7)"/>
  <rect class="st2" x="360.3" y="265.7" width="2" height="162.5" transform="translate(-134.5 418.4) rotate(-52)"/>
  <rect class="st2" x="281.8" y="346.6" width="162" height="2" transform="translate(-137.6 302.8) rotate(-38.7)"/>
  <rect class="st2" x="738.3" y="265.7" width="2" height="162.5" transform="translate(11 716.5) rotate(-52)"/>
  <rect class="st2" x="659.8" y="346.6" width="162" height="2" transform="translate(-54.8 539) rotate(-38.7)"/>
  <path class="st8" d="M627.1,474.2h-107c-9.1,0-16.5-7.4-16.5-16.5v-76c0-9.1,7.4-16.5,16.5-16.5h107c9.1,0,16.5,7.4,16.5,16.5v76c0,9.1-7.4,16.5-16.5,16.5Z"/>
  <path class="st10" d="M683,475.7h-219c-.6,0-1-.4-1-1s.4-1,1-1h219c.6,0,1,.4,1,1s-.4,1-1,1Z"/>
  <path class="st10" d="M220,528.7H1c-.6,0-1-.4-1-1s.4-1,1-1h219c.6,0,1,.4,1,1s-.4,1-1,1Z"/>
  <path class="st7" d="M587.6,414.2h-28c-4.4,0-8-3.6-8-8s3.6-8,8-8h28c4.4,0,8,3.6,8,8s-3.6,8-8,8Z"/>
  <path class="st7" d="M604.1,441.2h-61c-4.4,0-8-3.6-8-8s3.6-8,8-8h61c4.4,0,8,3.6,8,8s-3.6,8-8,8Z"/>
  <path class="st8" d="M432.1,416.2h-107c-9.1,0-16.5-7.4-16.5-16.5v-76c0-9.1,7.4-16.5,16.5-16.5h107c9.1,0,16.5,7.4,16.5,16.5v76c0,9.1-7.4,16.5-16.5,16.5Z"/>
  <path class="st7" d="M392.6,356.2h-28c-4.4,0-8-3.6-8-8s3.6-8,8-8h28c4.4,0,8,3.6,8,8s-3.6,8-8,8Z"/>
  <path class="st7" d="M409.1,383.2h-61c-4.4,0-8-3.6-8-8s3.6-8,8-8h61c4.4,0,8,3.6,8,8s-3.6,8-8,8Z"/>
  <path class="st1" d="M816.1,445.2h-107c-9.1,0-16.5-7.4-16.5-16.5v-76c0-9.1,7.4-16.5,16.5-16.5h107c9.1,0,16.5,7.4,16.5,16.5v76c0,9.1-7.4,16.5-16.5,16.5Z"/>
  <path class="st7" d="M776.6,385.2h-28c-4.4,0-8-3.6-8-8s3.6-8,8-8h28c4.4,0,8,3.6,8,8s-3.6,8-8,8Z"/>
  <path class="st7" d="M793.1,412.2h-61c-4.4,0-8-3.6-8-8s3.6-8,8-8h61c4.4,0,8,3.6,8,8s-3.6,8-8,8Z"/>
  <polygon class="st9" points="301.3 346.6 301.3 334.3 254.1 328.5 254.1 346.6 301.3 346.6"/>
  <path class="st0" d="M312.7,310.7v38.5h0-14.9s0-23.6,0-23.6c0-8.2,6.7-14.9,14.9-14.9h0s0,0,0,0Z"/>
  <polygon class="st9" points="90.8 514.9 103 514.9 108.8 467.6 90.8 467.6 90.8 514.9"/>
  <path class="st0" d="M126.7,526.3h-38.5s0-14.9,0-14.9h23.6c8.2,0,14.9,6.7,14.9,14.9h0Z"/>
  <path class="st6" d="M105.9,497.9c-.1,0-.3,0-.4,0l-16.7-1.4c-2.8-.2-4.9-2.7-4.7-5.5,0,0,0-.2,0-.2l8.7-67.4c0-.3,0-.5,0-.8l-13.8-108.6c-.4-2.8,1.6-5.4,4.5-5.7.2,0,.4,0,.6,0l48.7-.7c.2,0,.5,0,.7,0h.1s9.4,4.1,9.4,4.1l136.2,15c2.6.3,4.5,2.5,4.5,5.1v17.5c0,2.8-2.3,5.1-5.1,5.1-.2,0-.4,0-.6,0l-78.7-9.2c-.4,0-.8,0-1.2,0l-62.2,17.1c-1.2.3-2,1.3-2.2,2.5l-22.6,128.8c-.4,2.5-2.6,4.3-5.1,4.3Z"/>
  <circle class="st0" cx="101.9" cy="175.4" r="33.6"/>
  <circle class="st0" cx="90.2" cy="140.1" r="13.9"/>
  <path class="st0" d="M71.7,132.6c0-7.1,5.4-13.1,12.4-13.8-.5,0-1,0-1.4,0-7.7,0-13.9,6.2-13.9,13.9,0,7.7,6.2,13.9,13.9,13.9.5,0,1,0,1.4,0-7.1-.7-12.4-6.7-12.4-13.8Z"/>
  <path class="st4" d="M105.9,326.3c-8.3,0-17.6-2.3-27.3-8.7h-.2c0-.1,0-.3,0-.3,0-.4-9-38-9.1-67.1-.1-10.4,4.8-20.2,13.2-26.3,8.1-6,18.6-7.8,28.2-4.7h0c.6.2,1.3.4,1.9.6,13.5,5,21.9,18.4,20.7,32.8-1.3,15.4-1.8,43.4,9.1,58.2l.3.3-.3.3c-.2.2-15.3,14.9-36.3,14.9Z"/>
  <circle class="st9" cx="101.8" cy="186.1" r="24.6"/>
  <path class="st9" d="M71.7,184.5c1.3,5.4-2,10.8-7.4,12.2-.6.1-1.2.2-1.8.3l-9.5,34.5-12.2-14,10.9-30.6c0-5.6,4.5-10.1,10.1-10.1,4.7,0,8.7,3.2,9.8,7.7Z"/>
  <path class="st4" d="M34.5,260.4c-5.3,0-9.5-4.3-9.5-9.6,0-1.1.2-2.1.6-3.2l18-50.6c.9-2.4,3.5-3.8,6-3.2l13.1,3.5c2.7.7,4.3,3.5,3.6,6.1,0,.2,0,.3-.1.5l-11.6,31.2,19.6-6.2c6.7-2.1,13.9,1.6,16,8.3,2.1,6.7-1.6,13.9-8.3,16-.6.2-1.3.4-2,.5l-44,6.6c-.5,0-1,.1-1.4.1Z"/>
  <ellipse class="st0" cx="105.8" cy="168.3" rx="23.1" ry="13.9"/>
  <path class="st9" d="M176.3,334.5c-5.4-1.5-8.5-7-7.1-12.3.2-.6.4-1.1.6-1.7l-25.5-25,18.2-3.9,21.4,24.4c4.9,2.7,6.6,8.9,3.9,13.8-2.3,4.1-7,6.1-11.5,4.8Z"/>
  <path class="st4" d="M164.5,320.9c-1.4,0-2.7-.6-3.6-1.7l-27.8-33.8-21.8-41.8c-1.4-4.3-.6-8.9,2.1-12.5,2.6-3.5,6.7-5.5,11-5.4,1.1,0,2.2.1,3.2.4,4.4,1,8,4.1,9.6,8.4l18.5,43.4,22.1,27.9c1.6,2,1.2,4.9-.7,6.5l-9.6,7.8c-.8.7-1.8,1-2.9,1Z"/>
  <path class="st10" d="M872,446.7h-219c-.6,0-1-.4-1-1s.4-1,1-1h219c.6,0,1,.4,1,1s-.4,1-1,1Z"/>
  <path class="st8" d="M679.4,248.4v1.3h-213.7v-1.3l1.2-1.6,67.8-95.6c1.1-1.5,3.2-1.9,4.7-.8.3.2.6.5.8.8l45.4,64.1,32.3-45.3c1.1-1.5,3.2-1.8,4.7-.8.3.2.5.5.8.8l54.9,76.8,1.1,1.6Z"/>
  <circle class="st8" cx="465.2" cy="159.9" r="24.9"/>
  <path class="st5" d="M813.1,250.7h-485c-9.4,0-17-7.6-17-17v-103c0-9.4,7.6-17,17-17h485c9.4,0,17,7.6,17,17v103c0,9.4-7.6,17-17,17ZM328.1,115.7c-8.3,0-15,6.7-15,15v103c0,8.3,6.7,15,15,15h485c8.3,0,15-6.7,15-15v-103c0-8.3-6.7-15-15-15h-485Z"/>
</svg>