<?xml version="1.0" encoding="UTF-8"?>
<svg id="Layer_1" xmlns="http://www.w3.org/2000/svg" version="1.1" viewBox="0 0 524.7 393">
  <!-- Generator: Adobe Illustrator 29.1.0, SVG Export Plug-In . SVG Version: 2.1.0 Build 142)  -->
  <defs>
    <style>
      .st0 {
        fill: #ead8cd;
      }

      .st1 {
        fill: #9ac5c7;
      }

      .st2 {
        fill: #56321c;
      }

      .st3 {
        fill: #268184;
      }

      .st4 {
        fill: #5c5755;
      }

      .st5 {
        fill: #a2785d;
      }

      .st6 {
        fill: #d5b19b;
      }

      .st7 {
        fill: #ecd09d;
      }
    </style>
  </defs>
  <polygon class="st5" points="146.1 297.5 116.4 300.7 102.3 291.1 94.1 300.7 98 321.1 102.5 337.2 129.9 323.3 151.9 321.3 146.1 297.5"/>
  <polygon class="st4" points="296.1 263.4 224.6 262.1 137.7 298.8 149.3 323.9 227.8 302 349.5 336.8 332.8 254.4 296.1 263.4"/>
  <path class="st2" d="M100.1,299.8l14.2-1.1-18.1-38.2s-8.4-3-9.7,6.2c-1.3,9.2,9.7,71.5,12.9,71.5s14-6.3,14-6.3l-16-30.3,2.7-1.8h0Z"/>
  <path class="st0" d="M456.4,289.4c-1.4.1-3,.4-4.6.7-7,1.4-7.2,6.2-7.1,7.3h0c-.7,1.1-1.1,2.3-1.4,3.4l-.3-14.6c.2-.4.4-.9.6-1.4.5,1.6,1.4,3.1,2.1,3,1-.1,1.4-3,1.2-5,1.2,1.6,3.3,3.3,4.1,2.8.6-.4.2-2.1-.4-3.7,1.4.9,3,1.4,3.5.9s-.9-3.3-2.4-4.7c2,.2,4.5-.1,4.6-1,.1-.7-1.4-1.7-3-2.3,1.6-.4,3.1-1.2,3-1.9-.1-.9-2.3-1.5-4.2-1.5,1.5-1.1,2.8-2.7,2.4-3.4-.4-.6-2.1-.4-3.7.2,1-1.4,1.6-2.9,1.1-3.4s-2.9.5-4.4,1.7c.3-1.9.1-4.4-.7-4.6-.7-.2-1.8,1.2-2.5,2.8-.3-1.6-1-3.2-1.7-3.2-1,0-1.9,3.1-1.9,5.2v.3l-.4-.4c-1.5-1.4-4.3-3-5-2.3s.2,2,1.1,3.4c-1.6-.6-3.4-.8-3.7-.2-.5.9,1.6,3.1,3.4,4.1h-.3c-2-.1-5.2.5-5.3,1.5,0,.7,1.5,1.5,3,1.9-1.6.6-3.1,1.5-3,2.3.2.9,2.7,1.2,4.6,1-1.5,1.4-3.1,3.9-2.4,4.7.5.5,2.1,0,3.5-.9-.7,1.6-1,3.3-.4,3.7.8.5,3.1-1.4,4.3-3-.1,2,.4,4.8,1.3,4.9.4,0,.8-.4,1.2-1l-1.1,15.7c-.2,1.8,1.4,3,1.5,3.8l.2,10.7c-.3-.8-.6-1.5-1.1-2.3h0c.1-1.1-.1-5.9-7.1-7.3-1.7-.3-3.2-.6-4.6-.7-1.7-.2-2.4,2.1-.8,2.9,2.2,1.1,4.3,2.4,5.4,4,2.8,4.1,6.6,1.7,7.1,1.4.6,1,1,2,1.3,3v5.7c.1.1.1.2.1.2h.1l.3,13.7h2.8l-1-14c.2-.8.7-3.3,0-6l-1-11h0s.1.3,0,0l-1.3-4.3c.2-1.3.6-2.8,1.5-4.3.5.4,4.4,2.8,7.1-1.4,1.1-1.6,3.2-3,5.4-4,1.3-1,.6-3.3-1-3.1h0ZM443.6,321.8v-2.4,2.4Z"/>
  <path class="st6" d="M0,337.1c0,.7.5,1.2,1.2,1.2h522.3c.7,0,1.2-.5,1.2-1.2s-.5-1.2-1.2-1.2H1.2c-.7,0-1.2.5-1.2,1.2Z"/>
  <path class="st7" d="M378.2,174.2l-33.5-1.3-10.4,21.4-16,94.6,84,19s5.1-105.6-6.4-120.4-17.7-13.3-17.7-13.3h0Z"/>
  <path id="uuid-6491ea2e-b6df-4d87-9577-65b18a9d314e-38" class="st5" d="M280.1,100.2c-1.4-7.4-6.4-12.8-11.1-11.9s-7.5,7.7-6.1,15.1c.5,3,1.7,5.8,3.6,8.2l6.3,31.5,12.5-2.5-5.5-31.5c.8-2.9.9-6,.3-8.9h0Z"/>
  <polygon class="st7" points="373.2 182.8 304.8 169.3 285.6 111.5 264 116.6 285.6 202 363 212.2 373.2 182.8"/>
  <path class="st1" d="M269,7.6h0l-.2.2c-10.4-10.3-27-10.4-37.5-.2h0c-10.5,10.2-10.9,27-.8,37.6h0l.2.3h0l37.1,38.2,38.4-37.3h-.1q.1-.2.2-.3h0c10.6-10.3,10.9-27.2.5-37.8h0c-10.2-10.8-27.2-11-37.8-.7h0Z"/>
  <path class="st3" d="M278.2,196.8h0c-.1.1-.2.2-.4.4-19.1-18.9-49.8-19.1-69.1-.4h0c-19.3,18.8-20,49.6-1.5,69.2h0l.5.5h0l68.2,70.3,70.7-68.7-.2-.2c.1-.1.2-.2.4-.3h0c19.5-19,20-50.2,1-69.7h0c-18.9-19.6-50.1-20.1-69.6-1.1h0Z"/>
  <polygon class="st5" points="275.3 322.8 269.4 341 257.2 358.1 266.6 372.1 296.3 352.6 296.2 342.5 291.6 336.2 288.3 324.1 275.3 322.8"/>
  <path class="st4" d="M382.5,275.1s25.3,21,15.9,33.8-41.2,35.6-55.6,28.5-44.3-58.3-44.3-58.3l-7.8,52.5-20.5-1.8s-14.9-74.1-1.2-85.5c13.7-11.4,76.1,8.7,76.1,8.7l37.4,22.1h0Z"/>
  <path class="st2" d="M265.9,365.2l-7.5-12.1-25.7,33.5s1.2,8.8,10,5.7,63.2-31,61.7-33.8-7.5-18.3-7.5-18.3l-28.1,26.4-2.9-1.4h0Z"/>
  <path id="uuid-c0c993a8-d454-4668-92ed-b9c18bfd3ed5-39" class="st5" d="M281.7,274.9c-7.5.8-13.3,5.2-12.8,10s7,8.1,14.5,7.3c3-.3,5.9-1.2,8.5-2.9l31.9-3.6-1.5-12.6-31.8,2.8c-2.7-.9-5.8-1.3-8.8-1h0Z"/>
  <polygon class="st7" points="372.1 189.3 352.8 256.3 293.5 270.5 296.7 292.4 383.7 278.2 400.5 201.9 372.1 189.3"/>
  <circle class="st5" cx="361.3" cy="133.5" r="27.4"/>
  <path class="st2" d="M363.5,96.7c-.8.5-1.9-.2-2.1-1.1s0-1.8.3-2.7c.5-1.5,1-2.9,1.5-4.4,1-3.1,2.2-6.3,4.4-8.7,3.4-3.6,8.9-4.5,13.8-3.8,6.3.8,12.5,4.2,15.4,9.9,2.9,5.6,1.7,13.5-3.6,17,7.5,8.6,10.1,18.2,9.7,29.7-.4,11.4-12.9,22-21,30-1.8-1.1-3.5-6.3-2.5-8.1,1-1.9-.4-4.1.8-5.8s2.3,1,1-.7c-.8-1.1,2.3-3.6,1.1-4.2-5.7-3.1-7.6-10.2-11.1-15.6-4.3-6.5-11.7-11-19.4-11.7-4.3-.4-8.8.3-12.3,2.8s-5.8,6.9-5,11.2c-2.1-2.1-3.2-5.3-2.8-8.3.4-3,2.2-5.7,4.8-7.3-1.6-5.2-.2-11.2,3.4-15.3s18.5-3.3,23.9-2.3l-.3-.6h0Z"/>
  <path class="st2" d="M364.3,116.6c7.1.8,12.2,6.9,16.5,12.6,2.5,3.3,5.1,6.9,5,11s-2.8,7.7-4.2,11.7c-2.2,6.4-.1,14.1,5.1,18.5-5.1,1-10.6-2.9-11.5-8-1-6,3.5-11.7,3-17.7-.5-5.3-4.6-9.4-8.2-13.4s-6.9-9.2-5.3-14.3l-.4-.4h0Z"/>
</svg>