<?xml version="1.0" encoding="UTF-8"?>
<svg id="Layer_1" xmlns="http://www.w3.org/2000/svg" version="1.1" viewBox="0 0 637.6 599.7">
  <!-- Generator: Adobe Illustrator 29.1.0, SVG Export Plug-In . SVG Version: 2.1.0 Build 142)  -->
  <defs>
    <style>
      .st0 {
        fill: #2b1a11;
      }

      .st1 {
        fill: #ead8cd;
      }

      .st2 {
        fill: #2f2e41;
      }

      .st3 {
        fill: #644b3c;
      }

      .st4 {
        fill: #56321c;
      }

      .st5 {
        fill: #dfdddc;
      }

      .st6 {
        fill: #c08a69;
      }

      .st7 {
        fill: #268184;
      }

      .st8 {
        fill: #f7f7f7;
      }

      .st9 {
        fill: #bdbab8;
      }

      .st10 {
        fill: #d5b19b;
      }
    </style>
  </defs>
  <path class="st3" d="M562.7,262.6c-.1-5.1-4.4-9.2-9.5-9.2-.5,0-1,0-1.5.1l-16.6-28.7-17.5,3.3,27,36.8c1.1,4.2,4.9,7.1,9.2,7,5,0,9-4.2,9-9.2,0,0,0-.2,0-.2Z"/>
  <polygon class="st3" points="506.3 581 492.4 581 485.8 527.5 506.3 527.5 506.3 581"/>
  <path class="st0" d="M506.8,595.5h-42.7v-.5c0-9.2,7.4-16.6,16.6-16.6h0l7.8-5.9,14.6,5.9h3.7s0,17.2,0,17.2Z"/>
  <polygon class="st3" points="520.9 501.2 511.6 511.5 467.5 480.3 481.4 465.1 520.9 501.2"/>
  <path class="st0" d="M532,510.6l-28.8,31.6-.4-.4c-6.8-6.2-7.3-16.7-1.1-23.5h0s.9-9.8.9-9.8l14.2-6.8,2.5-2.8,12.7,11.6Z"/>
  <path class="st4" d="M417,225.3l-26,47.4,2,34-11,110,103,86,13-19-58-74,.7-5.2c-2.1-3.2-1.6-7.4,1.3-10,5-4.8.7-5.6.7-5.6l8.2-62.1,59-11.8-24.7-93.4-68.2,3.8Z"/>
  <path class="st4" d="M452,292.6l31,261,27,2.7v-91.2s-5-5,0-7.2,0-10.8,0-10.8v-132.3l-25-39.2-33,17Z"/>
  <path class="st6" d="M397,74.6l-24,9-14,32s-32,16-20,38,60.3,70.3,60.3,70.3c-5.9,11.5-3.9,20.4,5.7,26.7,12.5,20.1,47.7,10.3,87-5,7.3-17.7-4-45.2-15-72.5l3-36.5s-34.5-50.2-40-50-27-2-27-2l-16-10Z"/>
  <path class="st6" d="M431,91.7h0c7.7-7.3,19.9-7,27.2.7.9.9,1.6,1.9,2.3,3l52.3,82.9c5,2.4,7.5,7.7,9,14.3,3.7-1.3,6.6,1.2,7.4,11.7l19.7,31.3-18,20-24.9-33c-5.8-1.5-3.1-9.8-7.1-9.4s-5.9-7.9-5.9-7.9c-5.1,0-6.5-2.4-5.1-6.7l-51-72.9-6-34Z"/>
  <path class="st3" d="M208.5,89.9c1.6,4.9,6.8,7.6,11.7,6.2.5-.1.9-.3,1.4-.6l24,22.8,15.9-8.1-36.3-27.7c-2.2-3.7-6.7-5.4-10.8-4.2-4.8,1.5-7.5,6.5-6,11.3h0c0,0,0,.2,0,.2Z"/>
  <path class="st6" d="M357,124.6l-33,10-23.3-3.7-5.2-3.7c-2.2-6.1-6.8-8.9-12.8-9.7,0,0-4.9,1.7-4.8-3.6s-31.9-24.3-31.9-24.3l-14,25,18,22c6.4.2,10.3-.6,7,7,1.4,7.4.4,5.7,5.9,5.8l28.1,28.2,59,9,37.5-13.2-30.5-48.8Z"/>
  <circle class="st3" cx="365.2" cy="42.8" r="30.7"/>
  <path class="st2" d="M384.9,42.2c0-.3,0-.7-.1-1,0,.3,0,.7.1,1Z"/>
  <path class="st0" d="M322.5,21.7c-.5-3.7,1.5-7.9,5.1-8.9,2.2-.6,4.6,0,6.9,0,6.5.1,18.1-10.7,24.4-12.4,6.3-1.7,14.4,1.8,14.9,8.3,16.1-4.8,28.4,6,29.1,23.1.6,13.4-10.8,31.6-22.8,37.5-1.5-7.8,4-19.4,2.5-27.2-.3-2.1-.9-4.2-2-6.1-1.2-1.8-3.4-3.1-5.5-2.5-1.8.5-2.8,2.3-2.5,4.1-4.1-6.9-12.9-9.2-19.8-5.1-1.7,1-3.2,2.4-4.4,4l1.7-7c-4.3,4.7-9.9,8.1-16.1,9.8-.4-.4-.6-.9-.8-1.5-.4-1.1-.1-2.4.7-3.2-1.7,1.3-2.8,3.2-3,5.3-3.7.6-7.5-.1-10.7-2.1-3.1-2.1,2.7-12.5,2.1-16.2Z"/>
  <path class="st1" d="M603.1,598.7h-33.2v-.3c-.6-.8-1-1.6-1.4-2.4-3.4-7.3-4.9-15.7-6.1-23.1l-1-5.6c-.3-1.9.9-3.6,2.8-4,.9-.2,1.9,0,2.6.6,5,3.7,10.1,7.3,15.1,11,1.9,1.4,4.1,3,6.2,4.7.2-1,.4-2,.6-2.9.4-1.9,2.2-3,4.1-2.6.9.2,1.7.8,2.2,1.5l3.9,6.2c2.8,4.6,5.3,9,4.8,13.9,0,0,0,.1,0,.2-.1.8-.3,1.6-.6,2.3v.3Z"/>
  <path class="st10" d="M636.4,599.4l-315.4.3c-.7,0-1.2-.5-1.2-1.2,0-.7.5-1.2,1.2-1.2l315.4-.3c.7,0,1.2.5,1.2,1.2,0,.7-.5,1.2-1.2,1.2Z"/>
  <path class="st8" d="M276,472.6H23C10.3,472.6,0,462.3,0,449.6V109.6c0-12.7,10.3-23,23-23h253c12.7,0,23,10.3,23,23v340c0,12.7-10.3,23-23,23Z"/>
  <path class="st5" d="M276,472.6H23C10.3,472.6,0,462.3,0,449.6V109.6c0-12.7,10.3-23,23-23h253c12.7,0,23,10.3,23,23v340c0,12.7-10.3,23-23,23ZM23,88.6c-11.6,0-21,9.4-21,21v340c0,11.6,9.4,21,21,21h253c11.6,0,21-9.4,21-21V109.6c0-11.6-9.4-21-21-21H23Z"/>
  <circle class="st9" cx="60.5" cy="189.9" r="9"/>
  <path class="st9" d="M245.5,190.9H91.3c-.6,0-1-.4-1-1s.4-1,1-1h154.2c.6,0,1,.4,1,1s-.4,1-1,1Z"/>
  <circle class="st9" cx="61" cy="356.9" r="9"/>
  <circle class="st9" cx="60.6" cy="261.5" r="9"/>
  <path class="st7" d="M243.5,215.5h-40c-2.2,0-4-1.8-4-4s1.8-4,4-4h40c2.2,0,4,1.8,4,4s-1.8,4-4,4Z"/>
  <path class="st7" d="M243.5,314.5h-40c-2.2,0-4-1.8-4-4s1.8-4,4-4h40c2.2,0,4,1.8,4,4s-1.8,4-4,4Z"/>
  <path class="st7" d="M214.7,140.9h-114.9c-5.8,0-10.6-4.7-10.6-10.6s4.7-10.6,10.6-10.6h114.9c5.8,0,10.6,4.7,10.6,10.6s-4.7,10.6-10.6,10.6Z"/>
  <path class="st7" d="M243.5,439.5h-40c-2.2,0-4-1.8-4-4s1.8-4,4-4h40c2.2,0,4,1.8,4,4s-1.8,4-4,4Z"/>
  <path class="st5" d="M235.7,414.9H101.1c-.8,0-1.7-.1-2.5-.3-5.1-1.2-8.6-5.8-8.6-11v-45.7c0-6.2,5.1-11.3,11.3-11.3h134.4c1.8,0,3.6.4,5.2,1.3.6.3,1.2.7,1.8,1.2,2.7,2.1,4.3,5.4,4.3,8.8v45.7c0,6.2-5.1,11.3-11.3,11.3ZM101.3,348.6c-5.1,0-9.3,4.2-9.3,9.3v45.7c0,4.3,2.9,8,7.1,9,.7.2,1.4.3,2.1.3h134.6c5.1,0,9.3-4.2,9.3-9.3v-45.7c0-2.8-1.3-5.5-3.5-7.3-.5-.4-1-.7-1.5-1-1.3-.7-2.8-1.1-4.3-1H101.3Z"/>
  <path class="st5" d="M226.7,413.9c6.1-14.9,12.5-29.6,19.3-44.1v24.7c-4.6,7-9.9,13.5-15.9,19.4h-3.4Z"/>
  <path class="st5" d="M242.1,349.8c-12.1,21.7-24.7,43.1-38,64.1h-2.3c13.4-21.4,26.3-43.1,38.6-65.1.6.3,1.1.7,1.6,1.1Z"/>
  <path class="st5" d="M153.4,373.5c-7.9,14-16.6,27.5-26.1,40.4h-13.7c9-10.9,18-21.9,27-32.8,2.6-3.2,5.4-6.5,9.2-7.7h3.6Z"/>
  <path class="st7" d="M135.2,371.3c-1.4,1.5-2.8,3-4.1,4.7-2.8,3.4-5.6,6.9-8.5,10.3-1.8,2.1-3.5,4.3-5.2,6.4-.5-.4-1.1-.7-1.6-1.2-5.8-5.1-6.5-13.9-1.4-19.7,4.9-5.7,13.4-6.4,19.3-1.8.5.4,1,.8,1.5,1.3Z"/>
  <path class="st5" d="M212.5,381l-26.3-9.6-13-4.8c-4.2-1.5-8.5-3.3-12.9-4.4-3.8-1.1-7.9-1-11.7.1-3.4,1.3-6.5,3.2-9.1,5.6-1.2,1.1-2.3,2.2-3.4,3.3-1.4,1.5-2.8,3-4.1,4.7-2.8,3.4-5.6,6.9-8.5,10.3-1.8,2.1-3.5,4.3-5.2,6.4-5.8,7.1-11.5,14.2-17.2,21.3-.8,0-1.5-.1-2.3-.3,6-7.4,11.9-14.8,18-22.2.7-.9,1.4-1.7,2.1-2.6,2.9-3.6,5.9-7.2,8.8-10.8,2.3-2.8,4.5-5.6,7-8.2.2-.2.4-.5.7-.7,5-5.2,11.2-9.7,18.7-9.8,4.4,0,8.6,1.3,12.7,2.8,4.4,1.6,8.8,3.2,13.2,4.8l26.5,9.7,6.6,2.4c1.2.4.7,2.3-.5,1.9Z"/>
  <path class="st5" d="M127,289.7h-31.2c-3.5,0-6.3-2.8-6.3-6.3v-29.2c0-3.5,2.8-6.3,6.3-6.3h31.2c3.5,0,6.3,2.8,6.3,6.3v29.2c0,3.5-2.8,6.3-6.3,6.3Z"/>
  <path class="st5" d="M182.7,289.7h-31.2c-3.5,0-6.3-2.8-6.3-6.3v-29.2c0-3.5,2.8-6.3,6.3-6.3h31.2c3.5,0,6.3,2.8,6.3,6.3v29.2c0,3.5-2.8,6.3-6.3,6.3Z"/>
  <path class="st5" d="M238.3,289.7h-31.2c-3.5,0-6.3-2.8-6.3-6.3v-29.2c0-3.5,2.8-6.3,6.3-6.3h31.2c3.5,0,6.3,2.8,6.3,6.3v29.2c0,3.5-2.8,6.3-6.3,6.3Z"/>
</svg>