<?xml version="1.0" encoding="UTF-8"?>
<svg id="Layer_1" xmlns="http://www.w3.org/2000/svg" version="1.1" viewBox="0 0 802.6 507.2">
  <!-- Generator: Adobe Illustrator 29.1.0, SVG Export Plug-In . SVG Version: 2.1.0 Build 142)  -->
  <defs>
    <style>
      .st0 {
        fill: #ead8cd;
      }

      .st1 {
        fill: #5da1a3;
      }

      .st2 {
        fill: #3d3a39;
      }

      .st3 {
        fill: #9b9795;
      }

      .st4 {
        fill: #7a7471;
      }

      .st5 {
        fill: #56321c;
      }

      .st6 {
        fill: #dfdddc;
      }

      .st7 {
        fill: #c08a69;
      }

      .st8 {
        fill: #268184;
      }

      .st9 {
        fill: #f7f7f7;
      }

      .st10 {
        fill: #288185;
      }

      .st11 {
        fill: #a2785d;
      }

      .st12 {
        fill: #bdbab8;
      }

      .st13 {
        fill: #d5b19b;
      }

      .st14 {
        fill: #2b190e;
      }
    </style>
  </defs>
  <path class="st0" d="M706.8,463.9l.8-17.6c8.1-4.4,17.2-6.7,26.5-6.7-12.8,10.4-11.2,30.4-19.8,44.4-5.5,8.8-14.7,14.6-25,15.8l-10.6,6.5c-3-16.5,1.5-33.4,12.1-46.4,3-3.6,6.4-6.7,10.2-9.4,2.4,6.7,5.8,13.4,5.8,13.4Z"/>
  <path class="st0" d="M168.8,444.6l-25.7-7.8c-3.4-13.7-3.3-28,.1-41.7,10.6,22.7,40.8,27.9,58.2,45.9,10.9,11.5,16,27.3,13.9,42.9l5.6,18.2c-25.5-1.8-48.8-14.7-64-35.3-4.1-5.7-7.5-12-10.1-18.6,10.9-1.1,22-3.6,22-3.6Z"/>
  <path class="st7" d="M617.8,503.4c0,.5-.2,1-.6,1.4-.4.4-.9.6-1.4.6h-8c-1.1,0-2-.9-2-2v-243.1c0-5.4-1.8-9.7-4-9.7H101.2c-2.2,0-4,4.4-4,9.7v241.6c0,1-.8,1.9-1.8,2-1.6.2-3.2.3-4.9.4h0c-.9.1-1.8.1-2.6.2h0c-.5-.8-.9-1.7-1.4-2.5,0-.3-.2-.6-.2-.9v-253.4c0-1.5,0-3,.2-4.4,0-2,.4-4,.8-6,1.7-9.3,5.5-15.6,9.9-15.6h509c.6,0,1.3.1,1.8.4.9.4,1.6.9,2.3,1.6.9.9,1.6,1.9,2.2,3,2.1,3.8,3.7,9.4,4.2,15.9v.2c0,1.6.2,3.3.2,4.9v21.4c0,0,.2,12.8.2,12.8l.3,40.1v14.2c0,0,.5,167.2.5,167.2Z"/>
  <path class="st12" d="M432,147.5h-51c-1.5,0-2.7,1.2-2.7,2.7v80.6h56.4v-80.6c0-1.5-1.2-2.7-2.7-2.7h0ZM406.7,193.3c-3.3,0-6-2.7-6-6v-9.3c0-3.3,2.7-6,6-6s6,2.7,6,6v9.3c0,3.3-2.7,6-6,6Z"/>
  <path class="st6" d="M378.1,228.2v7.8c0,.8.7,1.5,1.5,1.5h53.8c.8,0,1.5-.7,1.5-1.5v-7.8h-56.8Z"/>
  <path class="st4" d="M516.5,21.7h-218c-3.9,0-7.1,3.2-7.1,7.1v147.1c0,3.9,3.2,7.1,7.1,7.1h218c3.9,0,7.1-3.2,7.1-7.1V28.8c0-3.9-3.2-7.1-7.1-7.1Z"/>
  <path class="st9" d="M514.7,26.8h-214.4c-2.1,0-3.8,1.7-3.8,3.8v143.5c0,2.1,1.7,3.8,3.8,3.8h214.4c2.1,0,3.8-1.7,3.8-3.8V30.6c0-2.1-1.7-3.7-3.8-3.8Z"/>
  <path class="st4" d="M472.9,240.2h-127.5c-1.3,0-2.3-1.1-2.3-2.3s0-.3.1-.5l2-9.4c.2-1.1,1.2-1.9,2.3-1.9h123.6c1.1,0,2.1.8,2.3,1.9l2,9.4c.3,1.3-.5,2.5-1.8,2.8h-.7Z"/>
  <path class="st6" d="M348.9,228h3c.3,0,.5.2.5.5v1.4c0,.3-.2.5-.5.5h-3c-.3,0-.5-.2-.5-.5v-1.4c.1-.3.3-.5.5-.5Z"/>
  <path class="st6" d="M356.8,228h3c.3,0,.5.2.5.5v1.4c0,.3-.2.5-.5.5h-3c-.3,0-.5-.2-.5-.5v-1.4c0-.3.2-.5.5-.5Z"/>
  <path class="st6" d="M364.7,228h3c.3,0,.5.2.5.5v1.4c0,.3-.2.5-.5.5h-3c-.3,0-.5-.2-.5-.5v-1.4c0-.3.2-.5.5-.5Z"/>
  <path class="st6" d="M372.5,228h3c.3,0,.5.2.5.5v1.4c0,.3-.2.5-.5.5h-3c-.3,0-.5-.2-.5-.5v-1.4c0-.3.2-.5.5-.5Z"/>
  <path class="st6" d="M380.4,228h3c.3,0,.5.2.5.5v1.4c0,.3-.2.5-.5.5h-3c-.3,0-.5-.2-.5-.5v-1.4c0-.3.2-.5.5-.5Z"/>
  <path class="st6" d="M388.2,228h3c.3,0,.5.2.5.5v1.4c0,.3-.2.5-.5.5h-3c-.3,0-.5-.2-.5-.5v-1.4c0-.3.3-.5.5-.5Z"/>
  <path class="st6" d="M396.1,228h3c.3,0,.5.2.5.5v1.4c0,.3-.2.5-.5.5h-3c-.3,0-.5-.2-.5-.5v-1.4c0-.3.2-.5.5-.5Z"/>
  <path class="st6" d="M403.7,227.8h3c.3,0,.5.2.5.5v1.4c0,.3-.2.5-.5.5h-3c-.3,0-.5-.2-.5-.5v-1.4c0-.3.3-.5.5-.5Z"/>
  <path class="st6" d="M411.6,227.8h3c.3,0,.5.2.5.5v1.4c0,.3-.2.5-.5.5h-3c-.3,0-.5-.2-.5-.5v-1.4c0-.3.2-.5.5-.5Z"/>
  <path class="st6" d="M419.4,227.8h3c.3,0,.5.2.5.5v1.4c0,.3-.2.5-.5.5h-3c-.3,0-.5-.2-.5-.5v-1.4c.1-.3.3-.5.5-.5Z"/>
  <path class="st6" d="M427.3,227.8h3c.3,0,.5.2.5.5v1.4c0,.3-.2.5-.5.5h-3c-.3,0-.5-.2-.5-.5v-1.4c0-.3.2-.5.5-.5Z"/>
  <path class="st6" d="M435.2,227.8h3c.3,0,.5.2.5.5v1.4c0,.3-.2.5-.5.5h-3c-.3,0-.5-.2-.5-.5v-1.4c0-.3.2-.5.5-.5Z"/>
  <path class="st6" d="M443,227.8h3c.3,0,.5.2.5.5v1.4c0,.3-.2.5-.5.5h-3c-.3,0-.5-.2-.5-.5v-1.4c0-.3.2-.5.5-.5Z"/>
  <path class="st6" d="M450.9,227.8h3c.3,0,.5.2.5.5v1.4c0,.3-.2.5-.5.5h-3c-.3,0-.5-.2-.5-.5v-1.4c0-.3.2-.5.5-.5Z"/>
  <path class="st6" d="M458.7,227.8h3c.3,0,.5.2.5.5v1.4c0,.3-.2.5-.5.5h-3c-.3,0-.5-.2-.5-.5v-1.4c0-.3.3-.5.5-.5Z"/>
  <path class="st6" d="M466.6,227.8h3c.3,0,.5.2.5.5v1.4c0,.3-.2.5-.5.5h-3c-.3,0-.5-.2-.5-.5v-1.4c0-.3.2-.5.5-.5Z"/>
  <path class="st6" d="M348.9,232h3c.3,0,.5.2.5.5v1.4c0,.3-.2.5-.5.5h-3c-.3,0-.5-.2-.5-.5v-1.4c0-.3.2-.5.5-.5Z"/>
  <path class="st6" d="M356.7,232h3c.3,0,.5.2.5.5v1.4c0,.3-.2.5-.5.5h-3c-.3,0-.5-.2-.5-.5v-1.4c0-.3.2-.5.5-.5Z"/>
  <path class="st6" d="M364.6,232h3c.3,0,.5.2.5.5v1.4c0,.3-.2.5-.5.5h-3c-.3,0-.5-.2-.5-.5v-1.4c0-.3.2-.5.5-.5Z"/>
  <path class="st6" d="M372.4,232h3c.3,0,.5.2.5.5v1.4c0,.3-.2.5-.5.5h-3c-.3,0-.5-.2-.5-.5v-1.4c0-.3.3-.5.5-.5Z"/>
  <path class="st6" d="M380.3,232h3c.3,0,.5.2.5.5v1.4c0,.3-.2.5-.5.5h-3c-.3,0-.5-.2-.5-.5v-1.4c0-.3.2-.5.5-.5Z"/>
  <path class="st6" d="M388.1,232h3c.3,0,.5.2.5.5v1.4c0,.3-.2.5-.5.5h-3c-.3,0-.5-.2-.5-.5v-1.4c.1-.3.3-.5.5-.5Z"/>
  <path class="st6" d="M396,232h3c.3,0,.5.2.5.5v1.4c0,.3-.2.5-.5.5h-3c-.3,0-.5-.2-.5-.5v-1.4c0-.3.2-.5.5-.5Z"/>
  <path class="st6" d="M403.6,231.7h3c.3,0,.5.2.5.5v1.4c0,.3-.2.5-.5.5h-3c-.3,0-.5-.2-.5-.5v-1.4c0-.2.3-.5.5-.5Z"/>
  <path class="st6" d="M411.5,231.7h3c.3,0,.5.2.5.5v1.4c0,.3-.2.5-.5.5h-3c-.3,0-.5-.2-.5-.5v-1.4c0-.2.2-.5.5-.5Z"/>
  <path class="st6" d="M419.3,231.7h3c.3,0,.5.2.5.5v1.4c0,.3-.2.5-.5.5h-3c-.3,0-.5-.2-.5-.5v-1.4c.1-.2.3-.5.5-.5Z"/>
  <path class="st6" d="M427.2,231.7h3c.3,0,.5.2.5.5v1.4c0,.3-.2.5-.5.5h-3c-.3,0-.5-.2-.5-.5v-1.4c0-.2.2-.5.5-.5Z"/>
  <path class="st6" d="M435.1,231.7h3c.3,0,.5.2.5.5v1.4c0,.3-.2.5-.5.5h-3c-.3,0-.5-.2-.5-.5v-1.4c0-.2.2-.5.5-.5Z"/>
  <path class="st6" d="M442.9,231.7h3c.3,0,.5.2.5.5v1.4c0,.3-.2.5-.5.5h-3c-.3,0-.5-.2-.5-.5v-1.4c0-.2.2-.5.5-.5Z"/>
  <path class="st6" d="M450.8,231.7h3c.3,0,.5.2.5.5v1.4c0,.3-.2.5-.5.5h-3c-.3,0-.5-.2-.5-.5v-1.4c0-.2.2-.5.5-.5Z"/>
  <path class="st6" d="M458.6,231.7h3c.3,0,.5.2.5.5v1.4c0,.3-.2.5-.5.5h-3c-.3,0-.5-.2-.5-.5v-1.4c0-.2.3-.5.5-.5Z"/>
  <path class="st6" d="M466.5,231.7h3c.3,0,.5.2.5.5v1.4c0,.3-.2.5-.5.5h-3c-.3,0-.5-.2-.5-.5v-1.4c0-.2.2-.5.5-.5Z"/>
  <path class="st6" d="M386.3,236.4h30.5c.3,0,.5.2.5.5v1.4c0,.3-.2.5-.5.5h-30.5c-.3,0-.5-.2-.5-.5v-1.4c.1-.2.3-.5.5-.5Z"/>
  <path class="st2" d="M503.9,46.6h-200.6c-.4,0-.8-.4-.8-.8s.4-.8.8-.8h200.6c.4,0,.8.4.8.8,0,.5-.4.8-.8.8Z"/>
  <ellipse class="st2" cx="316.9" cy="36.2" rx="4.7" ry="4.8"/>
  <ellipse class="st2" cx="333.1" cy="36.2" rx="4.7" ry="4.8"/>
  <ellipse class="st2" cx="349.2" cy="36.2" rx="4.7" ry="4.8"/>
  <polygon class="st12" points="403.4 58.7 402.7 56.8 485.6 13.8 486.2 15.7 403.4 58.7"/>
  <polygon class="st12" points="653.4 138.5 652.7 136.6 702.6 93.7 703.2 95.6 653.4 138.5"/>
  <polygon class="st12" points="557.6 148.4 474.7 105.4 475.4 103.5 558.2 146.5 557.6 148.4"/>
  <polygon class="st12" points="600 118.5 551.4 38.7 553 37.4 601.5 117.2 600 118.5"/>
  <polygon class="st12" points="637.9 14.6 590.6 14.3 590.6 12.3 637.9 12.6 637.9 14.6"/>
  <path class="st1" d="M723.6,27h-53c-7.2,0-13-5.8-13-13s5.8-13,13-13h53c7.2,0,13,5.8,13,13s-5.8,13-13,13h0Z"/>
  <path class="st1" d="M789.6,103h-53c-7.2,0-13-5.8-13-13s5.8-13,13-13h53c7.2,0,13,5.8,13,13s-5.8,13-13,13Z"/>
  <polygon class="st12" points="703.9 156.6 656.6 156.3 656.6 154.3 703.9 154.6 703.9 156.6"/>
  <path class="st1" d="M789.6,169h-53c-7.2,0-13-5.8-13-13s5.8-13,13-13h53c7.2,0,13,5.8,13,13s-5.8,13-13,13Z"/>
  <path class="st1" d="M634.6,160h-53c-7.2,0-13-5.8-13-13s5.8-13,13-13h53c7.2,0,13,5.8,13,13s-5.8,13-13,13Z"/>
  <path class="st1" d="M562.6,26h-53c-7.2,0-13-5.8-13-13s5.8-13,13-13h53c7.2,0,13,5.8,13,13s-5.8,13-13,13Z"/>
  <path class="st5" d="M309.3,249.2h-60c-4.4,0-8,3.6-8,8s3.6,8,8,8h22v62h16v-62h22c4.4,0,8-3.6,8-8s-3.6-8-8-8h0Z"/>
  <path class="st5" d="M348.9,361.5h-160.5c-32.2-.1-59.4-23.8-63.9-55.6l-5.7-20.9c-11.8-43.3-29.7-84.7-53.2-122.9-10.7-17.5-16.3-34.3-3.7-50.6,0,0,.2-.3.3-.4,10.1-13.1,60.2-16,76.6-16.5h103.6c18,.5,34.2,10.9,42.2,26.9,8.6,16.4,7.5,36.2-2.9,51.5-35.1,52.7-45.8,85.7-34.8,107.1,10.6,20.7,43.2,31.3,102.6,33.3,15.9.5,23.3,13,23.3,24.3s-7,23.2-22.6,23.8c-.3,0-.8,0-1.3,0Z"/>
  <path class="st5" d="M215.7,504h60c4.4,0,8-3.6,8-8s-3.6-8-8-8h-22v-135h-16v135h-22c-4.4,0-8,3.6-8,8s3.5,8,8,8Z"/>
  <polygon class="st11" points="270 449.6 280.3 455.2 307.7 417.4 292.4 409.1 270 449.6"/>
  <path class="st14" d="M274.9,436.1l18.8,5.9-3,7.9,12.9,18.7c1.6,2.4,1,5.7-1.3,7.3-1.4,1-3.2,1.2-4.8.6l-21.8-8.3-.8-9.2-4.4,7.2-8.2-3.1,12.6-27Z"/>
  <path class="st11" d="M296.1,68.1c.9,6.3-3.5,12.2-9.8,13.2-.7,0-1.4,0-2,0l-39.9,84.8-12.5-17.4,41-80.2c.6-6.4,6.3-11.1,12.8-10.5,5.3.5,9.6,4.6,10.4,10h0Z"/>
  <path class="st8" d="M163.8,183.3s-1.1,14.8,15.7,17.7,61.5-25.4,68.9-29.8,21.1-59.1,21.1-59.1l-11.9-20.1c-14.7,18.6-26.3,35.8-27,48l-66.8,43.3Z"/>
  <path class="st11" d="M183.2,234.3l3.6,15.5s0,14.3,2.6,17c2.5,2.6,58-2.7,58-2.7,0,0-5.9-23.1-5.8-40.6l-58.4,10.8h0Z"/>
  <path class="st14" d="M300.3,433.2l-20-11c-.4-26,15.3-61.2,33.8-98.1-41.5,7.1-80.7,9.4-114.6.8-11.6-3.1-18.6-14.8-15.7-26.5.1-.5.3-1.1.5-1.6,4.1-12.4-5-20.1,3.3-33.7,22-7.5,42.9-9.6,62-3l12,26.5,59.3-7.7c12-1.4,22.9,7.1,24.3,19.1v.2c.1.6.1,1.3.2,1.9-11.9,56.2-25.4,106.8-45.1,133.1Z"/>
  <path class="st8" d="M175.1,135.9l22.9-1.3c2-.1,3.8,1,4.6,2.9l6.5,15.7,26.9,22.2s10.6,13.5,10.7,31,3.8,57.9,3.8,57.9c0,0-15.5-21.8-25.1-16-1.6,1-2.2,3-3.9,4-.9.5-2.8,0-3.7.5-13.2,7.8-27,15.5-28.2,14.1-2.5-2.6-5.6-16.1-5.6-16.1l-20.9-76.9c-2.3-8.2-.8-17,4-24,1.5-2.1,3-3.6,4.4-3.8,3-.7,1.3-7.9,3.6-10.2h0Z"/>
  <polygon class="st11" points="369.6 482.2 379.2 475.5 357.4 434.2 343.1 444.1 369.6 482.2"/>
  <path class="st14" d="M371,454.5l-15.1,13.5c-24-26.8-42.2-64.4-57.6-107.1-40.4-11.8-70.8-30.9-97.4-53.5-9-7.6-15.8-17.4-8.1-26.7.4-.4.7-.9,1.1-1.3,9.1-9.3,32.1-7.6,45.6-16.1l30.1,32.2-1.9,8.6,56.6,19.2c11.4,4,17.4,16.5,13.4,27.8q0,.1-.1.2c-.2.6-.4,1.2-.7,1.8l34.1,101.4Z"/>
  <path class="st14" d="M364,479.4l15.4-12.2,4.8,6.9h22.7c2.9-.1,5.3,2.2,5.3,5.1s-.8,3.3-2.3,4.3l-19.2,13.5-8.1-4.5,3.5,7.7-7.2,5-14.9-25.8Z"/>
  <path class="st11" d="M208.9,329.7c-5.9-2.5-8.7-9.3-6.2-15.2.3-.6.6-1.2,1-1.8l-51.8-78.1,21.4-1.6,47.2,76.7c5.2,3.9,6.2,11.2,2.3,16.3-3.2,4.3-9,5.8-13.9,3.7h0Z"/>
  <path class="st8" d="M179.1,156.8s-12.1-8.6-23.3,4.2-10.3,65.8-10.4,74.3c0,2.7,3.8,8.4,9.2,15.1,2.4,3,5.1,6.2,7.8,9.3,1.6,1.8.2,5.6,1.8,7.4s6.2,1.5,7.7,3.1c7.2,7.8,13,13.7,13,13.7l23.4.3c.3-17.4-11.7-33-27-48l-2.2-79.4h0Z"/>
  <path class="st10" d="M155.5,81c-2.2,1.6-4.5,3.2-7.3,3.6s-5.9-.9-6.6-3.5c-.9-3.2,2-6.1,4.6-8.2l8.3-6.6c1.5-1.3,3.2-2.5,5.1-3.3,1.9-.8,4-.8,5.9.2,1.8,1.2,2.9,3.3,2.8,5.5-.1,2.1-.8,4.2-2,6-3.1,4.8-8,8.2-13.7,9.3"/>
  <path class="st5" d="M218.3,253.2h-60c-4.4,0-8,3.6-8,8s3.6,8,8,8h22v62h16v-62h22c4.4,0,8-3.6,8-8s-3.6-8-8-8h0Z"/>
  <path class="st14" d="M159.2,64.2c.2-6-6.2-10.7-12.1-10.4s-11.1,4.6-14.5,9.5-5.4,10.7-8.1,16-6.2,10.6-11.6,13.4c-5.3,2.8-12.7,2.3-16.4-2.5-2.3,3.5-2.8,7.9-1.4,11.9,1.5,3.9,4.3,7.1,7.9,9.2,1.4.9,3,1.5,4.6,2,.7-1.8,1.6-3.5,2.8-5-.5,1.8-.7,3.7-.6,5.5,2.5.5,5,.4,7.5,0,4.9-1.1,9-4.4,11.1-9,2.2-5.3,1.1-11.4,1.6-17.1.5-5.8,3.9-12.3,9.7-12.4,4.4,0,3.8.3,6.6,3.7"/>
  <path class="st14" d="M199.1,95.7c0,14.4-11.6,26-26,26s-28-16.6-28-31,13.6-21,28-21,26,11.7,26,26Z"/>
  <circle class="st11" cx="181" cy="102.6" r="24.8"/>
  <path class="st14" d="M212.1,98.7c-7.3,2-14.8,4.1-17.6,0-.6-2.7-1.6-5.3-3.1-7.7-.3,2.6-.9,5.2-1.8,7.7-9.3,2-17.9,2.5-25.4,0-1,1.9-1.6,3.9-1.8,6.1l-1.2-.6c-.5-.3-1.1-.3-1.6,0-.4.2-.6.6-.6,1s0,.8.1,1.2c.1,1.4.5,2.8,1.2,4.1.6.9,1.5,1.4,2.5,1.6,1,5.9,9.3,13.8,9.3,13.8-25,1-25-16-25-32l3-6h10v-13h28c13.3,0,24,10.7,24,23.9Z"/>
  <path class="st13" d="M439.9,506.9l-438.7.3c-.7,0-1.2-.5-1.2-1.2s.5-1.2,1.2-1.2h0l438.8-.3c.7,0,1.2.5,1.2,1.2-.1.7-.6,1.2-1.3,1.2Z"/>
  <path class="st13" d="M732.9,506.9l-226.8.3c-.7,0-1.2-.5-1.2-1.2s.5-1.2,1.2-1.2h0l226.8-.3c.7,0,1.2.5,1.2,1.2s-.5,1.2-1.2,1.2h0Z"/>
  <path class="st3" d="M450,148h-86c-7.5,0-13.5-6.1-13.5-13.5v-57c0-7.5,6.1-13.5,13.5-13.5h86c7.5,0,13.5,6.1,13.5,13.5v57c0,7.4-6.1,13.5-13.5,13.5ZM364,66c-6.4,0-11.5,5.2-11.5,11.5v57c0,6.4,5.2,11.5,11.5,11.5h86c6.4,0,11.5-5.2,11.5-11.5v-57c0-6.4-5.2-11.5-11.5-11.5h-86Z"/>
  <rect class="st3" x="366.5" y="82" width="23" height="2"/>
  <rect class="st3" x="366.5" y="90" width="51" height="2"/>
  <rect class="st3" x="366.5" y="97" width="51" height="2"/>
  <rect class="st3" x="366.5" y="104" width="65" height="2"/>
  <rect class="st3" x="366.5" y="111" width="34" height="2"/>
  <rect class="st3" x="366.5" y="118" width="62" height="2"/>
  <rect class="st3" x="366.5" y="125" width="11" height="2"/>
  <path class="st2" d="M365.7,39c-.1,0-.2,0-.3,0l-2.1-2.2c-.1,0-.1-.4,0-.5l2.1-2.2c.1,0,.4,0,.5,0s.2.4,0,.5l-1.9,1.9,1.9,1.9c.1,0,.1.4,0,.5,0,0-.1.2-.2.2h0Z"/>
  <path class="st2" d="M369.3,39c-.1,0-.2,0-.3,0-.1,0-.2-.4,0-.5l1.9-1.9-1.9-1.9c-.1,0-.1-.4,0-.5s.4,0,.5,0l2.1,2.2c.1,0,.1.4,0,.5l-2.1,2.2c0,0-.1,0-.2,0h0Z"/>
  <path class="st2" d="M481,33.5h-4c-.5,0-.8.4-.8.8v4c0,.5.4.8.8.8h4c.5,0,.8-.4.8-.8v-4c0-.4-.4-.8-.8-.8Z"/>
  <path class="st2" d="M471.2,33.5h-4c-.5,0-.8.4-.8.8v4c0,.5.4.8.8.8h4c.5,0,.8-.4.8-.8v-4c.1-.4-.3-.8-.8-.8Z"/>
  <path class="st2" d="M490.1,33.7h-4c-.5,0-.8.4-.8.8v4c0,.5.4.8.8.8h4c.5,0,.8-.4.8-.8v-4c0-.4-.3-.8-.8-.8Z"/>
  <path class="st2" d="M430.3,35.2h-31.7c-.6,0-1,.4-1,1s.4,1,1,1h31.7c.5,0,1-.4,1-1s-.4-1-1-1Z"/>
</svg>