<?xml version="1.0" encoding="utf-8"?>
<!-- Generator: Adobe Illustrator 28.2.0, SVG Export Plug-In . SVG Version: 6.00 Build 0)  -->
<svg version="1.1" id="Layer_1" xmlns="http://www.w3.org/2000/svg" xmlns:xlink="http://www.w3.org/1999/xlink" x="0px" y="0px"
	 viewBox="0 0 524.7 393" style="enable-background:new 0 0 524.7 393;" xml:space="preserve">
<style type="text/css">
	.st0{fill:#A2785D;}
	.st1{fill:#56321B;}
	.st2{fill:#F5ECE6;}
	.st3{opacity:0.1;enable-background:new    ;}
	.st4{fill:#EAD8CD;}
	.st5{fill:#268184;}
</style>
<polygon class="st0" points="146.1,297.5 116.4,300.7 102.3,291.1 94.1,300.7 98,321.1 102.5,337.2 129.9,323.3 151.9,321.3 "/>
<polygon class="st1" points="296.1,263.4 224.6,262.1 137.7,298.8 149.3,323.9 227.8,302 349.5,336.8 332.8,254.4 "/>
<path class="st1" d="M100.1,299.8l14.2-1.1l-18.1-38.2c0,0-8.4-3-9.7,6.2c-1.3,9.2,9.7,71.5,12.9,71.5s14-6.3,14-6.3l-16-30.3
	L100.1,299.8L100.1,299.8L100.1,299.8z"/>
<path class="st2" d="M456.4,289.4c-1.4,0.1-3,0.4-4.6,0.7c-7,1.4-7.2,6.2-7.1,7.3l0,0c-0.7,1.1-1.1,2.3-1.4,3.4l-0.3-14.6
	c0.2-0.4,0.4-0.9,0.6-1.4c0.5,1.6,1.4,3.1,2.1,3c1-0.1,1.4-3,1.2-5c1.2,1.6,3.3,3.3,4.1,2.8c0.6-0.4,0.2-2.1-0.4-3.7
	c1.4,0.9,3,1.4,3.5,0.9c0.7-0.7-0.9-3.3-2.4-4.7c2,0.2,4.5-0.1,4.6-1c0.1-0.7-1.4-1.7-3-2.3c1.6-0.4,3.1-1.2,3-1.9
	c-0.1-0.9-2.3-1.5-4.2-1.5c1.5-1.1,2.8-2.7,2.4-3.4c-0.4-0.6-2.1-0.4-3.7,0.2c1-1.4,1.6-2.9,1.1-3.4c-0.6-0.6-2.9,0.5-4.4,1.7
	c0.3-1.9,0.1-4.4-0.7-4.6c-0.7-0.2-1.8,1.2-2.5,2.8c-0.3-1.6-1-3.2-1.7-3.2c-1,0-1.9,3.1-1.9,5.2c0,0.1,0,0.2,0,0.3
	c-0.1-0.1-0.2-0.2-0.4-0.4c-1.5-1.4-4.3-3-5-2.3c-0.5,0.5,0.2,2,1.1,3.4c-1.6-0.6-3.4-0.8-3.7-0.2c-0.5,0.9,1.6,3.1,3.4,4.1
	c-0.1,0-0.2,0-0.3,0c-2-0.1-5.2,0.5-5.3,1.5c0,0.7,1.5,1.5,3,1.9c-1.6,0.6-3.1,1.5-3,2.3c0.2,0.9,2.7,1.2,4.6,1
	c-1.5,1.4-3.1,3.9-2.4,4.7c0.5,0.5,2.1,0,3.5-0.9c-0.7,1.6-1,3.3-0.4,3.7c0.8,0.5,3.1-1.4,4.3-3c-0.1,2,0.4,4.8,1.3,4.9
	c0.4,0,0.8-0.4,1.2-1l-1.1,15.7c-0.2,1.8,1.4,3,1.5,3.8l0.2,10.7c-0.3-0.8-0.6-1.5-1.1-2.3l0,0c0.1-1.1-0.1-5.9-7.1-7.3
	c-1.7-0.3-3.2-0.6-4.6-0.7c-1.7-0.2-2.4,2.1-0.8,2.9c2.2,1.1,4.3,2.4,5.4,4c2.8,4.1,6.6,1.7,7.1,1.4c0.6,1,1,2,1.3,3l0.1,5.7
	c0,0.1,0,0.2,0,0.2h0.1l0.3,13.7h2.8l-1-14c0.2-0.8,0.7-3.3,0-6l-1-11l0,0c0,0,0.1,0.3,0,0l-1.3-4.3c0.2-1.3,0.6-2.8,1.5-4.3
	c0.5,0.4,4.4,2.8,7.1-1.4c1.1-1.6,3.2-3,5.4-4C458.7,291.5,458,289.2,456.4,289.4L456.4,289.4L456.4,289.4z M443.6,321.8v-2.4
	C443.6,320.3,443.6,321.1,443.6,321.8z"/>
<path class="st1" d="M0,337.1c0,0.7,0.5,1.2,1.2,1.2h522.3c0.7,0,1.2-0.5,1.2-1.2s-0.5-1.2-1.2-1.2H1.2C0.5,335.9,0,336.4,0,337.1z"
	/>
<polygon class="st0" points="346.5,177.5 353.6,153.7 374.2,153 382.6,182.7 "/>
<polygon class="st3" points="346.5,177.5 353.6,153.7 374.2,153 382.6,182.7 "/>
<path class="st4" d="M378.2,174.2l-33.5-1.3l-10.4,21.4l-16,94.6l84,19c0,0,5.1-105.6-6.4-120.4S378.2,174.2,378.2,174.2
	L378.2,174.2L378.2,174.2z"/>
<g>
	<path id="uuid-6491ea2e-b6df-4d87-9577-65b18a9d314e-38" class="st0" d="M280.1,100.2c-1.4-7.4-6.4-12.8-11.1-11.9
		s-7.5,7.7-6.1,15.1c0.5,3,1.7,5.8,3.6,8.2l6.3,31.5l12.5-2.5l-5.5-31.5C280.6,106.2,280.7,103.1,280.1,100.2L280.1,100.2z"/>
	<polygon class="st4" points="373.2,182.8 304.8,169.3 285.6,111.5 264,116.6 285.6,202 363,212.2 	"/>
</g>
<path class="st5" d="M269,7.6L269,7.6c-0.1,0.1-0.1,0.1-0.2,0.2c-10.4-10.3-27-10.4-37.5-0.2l0,0c-10.5,10.2-10.9,27-0.8,37.6l0,0
	l0.2,0.3l0,0l37.1,38.2l38.4-37.3l-0.1-0.1c0.1-0.1,0.1-0.1,0.2-0.2l0,0c10.6-10.3,10.9-27.2,0.5-37.8l0,0
	C296.6-2.5,279.6-2.7,269,7.6L269,7.6L269,7.6z"/>
<path class="st5" d="M278.2,196.8L278.2,196.8c-0.1,0.1-0.2,0.2-0.4,0.4c-19.1-18.9-49.8-19.1-69.1-0.4l0,0
	c-19.3,18.8-20,49.6-1.5,69.2l0,0l0.5,0.5l0,0l68.2,70.3l70.7-68.7l-0.2-0.2c0.1-0.1,0.2-0.2,0.4-0.3l0,0c19.5-19,20-50.2,1-69.7
	l0,0C328.9,178.3,297.7,177.8,278.2,196.8L278.2,196.8L278.2,196.8z"/>
<path class="st1" d="M382.5,275.1c0,0,25.3,21,15.9,33.8s-41.2,35.6-55.6,28.5s-44.3-58.3-44.3-58.3l-7.8,52.5l-20.5-1.8
	c0,0-14.9-74.1-1.2-85.5c13.7-11.4,76.1,8.7,76.1,8.7L382.5,275.1L382.5,275.1L382.5,275.1L382.5,275.1z"/>
<polygon class="st0" points="275.3,322.8 269.4,341 257.2,358.1 266.6,372.1 296.3,352.6 296.2,342.5 291.6,336.2 288.3,324.1 "/>
<path class="st1" d="M265.9,365.2l-7.5-12.1l-25.7,33.5c0,0,1.2,8.8,10,5.7s63.2-31,61.7-33.8s-7.5-18.3-7.5-18.3l-28.1,26.4
	L265.9,365.2L265.9,365.2L265.9,365.2z"/>
<g>
	<path id="uuid-c0c993a8-d454-4668-92ed-b9c18bfd3ed5-39" class="st0" d="M281.7,274.9c-7.5,0.8-13.3,5.2-12.8,10s7,8.1,14.5,7.3
		c3-0.3,5.9-1.2,8.5-2.9l31.9-3.6l-1.5-12.6l-31.8,2.8C287.8,275,284.7,274.6,281.7,274.9L281.7,274.9z"/>
	<polygon class="st4" points="372.1,189.3 352.8,256.3 293.5,270.5 296.7,292.4 383.7,278.2 400.5,201.9 	"/>
</g>
<g>
	<circle class="st0" cx="361.3" cy="133.5" r="27.4"/>
	<path class="st1" d="M363.5,96.7c-0.8,0.5-1.9-0.2-2.1-1.1s0-1.8,0.3-2.7c0.5-1.5,1-2.9,1.5-4.4c1-3.1,2.2-6.3,4.4-8.7
		c3.4-3.6,8.9-4.5,13.8-3.8c6.3,0.8,12.5,4.2,15.4,9.9c2.9,5.6,1.7,13.5-3.6,17c7.5,8.6,10.1,18.2,9.7,29.7c-0.4,11.4-12.9,22-21,30
		c-1.8-1.1-3.5-6.3-2.5-8.1c1-1.9-0.4-4.1,0.8-5.8s2.3,1,1-0.7c-0.8-1.1,2.3-3.6,1.1-4.2c-5.7-3.1-7.6-10.2-11.1-15.6
		c-4.3-6.5-11.7-11-19.4-11.7c-4.3-0.4-8.8,0.3-12.3,2.8s-5.8,6.9-5,11.2c-2.1-2.1-3.2-5.3-2.8-8.3c0.4-3,2.2-5.7,4.8-7.3
		c-1.6-5.2-0.2-11.2,3.4-15.3s18.5-3.3,23.9-2.3L363.5,96.7L363.5,96.7L363.5,96.7z"/>
	<path class="st1" d="M364.3,116.6c7.1,0.8,12.2,6.9,16.5,12.6c2.5,3.3,5.1,6.9,5,11s-2.8,7.7-4.2,11.7c-2.2,6.4-0.1,14.1,5.1,18.5
		c-5.1,1-10.6-2.9-11.5-8c-1-6,3.5-11.7,3-17.7c-0.5-5.3-4.6-9.4-8.2-13.4s-6.9-9.2-5.3-14.3L364.3,116.6L364.3,116.6L364.3,116.6z"
		/>
</g>
</svg>
