<?xml version="1.0" encoding="UTF-8"?>
<svg id="Layer_1" xmlns="http://www.w3.org/2000/svg" version="1.1" viewBox="0 0 717.7 454">
  <!-- Generator: Adobe Illustrator 29.1.0, SVG Export Plug-In . SVG Version: 2.1.0 Build 142)  -->
  <defs>
    <style>
      .st0 {
        fill: #814c29;
      }

      .st1 {
        fill: #ead8cd;
      }

      .st2 {
        fill: #9b9795;
      }

      .st3 {
        fill: #3f3d56;
      }

      .st4 {
        fill: #56321c;
      }

      .st5 {
        fill: #dfdddc;
      }

      .st6 {
        fill: #268184;
      }

      .st7 {
        fill: #5c5755;
      }

      .st8 {
        fill: #f7f7f7;
      }

      .st9 {
        fill: #bdbab8;
      }

      .st10 {
        fill: #b3886e;
      }

      .st11 {
        fill: #d5b19b;
      }
    </style>
  </defs>
  <path class="st4" d="M272,71.5c-1,1.3-2.8,1.8-4.3,1.3-.2,0-.5-.2-.7-.2.2-2.7.1-5.4-.4-8-.2,2.3-.7,4.5-1.6,6.6-.7-.7-1.3-1.6-1.8-2.5-.8-1.9-1.4-4-1.6-6-1.2-7.1-2.4-14.5-.4-21.4,2.9-10.1,12-17.4,15.7-27.2l1.9-1.7c3.2,5.4,3.3,12.2,2,18.4s-3.9,12-6,18-3.6,12.3-2.7,18.6c.3,1.2.7,2.8-.1,4.1Z"/>
  <polygon class="st10" points="230.5 157.1 218.3 212.8 271.5 230.1 263.6 157.1 230.5 157.1"/>
  <path class="st0" d="M605.7,452.6h24.1v-110.5c0-59.4-48.2-107.5-107.5-107.5h-224c-59.4.1-107.5,48.2-107.5,107.5v110.5h24.1v-75.5c.1-59.9,48.6-108.5,108.5-108.5h173.7c59.9.1,108.5,48.6,108.5,108.5v75.5h.1Z"/>
  <path class="st1" d="M312.9,394.8l-25.7-7.8c-1.7-6.9-2.5-13.9-2.5-21s3.8-8.4,8.5-8.3c2,0,3.9.7,5.4,2,13.8,11.8,33.9,18.1,47,31.6,10.9,11.5,16,27.3,13.9,42.9l5.6,18.2c-25.5-1.8-48.8-14.7-64-35.3-4.1-5.7-7.5-12-10.1-18.6,10.8-1.2,21.9-3.7,21.9-3.7Z"/>
  <path class="st1" d="M379.8,424.6l13.1-4q0-.1.1-.2c1-4.5-1.8-9-6.3-10.1-2.1-.5-4.3-.1-6.1,1-5.9,3.5-12.5,6.6-17.3,11.5-5.6,5.8-8.2,13.9-7.1,21.9l-2.9,9.3c13-.9,24.9-7.5,32.6-18,2.1-2.9,3.8-6.1,5.2-9.5-5.6-.6-11.3-1.9-11.3-1.9Z"/>
  <path class="st9" d="M485.8,153.1h-51c-1.5,0-2.7,1.2-2.7,2.7v80.6h56.4v-80.6c.1-1.4-1.1-2.7-2.7-2.7.1,0,0,0,0,0ZM460.5,198.9c-3.3,0-6-2.7-6-6v-9.3c0-3.3,2.7-6,6-6s6,2.7,6,6h0v9.3c0,3.3-2.7,6-6,6Z"/>
  <path class="st2" d="M570.3,27.4h-218c-3.9,0-7.1,3.2-7.1,7.1v147.1c0,3.9,3.2,7.1,7.1,7.1h218c3.9,0,7.1-3.2,7.1-7.1V34.5c0-3.9-3.2-7.1-7.1-7.1Z"/>
  <path class="st8" d="M568.5,32.5h-214.4c-2.1,0-3.8,1.7-3.8,3.8v143.5c0,2.1,1.7,3.8,3.8,3.8h214.4c2.1,0,3.8-1.7,3.8-3.8V36.3c0-2.1-1.7-3.8-3.8-3.8Z"/>
  <path class="st3" d="M432,233.9v7.8c0,.8.7,1.5,1.5,1.5h53.8c.8,0,1.5-.7,1.5-1.5v-7.8h-56.8Z"/>
  <path class="st2" d="M526.7,245.8h-127.5c-1.3,0-2.3-1.1-2.3-2.3s0-.3.1-.5l2-9.4c.2-1.1,1.2-1.9,2.3-1.9h123.6c1.1,0,2.1.8,2.3,1.9l2,9.4c.3,1.3-.5,2.5-1.8,2.8h-.7Z"/>
  <path class="st5" d="M402.6,233.4h3c.3,0,.5.2.5.5v1.4c0,.3-.2.5-.5.5h-3c-.3,0-.5-.2-.5-.5v-1.4c0-.2.2-.5.5-.5Z"/>
  <path class="st5" d="M410.4,233.4h3c.3,0,.5.2.5.5v1.4c0,.3-.2.5-.5.5h-3c-.3,0-.5-.2-.5-.5v-1.4c0-.2.2-.5.5-.5Z"/>
  <path class="st5" d="M418.3,233.4h3c.3,0,.5.2.5.5v1.4c0,.3-.2.5-.5.5h-3c-.3,0-.5-.2-.5-.5v-1.4c0-.2.2-.5.5-.5Z"/>
  <path class="st5" d="M426.1,233.4h3c.3,0,.5.2.5.5v1.4c0,.3-.2.5-.5.5h-3c-.3,0-.5-.2-.5-.5v-1.4c0-.2.3-.5.5-.5Z"/>
  <path class="st5" d="M434,233.4h3c.3,0,.5.2.5.5v1.4c0,.3-.2.5-.5.5h-3c-.3,0-.5-.2-.5-.5v-1.4c0-.2.2-.5.5-.5Z"/>
  <path class="st5" d="M441.8,233.4h3c.3,0,.5.2.5.5v1.4c0,.3-.2.5-.5.5h-3c-.3,0-.5-.2-.5-.5v-1.4c0-.2.3-.5.5-.5Z"/>
  <path class="st5" d="M449.7,233.4h3c.3,0,.5.2.5.5v1.4c0,.3-.2.5-.5.5h-3c-.3,0-.5-.2-.5-.5v-1.4c0-.2.2-.5.5-.5Z"/>
  <path class="st5" d="M457.6,233.4h3c.3,0,.5.2.5.5v1.4c0,.3-.2.5-.5.5h-3c-.3,0-.5-.2-.5-.5v-1.4c0-.2.2-.5.5-.5Z"/>
  <path class="st5" d="M465.4,233.4h3c.3,0,.5.2.5.5v1.4c0,.3-.2.5-.5.5h-3c-.3,0-.5-.2-.5-.5v-1.4c0-.2.2-.5.5-.5Z"/>
  <path class="st5" d="M473.3,233.4h3c.3,0,.5.2.5.5v1.4c0,.3-.2.5-.5.5h-3c-.3,0-.5-.2-.5-.5v-1.4c0-.2.2-.5.5-.5Z"/>
  <path class="st5" d="M481.1,233.4h3c.3,0,.5.2.5.5v1.4c0,.3-.2.5-.5.5h-3c-.3,0-.5-.2-.5-.5v-1.4c0-.2.3-.5.5-.5Z"/>
  <path class="st5" d="M489,233.4h3c.3,0,.5.2.5.5v1.4c0,.3-.2.5-.5.5h-3c-.3,0-.5-.2-.5-.5v-1.4c0-.2.2-.5.5-.5Z"/>
  <path class="st5" d="M496.8,233.4h3c.3,0,.5.2.5.5v1.4c0,.3-.2.5-.5.5h-3c-.3,0-.5-.2-.5-.5v-1.4c0-.2.3-.5.5-.5Z"/>
  <path class="st5" d="M504.7,233.4h3c.3,0,.5.2.5.5v1.4c0,.3-.2.5-.5.5h-3c-.3,0-.5-.2-.5-.5v-1.4c0-.2.2-.5.5-.5Z"/>
  <path class="st5" d="M512.5,233.4h3c.3,0,.5.2.5.5v1.4c0,.3-.2.5-.5.5h-3c-.3,0-.5-.2-.5-.5v-1.4c0-.2.3-.5.5-.5Z"/>
  <path class="st5" d="M520.4,233.4h3c.3,0,.5.2.5.5v1.4c0,.3-.2.5-.5.5h-3c-.3,0-.5-.2-.5-.5v-1.4c0-.2.2-.5.5-.5Z"/>
  <path class="st5" d="M402.5,237.4h3c.3,0,.5.2.5.5v1.4c0,.3-.2.5-.5.5h-3c-.3,0-.5-.2-.5-.5v-1.4c0-.3.2-.5.5-.5Z"/>
  <path class="st5" d="M410.3,237.4h3c.3,0,.5.2.5.5v1.4c0,.3-.2.5-.5.5h-3c-.3,0-.5-.2-.5-.5v-1.4c0-.3.2-.5.5-.5Z"/>
  <path class="st5" d="M418.2,237.4h3c.3,0,.5.2.5.5v1.4c0,.3-.2.5-.5.5h-3c-.3,0-.5-.2-.5-.5v-1.4c0-.3.2-.5.5-.5Z"/>
  <path class="st5" d="M426,237.4h3c.3,0,.5.2.5.5v1.4c0,.3-.2.5-.5.5h-3c-.3,0-.5-.2-.5-.5v-1.4c0-.3.3-.5.5-.5Z"/>
  <path class="st5" d="M433.9,237.4h3c.3,0,.5.2.5.5v1.4c0,.3-.2.5-.5.5h-3c-.3,0-.5-.2-.5-.5v-1.4c0-.3.2-.5.5-.5Z"/>
  <path class="st5" d="M441.7,237.4h3c.3,0,.5.2.5.5v1.4c0,.3-.2.5-.5.5h-3c-.3,0-.5-.2-.5-.5v-1.4c0-.3.3-.5.5-.5Z"/>
  <path class="st5" d="M449.6,237.4h3c.3,0,.5.2.5.5v1.4c0,.3-.2.5-.5.5h-3c-.3,0-.5-.2-.5-.5v-1.4c0-.3.2-.5.5-.5Z"/>
  <path class="st5" d="M457.5,237.4h3c.3,0,.5.2.5.5v1.4c0,.3-.2.5-.5.5h-3c-.3,0-.5-.2-.5-.5v-1.4c0-.3.2-.5.5-.5Z"/>
  <path class="st5" d="M465.3,237.4h3c.3,0,.5.2.5.5v1.4c0,.3-.2.5-.5.5h-3c-.3,0-.5-.2-.5-.5v-1.4c0-.3.2-.5.5-.5Z"/>
  <path class="st5" d="M473.2,237.4h3c.3,0,.5.2.5.5v1.4c0,.3-.2.5-.5.5h-3c-.3,0-.5-.2-.5-.5v-1.4c0-.3.2-.5.5-.5Z"/>
  <path class="st5" d="M481,237.4h3c.3,0,.5.2.5.5v1.4c0,.3-.2.5-.5.5h-3c-.3,0-.5-.2-.5-.5v-1.4c0-.3.3-.5.5-.5Z"/>
  <path class="st5" d="M488.9,237.4h3c.3,0,.5.2.5.5v1.4c0,.3-.2.5-.5.5h-3c-.3,0-.5-.2-.5-.5v-1.4c0-.3.2-.5.5-.5Z"/>
  <path class="st5" d="M496.7,237.4h3c.3,0,.5.2.5.5v1.4c0,.3-.2.5-.5.5h-3c-.3,0-.5-.2-.5-.5v-1.4c0-.3.3-.5.5-.5Z"/>
  <path class="st5" d="M504.6,237.4h3c.3,0,.5.2.5.5v1.4c0,.3-.2.5-.5.5h-3c-.3,0-.5-.2-.5-.5v-1.4c0-.3.2-.5.5-.5Z"/>
  <path class="st5" d="M512.5,237.4h3c.3,0,.5.2.5.5v1.4c0,.3-.2.5-.5.5h-3c-.3,0-.5-.2-.5-.5v-1.4c0-.3.2-.5.5-.5Z"/>
  <path class="st5" d="M520.3,237.4h3c.3,0,.5.2.5.5v1.4c0,.3-.2.5-.5.5h-3c-.3,0-.5-.2-.5-.5v-1.4c0-.3.2-.5.5-.5Z"/>
  <path class="st5" d="M440.2,242.1h30.5c.3,0,.5.2.5.5v1.4c0,.3-.2.5-.5.5h-30.5c-.3,0-.5-.2-.5-.5v-1.4c0-.3.2-.5.5-.5Z"/>
  <path class="st9" d="M536.5,68.5v75.5c0,10.5-8.5,19.1-19.1,19.1h-94.5c-7.6,0-14.5-4.5-17.5-11.5-.5-1.1-.9-2.3-1.1-3.5,2,.8,4.1,1.2,6.3,1.2h94.5c9.7,0,17.6-7.9,17.6-17.6V56.2c0-2.2-.4-4.3-1.2-6.3,1.2.3,2.4.6,3.5,1.1,7,3,11.5,9.9,11.5,17.5Z"/>
  <polygon class="st10" points="183.9 369 174.5 374.8 146.9 340.8 160.7 332.3 183.9 369"/>
  <path class="st4" d="M192,381.1l-7.5,3.4-4.5-6.5-.3,8.7-20,8.9c-2.5,1.1-5.4,0-6.5-2.5-.7-1.5-.6-3.2.3-4.6l11-18.2-3.2-7.2,17.2-6.5,13.5,24.5Z"/>
  <path class="st7" d="M157.6,362.4l15.8-15.3c-11.8-29-12.7-47-29-82.1,38.7,7.9,66.4,7.4,98.4.3,10.8-2.4,38.8-24,36.5-35-.1-.5-.2-1-.4-1.5-3.4-11.7-1-29.6-8.5-42.6-13.8-5.2-34.7,12.3-51,23-7.9,5.1-2.1,12.2-8,14l-22.6,7.3-55.4-8.9c-11.2-1.7-21.7,6-23.4,17.2v.2c0,.6-.2,1.2-.2,1.8,2.5,14.1,5.2,27.8,8.1,40.9.9,4.2-.6,12.3,2.8,12.4s2.1,8.5,3.2,12.5c6.8,25,11,37.1,33.7,55.8Z"/>
  <polygon class="st10" points="127.3 429.7 117.6 424.6 133 383.7 147.4 391.2 127.3 429.7"/>
  <path class="st7" d="M125.7,399.2l15.7,10.8c19.2-27.8,31.7-64.9,40.9-106.4,36.1-15.8,67.8-33.8,89.8-58,7.5-8.4,7-21.3-1.2-29.1-.4-.4-.8-.7-1.2-1-9.5-7.6-30.7-3.2-44.3-9.6l-24.2,33.5,2.8,7.8-8.4,4.1-7.1,3.5-8.1,4-26.7,13c-10.1,5.1-14.2,17.4-9.2,27.5,0,0,0,.1.1.1.3.5.6,1.1.9,1.6l-9.9,49.4s2.7,8.6-1.6,7.8-2,9.7-2,9.7l-6.3,31.3Z"/>
  <path class="st4" d="M121.4,452.3l-7.3-3.8,2.3-7.6-7,5.2-19.4-10.2c-2.4-1.3-3.3-4.2-2.1-6.6.7-1.4,2.2-2.4,3.8-2.6l21.1-2.6,3.6-7,15.8,9.5-10.8,25.7Z"/>
  <path class="st10" d="M334.9,237.7l-11.4-27.6-9,5,5.4,28.1c-1.6,5.3,1.4,10.9,6.6,12.5,5.3,1.6,10.9-1.4,12.5-6.6,1.3-4.3-.4-9-4.1-11.4Z"/>
  <path class="st10" d="M143.2,19.4l17.4,24.3,7.6-6.9-11.7-26.1C156.9,5.2,152.7.4,147.2,0s-10.3,3.8-10.7,9.3c-.2,4.5,2.5,8.6,6.7,10.1h0Z"/>
  <path class="st6" d="M221.7,173.4c-11.3,17.5,30,55.6,51.8,46.7,3.8-1.6,16.9-6.7,8-13.9s1,.9,1.3-3.8c.2-3.1-2.2-9.9.3-9.6s4-7-1.5-8.8c-3.9-1.4-6.6-4.9-7-9-.5-19.2,6-39.2,6-39.2l26.5,67.7s-.2,11.7,3.2,8.1,3.1,8,3.1,8c0,0,5,3.5,2.1,5.5s3.1,8,3.1,8l14-1s-.2-10.4-2.6-12.7-1.2-5.9-1.2-5.9c0,0-4.9-4.6-2.1-10s-21-102-21-102c-1.9-9.5-9-17.1-18.4-19.6l-15.1-4.2-2.7-10.7h-21.3l-3.7,7-34-3s-33.6-30.6-32-33-3.6-8-3.6-8c0,0-4.5-1.5-1.9-2.2s-2.2-2.6-2.2-2.6c0,0-4.4-1.2-2.3-2.7s-6.9-2.5-6.9-2.5l-11.7,9.5,2.4,4s-1.4,5.4.4,3.5,2.2,3.8,2.2,3.8c0,0,1,6.3,6.6,8.2s10,20,10,20l48,40c-7.3,8.4-5.6,17.2.9,26.1l1.3,38.3Z"/>
  <circle class="st10" cx="258.3" cy="37" r="23.1"/>
  <path class="st4" d="M278.5,30.1c-.6.2-9.2,1.3-13,2-3.7.7-4.3-4-7.3-3.1h0c-.5-2.6-1.3-5-2.4-7.3.4,2.2.5,4.4.2,6.6v.5c-3.2-1.4-5.2-.1-7.4.3-2.5.5-4.4,1.6-3,10,2.8,17.3,17.6,23.5,15,35-.5,2.3-1.8,5.1-3.3,5.8-.5-2.5-1.3-4.9-2.4-7.2.4,2.2.5,4.4.2,6.6-2.5-2.6-4.2-11.9-12.5-19.2-2-1.8-12.2-12.5-13.4-15,.4,2,.6,4.1.5,6.1,0,1.4-.1,2.7-.3,4.1v.3c0,.2,0,.3-.1.5,0,.2,0,.3-.1.5-3.3-.5-6.3-1.1-7.7-2.4-6.8-6.6,1.5-19.4,6-31,6.5-16.6,25.2-18.8,27-19,8-.8,21.6.9,26,10,3.1,6.3,1.1,15-2,15.9Z"/>
  <path class="st4" d="M229.9,33.8l16.7-26c-4-2.3-8.6-3.5-13.2-3.5-4.7,0-9.1,2.2-12.1,5.7-3.4,4.2-4,10.2-2.7,15.5.4,1.8,8.8-4.6,6.8-1.6-1.6,2.3-4.3,12.2-5,15-1.1,4.5-4.1,9.1-1.4,12.8,3.1,4.4,8.7,6.7,14.2,6.9s10.8-1.3,16-3l-19.3-21.8Z"/>
  <path class="st6" d="M236.3,32.8c-.6,0-1-.4-1-1s.3-.8.7-1c.3-.4.2-2.3.1-3.7-.3-5.5-.9-14.8,8.1-21,.5-.3,1.1-.2,1.4.2s.2,1.1-.2,1.4h0c-8.1,5.6-7.6,13.8-7.3,19.3.2,3.1.3,5.4-1.6,5.8h-.2Z"/>
  <path class="st11" d="M0,452c0,.7.5,1.2,1.2,1.2h715.3c.7,0,1.2-.5,1.2-1.2s-.5-1.2-1.2-1.2H1.2c-.7,0-1.2.5-1.2,1.2h0Z"/>
  <path class="st6" d="M442.5,94.8h-15.1c-.8,0-1.5-.7-1.5-1.5s.7-1.5,1.5-1.5h15.1c.8,0,1.5.7,1.5,1.5s-.6,1.5-1.5,1.5Z"/>
  <path class="st6" d="M469.8,94.8h-15.1c-.8,0-1.5-.7-1.5-1.5s.7-1.5,1.5-1.5h15.1c.8,0,1.5.7,1.5,1.5s-.7,1.5-1.5,1.5h0Z"/>
  <path class="st6" d="M483.4,107h-15.1c-.8,0-1.5-.7-1.5-1.5s.7-1.5,1.5-1.5h15.1c.8,0,1.5.7,1.5,1.5s-.7,1.5-1.5,1.5Z"/>
  <path class="st6" d="M456.2,107h-28.8c-.8,0-1.5-.7-1.5-1.5s.7-1.5,1.5-1.5h28.8c.8,0,1.5.7,1.5,1.5s-.6,1.5-1.5,1.5Z"/>
  <path class="st6" d="M510.7,94.8h-28.8c-.8,0-1.5-.7-1.5-1.5s.7-1.5,1.5-1.5h28.8c.8,0,1.5.7,1.5,1.5s-.7,1.5-1.5,1.5h0Z"/>
  <path class="st6" d="M452.9,71.9h-28.8c-.8,0-1.5-.7-1.5-1.5s.7-1.5,1.5-1.5h28.8c.8,0,1.5.7,1.5,1.5s-.7,1.5-1.5,1.5h0Z"/>
  <path class="st6" d="M455.3,80.8c-.7,0-1.4-.6-1.4-1.4s.2-.8.5-1.1l7.4-5.7c1.2-.9,1.4-2.6.5-3.8,0,0-.1,0-.1-.2l-6.2-6.7c-.5-.5-.5-1.4.1-1.9.5-.5,1.4-.5,1.9,0h0l9.2,10c.5.5.5,1.4-.1,1.9h-.1c0,0-10.9,8.6-10.9,8.6-.2,0-.5.2-.8.2Z"/>
  <path class="st6" d="M422.6,80.8c.7,0,1.4-.6,1.4-1.4s-.2-.8-.5-1.1l-7.4-5.7c-1.2-.9-1.4-2.6-.5-3.8,0,0,.1,0,.1-.2l6.2-6.7c.5-.6.5-1.4-.1-1.9-.5-.5-1.4-.5-1.9,0l-9.2,10c-.5.5-.5,1.4.1,1.9h.1c0,0,10.9,8.6,10.9,8.6.2,0,.5.2.8.2Z"/>
  <path class="st6" d="M467.8,132.9h-28.8c-.8,0-1.5-.7-1.5-1.5s.7-1.5,1.5-1.5h28.8c.8,0,1.5.7,1.5,1.5s-.7,1.5-1.5,1.5h0Z"/>
  <path class="st6" d="M472.9,140.4c-.7,0-1.4-.6-1.4-1.4s.2-.8.5-1.1l7.4-5.7c1.2-.9,1.4-2.6.5-3.8,0-.1-.1-.1-.1-.2l-6.2-6.7c-.5-.6-.5-1.4.1-1.9.5-.5,1.4-.5,1.9,0l9.2,10c.5.5.5,1.4-.1,1.9h-.1c0,.1-10.9,8.6-10.9,8.6-.2.1-.5.2-.8.2Z"/>
  <path class="st6" d="M422.6,140.4c.7,0,1.4-.6,1.4-1.4s-.2-.8-.5-1.1l-7.4-5.7c-1.2-.9-1.4-2.6-.5-3.8,0-.1.1-.1.1-.2l6.2-6.7c.5-.5.5-1.4-.1-1.9-.5-.5-1.4-.5-1.9,0h0l-9.2,10c-.5.5-.5,1.4.1,1.9h.1c0,.1,10.9,8.6,10.9,8.6.2.1.5.2.8.2Z"/>
  <path class="st6" d="M425.2,136.2l6.1-13.9c.3-.8,1.2-1.1,2-.8.8.3,1.1,1.2.8,2l-6.1,13.9c-.3.8-1.2,1.1-2,.8s-1.2-1.3-.8-2h0Z"/>
</svg>